<svg xmlns="http://www.w3.org/2000/svg" viewBox="0 0 69.47 69.48"><defs><style>.cls-1{fill:#fff;stroke:#000;stroke-miterlimit:10;stroke-width:0.25px;}.cls-1,.cls-2,.cls-4{fill-rule:evenodd;}.cls-2{fill:#423c3e;}.cls-3{fill:#ccc;}.cls-4{fill:none;stroke:#999;stroke-width:0.5px;}</style></defs><title>bet_button</title><g id="Layer_2" data-name="Layer 2"><g id="Layer_8" data-name="Layer 8"><g id="Layer_11" data-name="Layer 11"><g id="football"><path class="cls-1" d="M69,39.82a34.67,34.67,0,0,0-4-22,.78.78,0,0,1-.05.14A34.87,34.87,0,0,0,50.38,4l.11-.05A34.22,34.22,0,0,0,29.21.57h0S24.43,2,23.59,2.25C21,3,17.13,4.74,11.78,8.81A34.1,34.1,0,0,0,.47,29.44l.08-.06A34.21,34.21,0,0,0,2.42,47.12l-.13,0A34.06,34.06,0,0,0,20.13,66.2s0-.07,0-.1a34.19,34.19,0,0,0,14.59,3.26A34.74,34.74,0,0,0,39.6,69l-.05.08A33.6,33.6,0,0,0,60.83,57.51h-.12a34.43,34.43,0,0,0,8.21-17.79Z"/><path class="cls-2" d="M.3,30.71A32.14,32.14,0,0,0,1.92,46a28,28,0,0,0,6.62,1,38.36,38.36,0,0,1,2.78-12.39A46.3,46.3,0,0,1,6,26.17Z"/><path class="cls-2" d="M32,3.44A21.47,21.47,0,0,0,28.26.72,33.32,33.32,0,0,0,12.47,8.2a23,23,0,0,0,.5,3.7A28.1,28.1,0,0,1,24.52,9.69,18.68,18.68,0,0,1,32,3.44Z"/><path class="cls-2" d="M64.46,17A34.16,34.16,0,0,0,51.29,4.38l-3.7,1.68a20.84,20.84,0,0,1,5.62,8.44,27.85,27.85,0,0,1,10.17,5.71A19.8,19.8,0,0,1,64.46,17Z"/><path class="cls-2" d="M20.15,59a23.21,23.21,0,0,0,1.3,7.74,33.18,33.18,0,0,0,17,2.47,51.4,51.4,0,0,0,4-6.23,38.44,38.44,0,0,1-10.1-6.1A30.08,30.08,0,0,1,20.15,59Z"/><path class="cls-2" d="M65.82,37a46.29,46.29,0,0,1-7.09,6.31,26,26,0,0,1-1.49,12.89,13,13,0,0,0,4.52.23,32.87,32.87,0,0,0,7-15.07A13.31,13.31,0,0,0,65.82,37Z"/></g><circle class="cls-3" cx="34.59" cy="34.25" r="25"/><path class="cls-4" d="M30.73,20.94a119.76,119.76,0,0,0-5.35,11.81,29.42,29.42,0,0,0,8.8,10.51,49,49,0,0,0,13.5-6.77,45.76,45.76,0,0,0-2.79-14C41.6,21.39,35.2,20.87,30.73,20.94Z"/></g></g></g></svg>