<?xml version="1.0" encoding="utf-8"?>
<!-- Generator: Adobe Illustrator 22.0.1, SVG Export Plug-In . SVG Version: 6.00 Build 0)  -->
<svg version="1.1" id="Layer_1" xmlns="http://www.w3.org/2000/svg" xmlns:xlink="http://www.w3.org/1999/xlink" x="0px" y="0px"
	 viewBox="0 0 356.5 121" style="enable-background:new 0 0 356.5 121;" xml:space="preserve">
<style type="text/css">
	.st0{fill:url(#SVGID_1_);}
	.st1{opacity:0.5;fill:url(#SVGID_2_);enable-background:new    ;}
	.st2{opacity:0.5;fill:url(#SVGID_3_);enable-background:new    ;}
	.st3{opacity:0.5;fill:url(#SVGID_4_);enable-background:new    ;}
	.st4{opacity:0.5;fill:url(#SVGID_5_);enable-background:new    ;}
	.st5{opacity:0.5;fill:url(#SVGID_6_);enable-background:new    ;}
</style>
<title>cardbackground (2)</title>
<g id="Layer_2_1_">
	<g id="body">
		<g id="cardbackground">
			
				<linearGradient id="SVGID_1_" gradientUnits="userSpaceOnUse" x1="0" y1="60.5094" x2="356.52" y2="60.5094" gradientTransform="matrix(1 0 0 -1 0 122)">
				<stop  offset="0" style="stop-color:#64C702"/>
				<stop  offset="1" style="stop-color:#2B5711"/>
			</linearGradient>
			<path class="st0" d="M356.5,121V2c-44.2,30.9-92.1,56.2-142.6,75.3C145.5,103.3,73.2,118.7,0,121"/>
			
				<linearGradient id="SVGID_2_" gradientUnits="userSpaceOnUse" x1="134.9978" y1="49.0986" x2="211.1732" y2="49.0986" gradientTransform="matrix(1 0 0 -1 0 122)">
				<stop  offset="0" style="stop-color:#64C702"/>
				<stop  offset="1" style="stop-color:#2B5711"/>
			</linearGradient>
			<path class="st1" d="M169.8,41c-4.6,0.8-8.9,2.4-12.9,4.8c-4.9,2.9-9.3,6.5-13.2,10.7c-1.1,1.3-2.7,2.1-4.5,1.9
				c-1.7-0.1-3.2-1.3-3.8-2.9c-0.7-1.6-0.4-3.4,0.7-4.7c3.8-5.1,8.3-9.6,13.3-13.5c8.8-6.6,18.6-10.5,29.7-10.4
				c3.8,0,7.6,0.6,11.2,1.8c3.5,1.2,6.6,3.4,9,6.3c2.9,3.4,3,8.3,0.2,11.8c-1.9,2.4-4.2,4.5-6.8,6.3c-4.2,3.1-8.6,5.8-12.5,9.3
				c-1.9,1.7-3.5,3.7-4.8,5.9c-0.3,0.5-0.3,0.8,0.4,0.9c3.9,1.1,7.6,2.7,11.2,4.7c5.2,3,9.8,7,13.4,11.9c4.1,5.3,6.6,11.3,8.5,17.7
				c0.9,2.9,1.5,5.8,2.1,8.8c0.7,3-1.2,5.9-4.1,6.6c-2.9,0.7-5.7-1-6.5-3.8c-2.2-6.3-5.4-12.2-9.4-17.6c-3.8-4.8-9.1-8.4-15-10.1
				C172,86.2,168,85.4,164,85c-1.8-0.1-3.6-0.7-5.2-1.6c-2.7-1.6-4.5-4.3-5-7.4c-0.5-3.8-0.1-7.6,1.4-11.2c1.9-5.1,4.4-10,7.6-14.5
				C164.9,47.1,167.2,44,169.8,41z M176.2,37.9c-0.3,0.4-0.6,0.6-0.8,0.9c-2.8,2.9-5.4,5.9-7.8,9.1c-3.9,5.1-7.1,10.8-9.6,16.7
				c-1.3,2.9-2,6-2,9.2c0.1,4.7,2.9,7.9,7.5,8.6c3.3,0.5,6.6,0.8,9.9,1.6c7.9,2,14.7,5.7,19.7,12.2c4.1,5.5,7.3,11.6,9.6,18
				c0.5,1.5,2,2.4,3.5,2c1.5-0.4,2.4-1.9,2.1-3.4c-0.3-1.6-0.6-3.1-1-4.7c-1-4.4-2.5-8.8-4.4-12.9c-1.9-4-4.3-7.6-7.3-10.9
				c-2.9-3.3-6.3-6-10.1-8.2c-4.1-2.3-8.5-4-13-5.2c-0.7-0.2-0.7-0.4-0.5-1c1.1-3.4,3-6.4,5.7-8.8c3.2-2.9,6.7-5.6,10.3-8
				c3.1-2,6-4.4,8.6-7c2.8-2.7,2.9-7.2,0.2-10c-2-2.3-4.5-4-7.4-5c-4.9-1.6-10.1-2.1-15.2-1.5c-9.4,1-17.6,5-24.9,10.8
				c-3.1,2.5-5.8,5.2-8.4,8.2c-1.2,1.3-2.3,2.7-3.3,4.2c-0.5,1-0.1,2.3,1,2.8c0.4,0.2,0.9,0.3,1.3,0.2c0.6-0.1,1.1-0.5,1.5-0.9
				c2.4-2.5,5-4.8,7.7-7c3.4-2.7,7.2-5,11.2-6.8C165.4,38.9,170.8,37.8,176.2,37.9L176.2,37.9z"/>
			
				<linearGradient id="SVGID_3_" gradientUnits="userSpaceOnUse" x1="105.5924" y1="36.8672" x2="159.41" y2="36.8672" gradientTransform="matrix(1 0 0 -1 0 122)">
				<stop  offset="0" style="stop-color:#64C702"/>
				<stop  offset="1" style="stop-color:#2B5711"/>
			</linearGradient>
			<path class="st2" d="M159.4,86.4c-1.9,1.8-4,3.4-6.2,4.9c-5.4,3.6-11.6,6.1-18,7.2c-7.8,1.4-15.8,1.1-23.6-0.8
				c-0.6-0.1-1.2-0.3-1.8-0.4c-2.9-0.6-4.7-3.4-4.1-6.3c0.6-2.7,3.1-4.5,5.9-4.2c3.9,0.5,7.9,0.6,11.9,0.3c6.1-0.4,11.9-2.4,17-5.7
				c3.7-2.4,6.9-5.5,9.4-9.1c0.4-0.5,0.8-1,1.2-1.5h0.3c0,1.1,0,2.2,0,3.3c-0.1,4,1.8,7.9,5.1,10.3
				C157.4,85.3,158.4,85.7,159.4,86.4z M149.2,77.5c-1.5,1.4-2.8,2.7-4.2,3.9c-3.3,2.7-7.1,4.8-11.2,6.2c-5.3,1.7-11,2.5-16.6,2.2
				c-2.1,0-4.1-0.4-6.2-0.4c-1.4-0.1-2.6,0.9-2.8,2.3c-0.2,1.4,0.8,2.8,2.2,3.1c2.2,0.5,4.4,0.9,6.6,1.3c7.9,1.3,16,0.8,23.6-1.6
				c3.7-1.2,7.3-2.9,10.5-5.1c1.4-0.8,2.7-1.7,3.9-2.8C152,84.5,149.9,81.2,149.2,77.5z"/>
			
				<linearGradient id="SVGID_4_" gradientUnits="userSpaceOnUse" x1="197.5638" y1="73.7791" x2="240.2838" y2="73.7791" gradientTransform="matrix(1 0 0 -1 0 122)">
				<stop  offset="0" style="stop-color:#64C702"/>
				<stop  offset="1" style="stop-color:#2B5711"/>
			</linearGradient>
			<path class="st3" d="M203.8,38.7c1.3,1.1,2.4,2,3.4,2.9c3.6,3.4,8,4.4,12.7,4.6c4.4-0.1,8.7-0.8,12.8-2.2
				c1.3-0.5,2.7-0.7,4.1-0.5c2.4,0.7,3.9,3.2,3.2,5.6c-0.3,1.2-1.1,2.2-2.2,2.8c-2.5,1.3-5.1,2.3-7.7,3.2c-3,1.1-6.1,1.8-9.2,2.2
				c-5.4,0.7-10.9,0.2-16-1.6c-2.4-0.9-4.7-2-6.9-3.2c-0.7-0.3-0.6-0.5-0.1-1c1.1-1,2.1-2,3.1-3.2c1.7-2,2.7-4.5,2.8-7.2
				C203.8,40.5,203.8,39.7,203.8,38.7z M217.4,55.2c4.5,0,14.4-2.6,19.2-5.5c0.9-0.5,1.2-1.5,0.9-2.5c-0.3-0.9-1.1-1.5-2.1-1.3
				c-0.4,0.1-0.9,0.1-1.3,0.3c-3.5,1.2-7.2,1.9-10.9,2.3c-6,0.4-11.8-0.1-16.7-4.2c-0.4-0.3-0.5-0.2-0.7,0.2c-0.7,2.4-2,4.6-3.7,6.4
				c-0.5,0.5-0.5,0.7,0.2,1C207.1,54.3,212.2,55.4,217.4,55.2z"/>
			
				<linearGradient id="SVGID_5_" gradientUnits="userSpaceOnUse" x1="220.7201" y1="19.18" x2="248.5201" y2="19.18" gradientTransform="matrix(1 0 0 -1 0 122)">
				<stop  offset="0" style="stop-color:#64C702"/>
				<stop  offset="1" style="stop-color:#2B5711"/>
			</linearGradient>
			<path class="st4" d="M248.5,102.8c0,7.7-6.2,13.9-13.9,13.9s-13.9-6.2-13.9-13.9c0-7.7,6.2-13.9,13.9-13.9c0,0,0,0,0.1,0
				C242.3,89,248.5,95.1,248.5,102.8z M234.6,113.9c6.1,0,11.1-4.9,11.1-11.1c0-6.1-4.9-11.1-11.1-11.1c-6.1,0-11,4.9-11.1,11
				C223.5,108.9,228.4,113.9,234.6,113.9C234.6,113.9,234.6,113.9,234.6,113.9z"/>
			
				<linearGradient id="SVGID_6_" gradientUnits="userSpaceOnUse" x1="191.1298" y1="105.03" x2="218.3902" y2="105.03" gradientTransform="matrix(1 0 0 -1 0 122)">
				<stop  offset="0" style="stop-color:#64C702"/>
				<stop  offset="1" style="stop-color:#2B5711"/>
			</linearGradient>
			<path class="st5" d="M218.4,17c0,7.5-6.2,13.6-13.7,13.5c-7.5,0-13.6-6.2-13.6-13.7s6.2-13.6,13.7-13.5
				C212.4,3.4,218.4,9.5,218.4,17z M204.8,5.9c-6.1,0-11.1,4.9-11.1,11c0.1,6.1,5,11.1,11.2,11.1c6.1,0.2,11.2-4.6,11.4-10.7
				s-4.6-11.2-10.7-11.4C205.2,5.9,205,5.9,204.8,5.9L204.8,5.9z"/>
		</g>
	</g>
</g>
</svg>
