<svg xmlns="http://www.w3.org/2000/svg" viewBox="0 0 702.63 1016.18"><defs><style>.cls-1,.cls-6{fill:#e6e6e6;}.cls-2,.cls-5{fill:#fff;}.cls-3{fill:#fcf9d2;}.cls-4{fill:#ffe89b;}.cls-5,.cls-6{fill-rule:evenodd;}</style></defs><title>robot</title><g id="Layer_2" data-name="Layer 2"><g id="body"><g id="robot"><path class="cls-1" d="M151.08,259.33l-10.45-13L131,251.67c4.12,7.61,7.83,15.25,12.24,22.46,9.16,15,10.76,31.54,10.48,48.39-.21,12.88-14.31,20-25.73,13.45-11.63-6.7-16.51-18.27-20.15-30.14-4.18-13.64-7.2-27.63-10.69-41.31-9.32.28-11.31,5.28-9.71,12.66,2.11,9.76,5.17,19.4,6.35,29.26a149,149,0,0,1,.69,31.73c-.69,7.13-5.43,12.82-14,13.42-8.25.59-16.63-.32-19-9.22-4.71-17.63-8.09-35.62-11.73-53.52-.7-3.46-.1-7.19-.1-10.79-8.45,0-13.43,8.61-12,18.41,1.2,8.25,3.34,16.64,2.71,24.79-.47,6.13-3.33,13.25-7.5,17.68-8.48,9-23.75,3.7-25.55-8.46-3.11-21.05-7.61-42.12-1-63.45,1-3.15.06-7.25-1-10.62C-4.6,223-1.81,192.22,23.44,165.85a10.62,10.62,0,0,0,2.93-5c2-11.74,10-18.25,19.56-23.93,3-1.77,4.25-6.3,7.17-8.32,7.11-4.94,14.22-11.37,22.25-13.18,14-3.16,28.59-3,41.55,5.75,1.42,1,4.43.47,6.32-.29q22.62-9.08,45-18.62a11.42,11.42,0,0,0,4.26-4c15.49-21.67,37.13-33.86,62.1-41.61C255,50.36,275,44.22,297.24,53.37c1.05-24.64,16.51-37,35.08-45.07,15.31-6.65,31.89-13.79,48.52-2L376.6,7.75c1.27,1.32,2.31,3.28,3.85,3.83C387,13.93,392.37,16.55,393,25c.21,2.85,4.14,5.89,7,8,4.6,3.41,9.71,6.11,16,10-1.87-3.86-2.58-7.4-4.72-9.41-10-9.4-20.47-18.38-30.76-27.51,24.32,5.07,40.09,23.89,39,48.18-.73,15.65-3.63,31.19-4.59,46.84-.22,3.65,2.53,9.69,5.49,11,26.36,11.31,49.82,26.53,69.9,47.15C501.76,171,514.15,182,526.15,193.36c-3.18-1.73-6.92-2.87-9.45-5.28-9.51-9.09-20.17-9.46-32.53-7.29-20.68,3.63-36.51,15.51-50.26,29.48-13.08,13.31-32,25.55-25.41,48.72,2.21,7.78,9.84,14.11,15.45,20.71.51.61,5.44-1,6.48-2.66,3.47-5.62,7.05-11.48,8.89-17.74,8.59-29.22,33.89-49.52,64.17-49.87,9.11-.1,18.24,1.81,29.24,3L527,194.11c2.89,4.17,8,8.27,8.17,12.53.22,7.41,3.3,10.7,8.83,14.92a139.44,139.44,0,0,1,25.12,24.26c14.64,18.67,28.74,37.84,41.82,57.63,10.41,15.74,18.38,33.08,28.67,48.91a28.74,28.74,0,0,0,16.17,11.23c13.59,3.12,24.19,8.62,30.41,21.8,2.31,4.91,6.63,8.95,10.33,13.11,6.35,7.15,8.67,13.39,2.35,22.91-8.28,12.46-12.91,27.33-21.08,39.88-16.06,24.68-33.48,48.48-50.34,72.64-.77,1.1-2.36,2.2-2.29,3.21,1.34,18.92-16.75,24.71-24.85,37.2-2.16,3.33-3,7.48-5.13,10.87-2,3.16-4.24,6.69-7.3,8.51-8,4.74-11.12,11.34-12,20.44-1.66,16.73-4.67,33.1-19.5,44.51-2.26,1.74-1.9,7.28-2.17,11.11-.53,7.31.11,14.78-1.16,21.94-1.12,6.36-4.39,12.19-12.56,11.87s-9.93-6.24-10.26-12.46c-.51-9.48-.13-19-2.54-28.82-1.85,11.16-3.64,22.32-5.56,33.47-.56,3.26-.38,7.85-2.41,9.4-4.62,3.56-10.44,7.59-15.7,7.5-2.93,0-8.16-8-8.11-12.34.13-10.67,2.72-21.3,4.3-31.91-.63,7-1.25,14.06-2,22.82,9-10.21,14.64-2.62,21.67,2.83.57-8.35,1-15.25,1.61-23.66-12,8.54-12.88,8.39-21.32-1.89L499.73,656l-.91-.76c.91-4.58,2.58-9.18,2.37-13.7-.09-2.09-3.86-4-6-6-2.64-4.76-5.56-4.77-9.09-.79-3,3.41-6.31,6.57-9.49,9.84q.53-3.23,1-6.46l-2.75-1.89c-6.75,7.91-13,16.32-20.41,23.55-5.4,5.28-11.78,11.17-18.7,12.9-9.23,2.33-13.93-5.67-9.4-14.47,4-7.71,8.85-15,13.14-22.5,1.77-3.12,3-6.51,5-10.81-3.41.34-5.93,1.37-7.64.61-5.08-2.26-11.89-4.17-14-8.28-1.44-2.8,2.88-10,6.33-13.6,6.65-6.89,14.52-12.6,21.88-18.8-5.53,5.91-10.82,12.07-16.67,17.64-4.66,4.44-9.3,8.45-6.88,15.68l24-11.76c1.39-4.35,2.28-8.85,4.24-12.83,2.93-6,.32-7.83-5.07-8.39,10.06-3.92,20.15-7.81,30.19-11.79,5.65-2.23,11.53-4.1,16.78-7.06s9.4-7.71,14.68-10.43c6.55-3.38,10.08-8.1,11.41-15.21.5-2.74,2.31-7.17,4-7.43,9.23-1.38,9.23-8.87,11.83-15.14,2.24-5.38,6-10.13,9.06-15.16l2.34,1.1c0-15.32-.66-30.69.23-46,.6-10.42,6.17-18.22,16.65-22.47,8.45-3.42,16.26-8.38,24.36-12.66-.09-1.37-.17-2.73-.25-4.1a82.09,82.09,0,0,0-8.75-1.3c-6-.26-12.64,1.31-18.08-.56-15.7-5.43-27.49-16.27-35.75-30.65-2.41-4.18-3.67-9-5.72-14.24-3.71,3.83-8.54,7.55-11.72,12.36-4.63,7-8,14.88-12.07,22.25a114.89,114.89,0,0,1-8.47,13.46c-6.58,8.69-13.52,17.1-20.19,25.46,11.1,21.82,11.11,21.9,2.14,28.8,2.94-7.51,4.86-14.87-4.35-22.55,2.69,14.48-8.62,16.16-15.79,21.27a28.16,28.16,0,0,1-9.08,4.11c-5,1.33-10.81,3.91-15.24,2.56-9.44-2.89-18.48-7.48-27.19-12.27-9.36-5.14-17.85-11.87-27.31-16.78-4.79-2.48-10.87-2.45-16.37-3.56-1.14-2.2-1.91-6-3.47-6.34-12.85-2.95-16.94-13-20.07-23.79-2.48-8.56-4.42-17.29-7-25.83-.28-.94-3.06-1.13-4.67-1.68l9-7.16c-9.4-8.66-19.44-15.92-26.85-25.27-8.31-10.49-16.49-20.49-28.69-26.49l26.72,9.41c-2.17-7.35-2.42-14-5.68-18.29a193.25,193.25,0,0,1-38.15-95.66c-.52-4.43-2.6-8.68-4-13-2.83,2.83-3,5.11-3.65,7.24-6.85,22.5,6.34,42.16,9.53,63.2,2.3,15.21,9.7,29.65,14.83,44.43-15.33-24.58-25.25-51.4-31-79.6-1.45-7.06,1.12-15,2.3-22.52,1.25-8,1-13.76-7.38-19.16a39.84,39.84,0,0,1-18.82-33.42c-.07-2.45-3.84-4.79-6.07-7.38l-7.86,16.5L219.76,195c-6.09-3.74-12.07-7.71-18.34-11.14-2.85-1.56-6.47-1.7-9.35-3.23-1.43-.76-2-3.2-2.92-4.88-1.3,1.37-3.64,2.71-3.68,4.11-.05,2.27,1.16,4.7,2.26,6.84,2.46,4.82,5.18,9.51,7.8,14.25l28.82,14.35c4.93-7.65,4.93-7.65-4.93-20.66,8.72,3.63,12.51,9.92,9.37,19.11-3.36,9.83-12.27,16-21.34,13.91-6.52-1.52-14-3.82-18.45-8.31-6.8-6.81-13.66-8.24-22.55-6.2,8.62,11.41,17.54,22.4,25.49,34.06,4.85,7.1,8.37,15.14,12.17,22.92,4.41,9.05,2.68,24.43-2.86,28.15-7.91,5.31-22.05,4.21-29.18-4.81-8.31-10.53-14.32-22.87-21.32-34.41l16.32,23.13c3.69-14.93,11-23.72,27.35-21.28l-12.23-25.32c.31,14.42-12.76,13.64-20,21.34l-6-10.35-3.08,1.19Q152.12,253.54,151.08,259.33Zm-6.81-137.44c1.94,2.25,3.47,5.73,5.88,6.52,7.21,2.38,21.69-5.21,23.94-12.38.77-2.43.39-6.34-1.15-8.07s-5.38-2.11-7.73-1.43a67.22,67.22,0,0,0-16.5,6.78c-2.35,1.44-3,5.65-4.43,8.6-10.72-6.33-17.81,3.27-26.87,4.26l.86,3.43ZM621,366.66l8.79,11,15.64-13.93-8.74-8.23-16,11.22c4.93-5.72,13.47-11.28,13.75-17.22.27-5.75-8-11.91-12.47-17.87-.19-.24-.58-.32-1.06-.57q-8.26,11.49-16.58,23.05l-13.58,8.9c8.38,3.74,15.19,2.53,20.88-3.68C614.72,361.83,617.81,364.28,621,366.66ZM452.43,449.72,420.8,472.8c12.36,6.33,25.18,4.38,39-7.36,6-5.12,6.29-11.59,4.43-18.54l-12,3a18.34,18.34,0,0,1,2.23-2.89c12.55-10.86,25.49-21.31,37.52-32.72,3.89-3.69,5.41-9.87,8-14.91l-2.2-1.39c-5.35,3.9-10.43,8.27-16.11,11.61-9.93,5.83-22.63,8.17-25.61,22.16-.33,1.58-3.36,2.42-4.22,4.07C449.4,440.42,445.92,445.39,452.43,449.72ZM263.19,169.66c4-3,8.7-5.47,11.79-9.24,4.53-5.52,7.85-12,11.77-18,1.41-2.17,4.13-4.06,4.4-6.3,1.15-9.62,1.61-19.32,2.31-28.79-12.11,5.17-22.11,15.42-29.48,28.29-1.56,2.74-.51,6.85-1.4,10.13-.71,2.63-2.37,5.06-3.93,7.37-1.11,1.64-4.19,3.82-3.93,4.23,2.62,4.21,5.74,8.11,8.72,12.1-.43,6-.68,11.92-1.31,17.85-1.6,15.09.39,28.94,10.77,41.11,6,7,10.31,15.41,15.78,22.89,1.35,1.84,4.24,2.55,6.42,3.79-.07,12.73-1.88,25.77.24,38.14,2.62,15.27,10,29.75,12.48,45,1.59,9.67,6,11,14.05,11.84-1.3-9.24-2.18-17.74-3.74-26.13-2.79-15-6.31-29.92,2.43-44.38,1-1.71.34-4.8-.22-7.09-1.1-4.5-3.36-8.8-3.92-13.33-1.17-9.41-6.61-11.22-14.65-9.54,4.88-9,3.38-16.51-3.89-23.89-7.92-8.05-15.4-16.54-23-24.9-5.54-6.1-6-13-3.25-20.53S271.49,169.34,263.19,169.66Zm319,343.73c-4.24-.87-8.47-1.77-12.72-2.59-25.22-4.88-26.94.57-29.26,21.18,23.35,7.85,39.91,24,51.56,46.81,8.38-9.08,15.53-17,22.85-24.71s8-12.41.38-19.66c-5.42-5.2-12.42-8.79-18.84-12.9-4.67-3-9.55-5.67-14.36-8.5,4.09-1.83,12.24,6.75,12.51-4.88,4.88.4,10.4,2.5,14.52.92,27.56-10.58,52.57-24.87,68.3-51.38,6.76-11.41,1.35-27.36-10.64-32.29-11.66-4.79-22.42-.57-33,2.77-15.52,4.87-30.66,10.94-46,16.5l43.24-21.34a16.36,16.36,0,0,0-3.73-.73c-22.49,1.14-42.69,10-62.73,19.13-2.82,1.28-5.87,5.38-6.14,8.42-1.38,15.6-2.13,31.28-2.6,46.94-.18,6.09,3.23,8.88,9.84,9.74C571.18,507.57,576.61,511.09,582.2,513.39Zm-5.84-157c-9.27-2.73-18.25-5.07-26.52,3.08-6.23,6.14-13.25,11.47-20.8,17.9,9.67,18.16,24.61,31.05,44.15,38.8a7.78,7.78,0,0,0,5.82-.35c10.23-5.45,19-12.43,23-23.91,2.2-6.26,1.48-11.62-3.78-16.16-7.51-6.47-14.85-13.13-22.29-19.72,8,5.21,15.45,3.32,21.31-3.16,7.52-8.3,14.33-17.26,21.1-26.2,1.12-1.48,1.49-5.05.49-6.37-10.81-14.35-22-28.45-33.46-43.17.84,16.36,2.16,30.93,2.1,45.49,0,6.3-2.91,12.59-4.5,18.88q-1.49-29.91-3-59.8c-1-19.85-13.44-34.18-25.71-47.47-12.58-13.61-28.38-23.15-48.81-19.5-7.74,1.38-17.25-.88-23.21,2.87-11.86,7.47-24.9,16.11-31.83,27.64-9.44,15.73-10.61,35.08-5.81,53.48,5.23,20.09,19.84,32.93,36.69,43.31,5.2,3.21,11.55,6.41,17.37,6.41,19.52,0,39-1.45,58.57-2.31,4.31-.19,8.62-.23,12.94-.33l-5.1,3.37ZM479.62,631.24c6,5.2,5.36-2.53,7.58-4.21,3.71-2.82,5.56-9.1,12.13-5.38,5.54,3.13,10.05,6.42,7,14.18-1.62,4.19-1.71,9-2.74,14.94l4.58-3.06Q505,657.33,501.7,667l23.82,3.42c-1.39-8.75-2.18-16.43-4.38-23.68-.24-.79-8.57.86-13.16,1.38.25-1,.49-1.91.73-2.87,1.46-5.8,3.79-11.31,10.93-10.52s9.44,6.07,8.86,12.93c-.31,3.65,0,7.34,0,11l1.42,0q1.89-4.71,3.79-9.4v22.63h17.66c-.56-6-.85-12-1.82-17.79-.27-1.61-2.53-2.88-3.87-4.31-.94,1.46-2.27,2.81-2.7,4.41-.47,1.76-.1,3.75-.1,5.63h-.45c-.2-3.2-.41-6.41-.65-10.21h-8.41c-1.41-5.19.64-7.93,5.72-9.69,11.12-3.86,12.74,5.48,16.85,13.16,3.36-3.14,7.14-5,8.26-8,14.24-37.17,15.05-56.61-20.44-83-11.65-8.66-23.8-8.42-35,.7-12.12,9.88-23.57,20.64-34.74,31.6-3.64,3.57-5.48,9-8.15,13.57,7.76-5.46,14.2-5.87,20.79.25,6.94,6.45-.55,10.66-2.56,15.67a32.17,32.17,0,0,1-3.18,5.06c.71-5.81,1.11-12-5.87-14-9.63-2.83-15.84,3.69-21.7,8.78,5.58,4.51,11,8.91,17.28,14ZM370.42,368.16c14.27,3.4,28.71,6.21,42.72,10.46,6.68,2,10.26.29,12.75-5.18,5.37-11.8,10.44-23.74,15.56-35.65.48-1.12,1.05-2.76.59-3.64-7.63-14.65-10.1-31.83-22.83-44.1-6-5.84-10.92-5.61-17.54-2-24,12.93-48.23,25.35-72,38.56-3.11,1.73-6,6.93-6,10.55-.08,11.24,7.83,18.25,21.83,22.29,8.58,2.48,16.87,5.95,25.29,9-24.5-4.75-47.76-13.32-71.52-22.2l20.63,22.3,1.65-1.11c-.68-2.91-1.36-5.83-2.34-10,5.61,1.26,10.21,1.87,14.53,3.34,26.49,9,52.66,19,79.46,26.88,12.19,3.59,24.11,6.63,34.41,14.38,18.08,13.61,18.14,13.54,37.22.66,1.11-.75,2.64-1.27,3.22-2.32,1.95-3.48,4.52-7,5.07-10.77.85-5.82.22-11.85.22-18.29-12.31.78-21.73-3.32-29.7-11.37-5.48-5.53-11.38-10.64-18.07-16.84-6.9,13.56-12.59,24.77-18.29,36l6.53,5.87C409.48,384.92,389.39,378.72,370.42,368.16ZM117.15,227l14.17,18.43,7.31-3.5c-2.57-5.66-5-10.76-7.22-15.93-2.36-5.43-4.59-10.93-6.81-16.22,16.42-15.49,22.48-15.61,35.85-1.23-1.93-10.61-4.68-21-7.52-31.4-3-10.81-9.73-18-20.47-21.44-10.11-3.26-20.19-6.65-30.36-10.06l37.05,6.88c-3.69-9-23.39-14.7-38.86-9.92l2.15,3.29-34.56,2.15,26.74-5.64c-3.32-8.36-9.49-12.48-17.94-11.1s-17.12,3.36-25,6.78c-8.84,3.86-17,9.46-20.52,21.16l9.87-2.51c-7.82,8.26-16.36,16-23.33,24.9-15.81,20.23-15,43.47-10.26,67.06.46,2.3,2.13,4.36,4,8,1.5-24.43-4.36-22.09,23.2-24.13,3.74,13.08,7.53,26.31,11.89,41.51l5-7.78,1.83.62v16.23l32.67-6.94L75,238C68.4,248.19,60.52,248.12,52,245l-1.12,13.17a70.07,70.07,0,0,1-6.59-23.06c-.24-2.47,2.91-6.95,5.35-7.68,5.65-1.69,11.85-1.47,17.77-2.37s9.25,1.34,11.1,7.17c3.1,9.76,6.82,19.31,10.28,29l2.67.39c.6-2.37,2.15-5,1.65-7.06-1.94-8.1-4.69-16-6.76-24.08-.6-2.38-.73-6.9.28-7.34,7-3,14.18-6.61,21.5-7,2.89-.17,6.23,7.28,9.36,11.27L112,224.85c-3.79,9.76-11.6,10.1-22.45,6.88,4.34,14.61,8.12,27.3,11.8,39.67,9.38-3.56,16.46-5.57,22.76-9,2.35-1.28,4.73-6.47,3.95-8.85C125.13,244.49,120.9,235.83,117.15,227ZM400.29,83.42c-12.78,3.08-23.18,3.39-31,8-9.57,5.68-20,5.09-26,.26-6.11-5-12.73-7.12-19-10.71-8.07-4.6-11.71-1.25-13.81,6.31-4.46,16-11.59,31.63-8.13,49,.56,2.8.45,6.92,2.21,8.08,10.19,6.7,15.89,15.5,14.2,28.7l55.09,5.1c3.29-11.68,7.59-21.56,21.29-23.69,2.52-.39,5.85-6.58,5.9-10.14C401.31,124.8,400.66,105.26,400.29,83.42Zm-167.39-21c-21,8.11-40.72,16.15-53.84,34.73-3.42,4.85-5.6,8.5,1.43,11.49,9.39,4,19.12,7.29,28.15,12,27.85,14.44,43.66,11.76,69-5.88,14.67-10.2,19.74-20.61,19.47-38.26-.28-19.18-7.28-24.46-25.46-22.59,2.79,9.7-2,15.09-16.17,18.12C240.51,75.25,234.65,72.91,232.9,62.46Zm-60.41,110c8.12.7,16.22,1.5,24.35,2.06,5.59.39,13.41,1.36,11.8-7.1-2.16-11.28-6.58-22.2-10.91-32.92-.88-2.2-6.06-4.57-8.49-3.94-16.63,4.37-33.05,9.51-52.56,15.3l12.43,5.27-6.67,5.31c4.93,3.52,8.58,7,12.93,9,8.12,3.74,11,9.08,9.75,18.13-1.12,8.22-.23,16.7-.23,25h12.49c1-6.72,1.1-13.22,3-19.14C183.12,180.91,182.23,175.27,172.49,172.43Zm248.87,43.42c9.3-7.77,17.62-15.49,26.71-22.14,12.68-9.26,15.11-16.8,11.33-33.28-5-21.73-18.44-34.75-39.71-42.27L428,150.92C417.85,155.27,411.6,200.15,421.36,215.85Zm-116-67.19c-7.19,19.07,1.53,34.32,9.2,49.6,3.41,6.78,11.49,6.31,16.87.44a13,13,0,0,1,7.31-4c11.91-1.45,15.15,1,19.88,13.74,18.72,2.33,41.35-28.2,36.84-51.61-2,4.76-4,8.24-4.87,12-2,8.76-8.25,12.34-16.11,12q-26.54-1.17-53-4c-10-1.06-14.54-7.76-14.38-17.75C307.14,155.61,306,152.13,305.33,148.66Zm18.11,121.81c6.34-1.14,11.22-2.88,16-2.7,9.32.35,18.7,3.12,27.87,2.42,11.43-.88,22.83-3.68,33.83-7,2.19-.67,2.49-7.54,3.66-11.55-3.09-.66-6.28-2.15-9.26-1.8-5.56.65-11.16,3.89-16.46,3.33a343.52,343.52,0,0,1-38.94-6.78c-7.48-1.68-14.68-1.9-19,4.48-2,3-.27,8.75.25,13.2C321.69,266.58,323,269,323.44,270.47ZM150.68,304.14q-8.82-21.15-17.63-42.32l-3.92,1.34c.62,3.62,1.25,7.23,2,11.55-4.58,2.22-9,5.86-13.54,6.1-4.11.22-8.42-3.3-14.3-5.91,4.4,14.84,8.55,28.82,13.11,44.22C134.11,296.33,135.44,295.81,150.68,304.14ZM54.75,286.38l-2.44,2.3c2.28,8.67,4.36,17.4,7,25.95.49,1.54,3.93,3.69,5.13,3.24,10-3.81,18.36-.86,26.09,5.58.22.19,1.12-.43,4.15-1.69-3-10.71-5.84-21.8-9.32-32.7-1.1-3.45-3.89-6.36-5.91-9.51q-1.33,5.28-2.66,10.56c-.16.64-.39,1.25-.69,2.19C68.46,293.54,59.43,302.56,54.75,286.38Zm99-79.28c-6.75,2.54-12.73,4.37-18.28,7.1-1.82.89-4.07,4.83-3.47,6.11,4.75,10.05,10.15,19.78,15,29l27.84-20ZM37.06,281.36c8-10.34,1-21.49-1.21-31.75h-18L6.22,281.36ZM497.6,173.16c-8.33-13-21-19-34.41-22.16v32.39ZM35.48,318.61l2.64-2.11Q35,299.65,31.81,282.81l-4.2-.05-6.12,13.38L6.6,294.38,8.92,310.9l1.71-2.53ZM684.53,435c18.88-25.13,19-26.27,4.36-38.51l-12.61,20.26,2,1.68,9.76-9,1.67,1.78-11.27,11.95ZM448.93,660.27c4.1-5.36,7.91-9.93,11.22-14.84a23.16,23.16,0,0,0,3-7.93c.25-1.17-1-2.65-1.5-4l-8.82,3.7-7.08-5.58C435.61,645.18,435.63,645.37,448.93,660.27Zm46.81-269.62c15.84-9,21.11-15.4,22.18-28.14l-22.18,8.72ZM115.13,128.12l-12.44-3.64L92.21,136.65h22.92ZM533.58,675.6c-2.15,15.3,1.87,19,16.88,14.29.34-4.65.7-9.48.95-12.92-3.43,1.65-6.74,4.43-10,4.44C538.88,681.41,536.39,677.84,533.58,675.6Zm-70.75-69.8,10.5-24C458.14,581.89,455.46,588.49,462.83,605.8Zm14.11-455.21-27-20.28C452.8,146.76,464.41,149.44,476.94,150.59Zm-197.63,9.47,2.14,1.86c4.86-3.64,10-7,14.43-11.07,1.33-1.21.9-4.38,1.27-6.65-2.22.22-5.4-.43-6.48.79C286.52,149.69,283,155,279.31,160.06Zm124.64-10c9.65-8.28,6.82-16,5.83-23.49l-3.2-.41C405.79,133.4,405,140.62,404,150.08ZM388.78,80.29l1.91,2.43c9.36-2.32,8.44-12,10.7-19.51Z"/><path class="cls-1" d="M465.64,478.65c0,2,.32,5.57,0,5.62-10.84,1.79-7.43,10.66-9.11,17.26-6.32,24.83-14.51,48.75-27.09,71.51-10.41,18.82-17.78,39.55-24.51,60.08-5.39,16.47-9.59,21.33-28.88,26-4.08,1-8.07,2.32-10.39,3,0,8.27,1.24,15.15-.25,21.38-3.42,14.29-12,25.07-25.51,31.71-2.26,1.1-3.89,4-5.28,6.33-5.7,9.7-10.21,20.27-17,29.13-14,18.25-47,16.29-61.74,5.63-17.78-12.85-22.72-40.61-11.13-59.4.29-.48.17-1.22.34-2.64-8.95,8-16.49,15.15-22.5,26-9.51,17.18-24.59,31.32-37.59,46.51-11.24,13.13-22.86,25.92-34,40.26,10.77.06,17.53,3.39,19.57,13.93,2.93,15.17-.56,27.79-12.87,37.55a27.51,27.51,0,0,1-3.44,2.07c-4.25,2.45-11.23,4.09-12.21,7.48-2.23,7.7-1,16.33-2.11,24.44-2.39,17.27,10.64,28.78,15.48,43.31a6.91,6.91,0,0,0,2.55,3c20.66,14.84,21.18,36.62,19.26,58.63-.35,4-5.85,9.75-10,10.87-13.76,3.73-28,7.81-42,7.89-23,.13-45.92-2.83-68.89-4.39-10.51-.72-16.21-7.21-19.26-16.34A50.79,50.79,0,0,1,34,979.79c0-17.76-5.68-34-11.1-50.61-7.31-22.46,4.14-52,22.59-66.58,3.66-2.9,5.61-8,8.21-12.16,1.94-3.1,3.37-6.55,5.53-9.48,4.32-5.88,11.31-10.19,9.91-19.2-.2-1.34,1.86-3.93,3.4-4.5,13.62-5,13-17.31,14.52-28.26a51.23,51.23,0,0,0-.26-16c-5.32-29,6.74-52.76,21.74-75.86,4.6-7.08,6.73-17.17,13-21.49,16.38-11.26,34.09-20.78,52-29.63,10.54-5.23,11.7-10,2.5-18.9-10.29-10-20.6-20-29.8-31-9.6-11.4-11.36-25-8.24-39.66.61-2.88-2.06-6.91-4.07-9.81-5.45-7.89-12.6-14.85-16.8-23.31-6.25-12.58-1.7-25.36,11.27-30.49,15.45-6.1,32-9.4,47.61-15.12,10.88-4,21-10.07,31.49-15.1,16.18-7.75,32.42-15.39,48.63-23.08l26.81-.18c-11.61,10.8-22.58,22.45-35,32.17-11.47,8.95-24.55,15.85-37.46,24,12.91,13.17,20.23,28.78,23.7,45.94s12.1,30.52,24.76,42.2c9.32,8.59,22.22,15.64,17.68,34,2.89-2.58,4.41-3.42,5.16-4.71,6.94-12,13.76-24,20.61-36.07-.93,8.33-.82,16.56-6.54,24-3.79,5-7.48,12.46-6.59,18.1,3.73,23.66,28.3,38.13,53.63,32.34,14.67-3.36,27.08-10,33.3-25.37a193.43,193.43,0,0,1,14.75-28.38c8.73-14.18,20.37-26.39,19.92-45.24-.41-16.84,2.33-33.74,3.44-47.59-21.45-8.46-40.59-16.11-59.83-23.5-2.84-1.08-6.16-.91-9.25-1.32-2.42-3.3-4.56-6.86-7.3-9.87-16.58-18.18-30.41-37.62-29.91-64.51-7.95,3.43-13.41,7.56-14.07,16-2.5-7.22-5.27-1-5.85.48-3.7,9.4-11.73,11-20.2,12.52-3.81.7-7.37,2.72-11,4.13,14-18.38,30.73-33.63,51.56-44,4.13-2.06,8.4-3.82,12.61-5.73-6.78,7.54-6.6,16.42-1.57,23.83,10,14.76,21.22,28.72,32.34,42.69,1.45,1.82,5.29,1.72,8,2.51,3.43,4.43,6,10.33,10.44,13.05,29.27,17.78,60.83,18.6,93.21,10.81C464.35,481.58,464.91,479.74,465.64,478.65ZM277.36,715.74c6.68,1.85,13.32,3.9,20.06,5.5,13.15,3.12,25.53-1.82,29.67-11.26-10.78,1.79-22.22,6.33-32.67,4.67s-20-9.5-29.85-14.55c0,.51-.18,2.46-.33,4.4-17.34,2-26.43,18.17-18.68,33.12,8.66,16.71,23.25,23.93,44.35,21.78l12.84-32ZM133.55,824.91c16.83-21.25,31.41-42.12,48.56-60.61,15.3-16.48,31.87-31.49,38.25-54.41-2,.45-4.45,1.06-7,1.57-10.49,2.15-19.34-.55-25.39-9.65-6.25-9.39-7.48-21.53-16.29-29.72-1.4-1.3-.84-5.11-.6-7.7.41-4.56,1.28-9.07,2-13.79-26.38,8.16-30.59,11.2-32.8,36.21-1.95,22-5.84,42.49-20.8,59.68-3,3.46-4,9.1-7.48,11.68-16.81,12.52-20.38,31-25.8,51,5.47-1.63,8.86-3.26,12.35-3.51,4-.3,9.07-.75,12.08,1.26C119.07,812.5,126.64,819.35,133.55,824.91ZM250.76,639.38l2.79,1c2.13-5.07,7.2-11.12,5.89-15-5.07-15.09-11.48-29.74-24.52-40.46-13.88-11.41-28.31-22.8-30-42.93-.05-.61-1.39-1.12-2.22-1.74a11.27,11.27,0,0,0-2.26,2.18,31.61,31.61,0,0,0-3,6.32c-5.63,19.81-18.87,37.8-12.52,60.52,1.89,6.77-1,14.88-1.72,22.38,9-13.93,22.49-16.23,36.95-15.4C233.38,617,250.3,624.07,250.76,639.38Zm1.84,23c-.47-1.37-.61-6.84-3.13-8.38-12.39-7.53-25-16.36-40.67-11.34-3.77,1.21-7.46,5.68-9.19,9.55-2.82,6.27-3.07,13.75-6.07,19.9a22.71,22.71,0,0,0,13.68,32C227.8,710.23,252.79,688.68,252.6,662.39ZM155.85,970.8c0-4.86.21-9.51,0-14.13-.7-13.14-5-19.11-18.15-20.83-17.75-2.31-35.67-2.48-51.67,3.61l16.32,37.18Zm-20.08-96c-14.6-3.91-28.33-6.39-41-11.44-8-3.2-11.52.84-15,5.28-3.89,5-3.56,9.94,2.21,14.66,11.37,9.33,24,10.92,37.83,8.47C134.64,889.16,135.08,888.61,135.77,874.83Zm1.42,18.67H85.75c-.6,7.49-1.28,16-1.93,24.08L137.19,914ZM333.65,680.06c-23.36-1.63-39.64-14.94-56.11-28.39-3.57,15.48,2.09,28.9,14.72,36.31C304.4,695.09,320.39,692.47,333.65,680.06ZM63.49,940.53c30-5.52,57.74-13.8,87-6.72C140.37,908.89,89.58,912.4,63.49,940.53Zm189-258.64c5.11-2.92,10-5.13,14.11-8.3a13.12,13.12,0,0,0,4.6-7.75,72.43,72.43,0,0,0,.5-16.84,38.09,38.09,0,0,0-3.63-12.73c-.33-.71-6.59-.23-7.78,1.4-3.27,4.52-8.62,11.29-7.21,14.72C257.32,662.64,256.35,671.82,252.51,681.89ZM420.76,502.2l-2.81.47c0,11,2.37,22.61-.57,32.71-4.2,14.49,4.14,20.54,13.52,28.45l5.82-11.18c-13.6-9.3-14.18-10.63-14.57-26.7C422,518,421.24,510.12,420.76,502.2Z"/><path class="cls-2" d="M527,194.11l5.7,18.31c-11-1.18-20.13-3.09-29.24-3-30.28.35-55.58,20.65-64.17,49.87-1.84,6.26-5.42,12.12-8.89,17.74-1,1.69-6,3.27-6.48,2.66-5.61-6.6-13.24-12.93-15.45-20.71-6.58-23.17,12.33-35.41,25.41-48.72,13.75-14,29.58-25.85,50.26-29.48,12.36-2.17,23-1.8,32.53,7.29,2.53,2.41,6.27,3.55,9.45,5.28A5.72,5.72,0,0,1,527,194.11Z"/><path class="cls-2" d="M276.09,328c-5.13-14.78-12.53-29.22-14.83-44.43-3.19-21-16.38-40.7-9.53-63.2.65-2.13.82-4.41,3.65-7.24,1.36,4.33,3.44,8.58,4,13a193.25,193.25,0,0,0,38.15,95.66c3.26,4.33,3.51,10.94,5.68,18.29l-26.72-9.41Z"/><path class="cls-2" d="M465.64,478.65c-.73,1.09-1.29,2.93-2.23,3.15-32.38,7.79-63.94,7-93.21-10.81-4.47-2.72-7-8.62-10.44-13.05q-.79-5.34-1.58-10.68c5.5,1.11,11.58,1.08,16.37,3.56,9.46,4.91,17.95,11.64,27.31,16.78,8.71,4.79,17.75,9.38,27.19,12.27,4.43,1.35,10.21-1.23,15.24-2.56a28.16,28.16,0,0,0,9.08-4.11c7.17-5.11,18.48-6.79,15.79-21.27,9.21,7.68,7.29,15,4.35,22.54Z"/><path class="cls-2" d="M358.18,447.26q.79,5.34,1.58,10.68c-2.74-.79-6.58-.69-8-2.51-11.12-14-22.32-27.93-32.34-42.69-5-7.41-5.21-16.29,1.57-23.83l2,.71c1.61.55,4.39.74,4.67,1.68,2.56,8.54,4.5,17.27,7,25.83,3.13,10.81,7.22,20.84,20.07,23.79C356.27,441.28,357,445.06,358.18,447.26Z"/><path class="cls-1" d="M489.48,673.5c-2.76,7.36-4,16-8.81,21.65-3.37,4-12.05,6.16-17.44,5-6.33-1.4-6.87-8.34-4.81-15,2.52-8.23,3.71-16.85,5.87-25.2.48-1.85,2.61-3.28,4-4.9l-3.72,18.37c4.8,3,9.22,4.42,11.38,7.44,4.36,6.11,6.66,3.27,9.38-.93C486.69,677.74,488.09,675.63,489.48,673.5Z"/><path class="cls-2" d="M489.48,673.5c-1.39,2.13-2.79,4.24-4.17,6.37-2.72,4.2-5,7-9.38.93-2.16-3-6.58-4.42-11.38-7.44L468.27,655l3.11-3.62L473,652.7c-1.54,3.1-3.09,6.19-4.74,9.49l9.1,4.92,8-7.31-.29-.28q2,7.22,4,14.44Z"/><path class="cls-2" d="M256.79,438.67c3.68-1.41,7.24-3.43,11-4.13,8.47-1.55,16.5-3.12,20.2-12.52.58-1.45,3.35-7.7,5.86-.5-1.26,3.3-2.1,6.91-3.93,9.9s-4.66,5.34-7.05,8l-26.81.18C256.32,439.27,256.55,439,256.79,438.67Z"/><path class="cls-2" d="M473,652.7l-1.66-1.33,5.27-6.75c3.18-3.27,6.47-6.43,9.49-9.84,3.53-4,6.45-4,9.09.79L481.1,651.82Z"/><path class="cls-3" d="M489.1,674q-2-7.23-4-14.44c6.14,3.65,10.36,1.09,13.72-4.24l.91.76Q494.42,665,489.1,674Z"/><path class="cls-2" d="M570.2,345.81c-4.32.1-8.63.14-12.94.33-19.53.86-39,2.31-58.57,2.31-5.82,0-12.17-3.2-17.37-6.41-16.85-10.38-31.46-23.22-36.69-43.31-4.8-18.4-3.63-37.75,5.81-53.48,6.93-11.53,20-20.17,31.83-27.64,6-3.75,15.47-1.49,23.21-2.87,20.43-3.65,36.23,5.89,48.81,19.5C566.56,247.53,579,261.86,580,281.71s2,39.86,3,59.8Zm-47.47-52.25c11.28.45,16.73-4.89,17.33-17,.51-10.47-8.41-20.07-19.13-20.59-8.07-.39-19.22,7.63-19.43,14C501.11,282,511.07,293.09,522.73,293.56Z"/><path class="cls-2" d="M117.5,227.35c-3.13-4-6.47-11.43-9.36-11.26-7.32.42-14.55,4-21.5,7-1,.44-.88,5-.28,7.34,2.07,8.07,4.82,16,6.76,24.08.5,2.1-1.05,4.69-1.65,7.06l-2.67-.39c-3.46-9.65-7.18-19.2-10.28-29-1.85-5.83-5.1-8.08-11.1-7.17s-12.12.68-17.77,2.37c-2.44.73-5.59,5.21-5.35,7.68a70.07,70.07,0,0,0,6.59,23.06L52,245c8.51,3.1,16.39,3.17,22.95-7l11.11,38.23L53.4,283.17V266.94l-1.83-.62-5,7.78c-4.36-15.2-8.15-28.43-11.89-41.51-27.56,2-21.7-.3-23.2,24.13-1.85-3.64-3.52-5.7-4-8-4.76-23.59-5.55-46.83,10.26-67.06,7-8.92,15.51-16.64,23.33-24.9l26.8-8.69,34.56-2.15-.26-.17c10.09,3.33,20.17,6.72,30.28,10,10.74,3.45,17.51,10.63,20.47,21.44,2.84,10.38,5.59,20.79,7.52,31.4-13.37-14.38-19.43-14.26-35.85,1.23,2.22,5.29,4.45,10.79,6.81,16.22,2.25,5.17,4.65,10.27,7.22,15.93l-7.31,3.5L117.15,227Z"/><path class="cls-2" d="M400.29,83.42c.37,21.84,1,41.38.76,60.91-.05,3.56-3.38,9.75-5.9,10.14-13.7,2.13-18,12-21.29,23.69l-55.09-5.1c1.69-13.2-4-22-14.2-28.7-1.76-1.16-1.65-5.28-2.21-8.08-3.46-17.34,3.67-32.94,8.13-49,2.1-7.56,5.74-10.91,13.81-6.31,6.3,3.59,12.92,5.71,19,10.71,5.92,4.83,16.39,5.42,26-.26C377.11,86.81,387.51,86.5,400.29,83.42ZM392,138c2.14-11.92-4.37-18.57-16-15.19-7.49,2.17-7,8.78-5.89,14.74,1.22,6.82,5.79,4.18,9.87,3.06C383.84,139.52,387.84,138.85,392,138Zm-56.18-4.47c1.92-9.89-2.7-15.17-10.79-14.35-3.95.4-11,8.81-10.34,9.93C319.45,137.32,327.7,134.33,335.79,133.5Z"/><path class="cls-2" d="M370.71,368.4c-8.42-3-16.71-6.5-25.29-9-14-4-21.91-11.05-21.83-22.29,0-3.62,2.93-8.82,6-10.55,23.81-13.21,48.07-25.63,72-38.56,6.62-3.58,11.49-3.81,17.54,2,12.73,12.27,15.2,29.45,22.83,44.1.46.88-.11,2.52-.59,3.64-5.12,11.91-10.19,23.85-15.56,35.65-2.49,5.47-6.07,7.2-12.75,5.18-14-4.25-28.45-7.06-42.72-10.46Z"/><path class="cls-2" d="M480.88,628.94a32.17,32.17,0,0,0,3.18-5.06c2-5,9.5-9.22,2.56-15.67-6.59-6.12-13-5.71-20.79-.25,2.67-4.58,4.51-10,8.15-13.57,11.17-11,22.62-21.72,34.74-31.6,11.19-9.12,23.34-9.36,35-.7,35.49,26.37,34.68,45.81,20.44,83-1.12,2.93-4.9,4.83-8.26,8-4.11-7.68-5.73-17-16.85-13.16-5.08,1.76-7.13,4.5-5.72,9.69l.34-.37q-1.89,4.71-3.79,9.41l-1.42,0c0-3.66-.26-7.35,0-11,.58-6.86-1.58-12.12-8.86-12.93s-9.47,4.72-10.93,10.52L508,648.1l.22-.39-4.58,3.06c1-6,1.12-10.75,2.74-14.94,3-7.76-1.5-11.05-7-14.18-6.57-3.72-8.42,2.56-12.13,5.38-2.22,1.68-1.55,9.41-7.58,4.21Z"/><path class="cls-2" d="M232.9,62.46c1.75,10.45,7.61,12.79,22.59,9.58,14.15-3,19-8.42,16.17-18.12,18.18-1.87,25.18,3.41,25.46,22.59.27,17.65-4.8,28.06-19.47,38.26-25.35,17.64-41.16,20.32-69,5.88-9-4.68-18.76-8-28.15-12-7-3-4.85-6.64-1.43-11.49C192.18,78.61,211.91,70.57,232.9,62.46Z"/><path class="cls-2" d="M587.51,444.66c15.3-5.56,30.44-11.63,46-16.5,10.61-3.34,21.37-7.56,33-2.77,12,4.93,17.4,20.88,10.64,32.29-15.73,26.51-40.74,40.8-68.3,51.38-4.12,1.58-9.64-.52-14.52-.92L579.26,494.5c-4.86-18.08.42-34.4,8.68-50.2Zm59.08,20.15c10.2.26,19.82-7.16,18.66-13.51-.62-3.38-5.15-7.78-8.61-8.54-6.45-1.42-14.91,7.85-14.11,14.88C642.87,460.61,645.69,463.31,646.59,464.81Z"/><path class="cls-2" d="M370.42,368.16c19,10.56,39.06,16.76,63.31,16.71L427.2,379c5.7-11.19,11.39-22.4,18.29-36,6.69,6.2,12.59,11.31,18.07,16.84,8,8.05,17.39,12.15,29.7,11.37,0,6.44.63,12.47-.22,18.29-.55,3.76-3.12,7.29-5.07,10.77-.58,1.05-2.11,1.57-3.22,2.32-19.08,12.88-19.14,12.95-37.22-.66-10.3-7.75-22.22-10.79-34.41-14.38-26.8-7.89-53-17.9-79.46-26.88-4.32-1.47-8.92-2.08-14.53-3.34,1,4.18,1.66,7.1,2.34,10l-1.65,1.11-20.63-22.3c23.76,8.88,47,17.45,71.52,22.2Z"/><path class="cls-2" d="M576,356.05c7.41,6.58,14.75,13.24,22.26,19.71,5.26,4.54,6,9.9,3.78,16.16-4,11.48-12.77,18.46-23,23.91a7.78,7.78,0,0,1-5.82.35c-19.54-7.75-34.48-20.64-44.15-38.8,7.55-6.43,14.57-11.76,20.8-17.9,8.27-8.15,17.25-5.81,26.5-3.09Z"/><path class="cls-2" d="M581.83,513c4.79,2.81,9.67,5.49,14.34,8.48,6.42,4.11,13.42,7.7,18.84,12.9,7.57,7.25,6.85,12-.38,19.66s-14.47,15.63-22.85,24.71c-11.65-22.77-28.21-39-51.56-46.81,2.32-20.61,4-26.06,29.26-21.18,4.25.82,8.48,1.72,12.71,2.58Z"/><path class="cls-2" d="M172.49,172.43c9.74,2.84,10.63,8.48,7.9,17-1.91,5.92-2,12.42-3,19.14H164.89c0-8.26-.89-16.74.23-25,1.24-9.05-1.63-14.39-9.75-18.13-4.35-2-8-5.52-12.93-9l6.67-5.31-12.43-5.27c19.51-5.79,35.93-10.93,52.56-15.3,2.43-.63,7.61,1.74,8.49,3.94,4.33,10.72,8.75,21.64,10.91,32.92,1.61,8.46-6.21,7.49-11.8,7.1C188.71,173.93,180.61,173.13,172.49,172.43Z"/><path class="cls-2" d="M421.36,215.85c-9.76-15.7-3.51-60.58,6.64-64.93l-8.31-32.76c21.27,7.52,34.72,20.54,39.71,42.27,3.78,16.48,1.35,24-11.33,33.28C439,200.36,430.66,208.08,421.36,215.85Zm19.32-38.53c-7.63.8-13.21,3.27-10.61,11.18.73,2.22,6.95,4.86,9.33,3.93C448.18,189,442.83,183.07,440.68,177.32Z"/><path class="cls-2" d="M579.26,494.5l15.06,13.64c-.27,11.63-8.42,3.05-12.5,4.89l.37.35c-5.58-2.29-11-5.81-16.8-6.56-6.61-.86-10-3.65-9.84-9.74.47-15.66,1.22-31.34,2.6-46.94.27-3,3.32-7.14,6.14-8.42,20-9.1,40.24-18,62.73-19.13a16.36,16.36,0,0,1,3.73.73l-43.24,21.34.43-.36C576,452.43,571.15,480.19,579.26,494.5Z"/><path class="cls-2" d="M305.33,148.66c.62,3.47,1.81,7,1.76,10.4-.16,10,4.39,16.69,14.38,17.75q26.41,2.79,53,4c7.86.34,14.08-3.24,16.11-12,.87-3.75,2.89-7.23,4.87-12,4.51,23.41-18.12,53.94-36.84,51.61-4.73-12.75-8-15.19-19.88-13.74a13,13,0,0,0-7.31,4c-5.38,5.87-13.46,6.34-16.87-.44C306.86,183,298.14,167.73,305.33,148.66Z"/><path class="cls-2" d="M301.77,249.58c8-1.68,13.48.13,14.65,9.54.56,4.53,2.82,8.83,3.92,13.33.56,2.29,1.26,5.38.22,7.09-8.74,14.46-5.22,29.36-2.43,44.38,1.56,8.39,2.44,16.89,3.74,26.13-8-.85-12.46-2.17-14.05-11.84-2.51-15.28-9.86-29.76-12.48-45-2.12-12.37-.31-25.41-.24-38.14Z"/><path class="cls-2" d="M570.2,345.81l12.78-4.3c1.59-6.29,4.47-12.58,4.5-18.88.06-14.56-1.26-29.13-2.1-45.49C596.87,291.86,608,306,618.84,320.31c1,1.32.63,4.89-.49,6.37-6.77,8.94-13.58,17.9-21.1,26.2-5.86,6.48-13.28,8.37-21.3,3.17,0,0,.38.34.39.34l-11.24-7.21Z"/><path class="cls-2" d="M323.44,270.47c-.49-1.46-1.75-3.89-2-6.42-.52-4.45-2.28-10.21-.25-13.2,4.34-6.38,11.54-6.16,19-4.48a343.52,343.52,0,0,0,38.94,6.78c5.3.56,10.9-2.68,16.46-3.33,3-.35,6.17,1.14,9.26,1.8-1.17,4-1.47,10.88-3.66,11.55-11,3.34-22.4,6.14-33.83,7-9.17.7-18.55-2.07-27.87-2.42C334.66,267.59,329.78,269.33,323.44,270.47Z"/><path class="cls-2" d="M301.77,249.58,295.1,255c-2.18-1.24-5.07-1.95-6.42-3.79-5.47-7.48-9.8-15.88-15.78-22.89-10.38-12.17-12.37-26-10.77-41.11.63-5.93.88-11.89,1.31-17.85l-.29.29c8.34-.35,11.22,3.11,8.48,10.57s-2.29,14.43,3.25,20.53c7.6,8.36,15.08,16.85,23,24.9C305.15,233.07,306.65,240.55,301.77,249.58Z"/><path class="cls-2" d="M263.44,169.4c-3-4-6.1-7.89-8.72-12.1-.26-.41,2.82-2.59,3.93-4.23,1.56-2.31,3.22-4.74,3.93-7.37.89-3.28-.16-7.39,1.4-10.13,7.37-12.87,17.37-23.12,29.48-28.29-.7,9.47-1.16,19.17-2.31,28.79-.27,2.24-3,4.13-4.4,6.3-3.92,6-7.24,12.53-11.77,18-3.09,3.77-7.81,6.2-11.81,9.25Z"/><path class="cls-2" d="M150.68,304.14c-15.24-8.33-16.57-7.81-34.29,15-4.56-15.4-8.71-29.38-13.11-44.22,5.88,2.61,10.19,6.13,14.3,5.91,4.57-.24,9-3.88,13.54-6.1-.74-4.32-1.37-7.93-2-11.55l3.92-1.34Q141.85,283,150.68,304.14Z"/><path class="cls-2" d="M117.15,227c3.75,8.81,8,17.47,10.92,26.54.78,2.38-1.6,7.57-3.95,8.85-6.3,3.42-13.38,5.43-22.76,9-3.68-12.37-7.46-25.06-11.8-39.67,10.85,3.22,18.66,2.88,22.45-6.88l5.49,2.5Z"/><path class="cls-2" d="M54.75,286.38c4.68,16.18,13.71,7.16,21.38,5.92.3-.94.53-1.55.69-2.19q1.34-5.28,2.66-10.56c2,3.15,4.81,6.06,5.91,9.51,3.48,10.9,6.32,22,9.32,32.7-3,1.26-3.93,1.88-4.15,1.69-7.73-6.44-16-9.39-26.09-5.58-1.2.45-4.64-1.7-5.13-3.24-2.67-8.55-4.75-17.28-7-25.95Z"/><path class="cls-2" d="M153.74,207.1l21.08,22.2-27.84,20c-4.84-9.18-10.24-18.91-15-29-.6-1.28,1.65-5.22,3.47-6.11C141,211.47,147,209.64,153.74,207.1Z"/><path class="cls-2" d="M37.06,281.36H6.22l11.61-31.75h18C38.08,259.87,45,271,37.06,281.36Z"/><path class="cls-2" d="M452.49,449.68c-6.57-4.29-3.09-9.26-.68-13.9.86-1.65,3.89-2.49,4.22-4.07,3-14,15.68-16.33,25.61-22.16,5.68-3.34,10.76-7.71,16.11-11.61l2.2,1.39c-2.6,5-4.12,11.22-8,14.91-12,11.41-25,21.86-37.52,32.72a18.34,18.34,0,0,0-2.23,2.89Z"/><path class="cls-2" d="M67.88,148.07l-26.8,8.69-9.87,2.51c3.51-11.7,11.68-17.3,20.52-21.16,7.83-3.42,16.47-5.39,25-6.78s14.62,2.74,17.94,11.1Z"/><path class="cls-2" d="M151.08,259.33q1-5.8,2.09-11.6l3.08-1.19,6,10.35c7.2-7.7,20.27-6.92,20-21.34l12.23,25.32c-16.38-2.44-23.66,6.35-27.35,21.28L150.75,259Z"/><path class="cls-2" d="M219.42,194.6c9.86,13,9.86,13,4.93,20.66l-28.82-14.35c-2.62-4.74-5.34-9.43-7.8-14.25-1.1-2.14-2.31-4.57-2.26-6.84,0-1.4,2.38-2.74,3.68-4.11.95,1.68,1.49,4.12,2.92,4.88,2.88,1.53,6.5,1.67,9.35,3.23,6.27,3.43,12.25,7.4,18.34,11.14C219.76,195,219.42,194.6,219.42,194.6Z"/><path class="cls-2" d="M497.6,173.16l-34.41,10.23V151C476.57,154.12,489.27,160.19,497.6,173.16Z"/><path class="cls-2" d="M452.19,449.85l12-3c1.86,7,1.6,13.42-4.43,18.54-13.81,11.74-26.63,13.69-39,7.36l31.66-23.1Z"/><path class="cls-2" d="M35.48,318.61,10.63,308.37,8.92,310.9,6.6,294.38l14.89,1.76,6.12-13.38,4.2.05Q35,299.66,38.12,316.5Z"/><path class="cls-2" d="M604.33,354.16q8.31-11.54,16.58-23.05c.48.25.87.33,1.06.57,4.51,6,12.74,12.12,12.47,17.87-.28,5.94-8.82,11.5-13.75,17.22l.21,0-9.27-7.34Z"/><path class="cls-2" d="M144.28,121.91c1.42-3,2.08-7.16,4.43-8.6a67.22,67.22,0,0,1,16.5-6.78c2.35-.68,6.32-.16,7.73,1.43s1.92,5.64,1.15,8.07c-2.25,7.17-16.73,14.76-23.94,12.38-2.41-.79-3.94-4.27-5.88-6.52Z"/><path class="cls-2" d="M684.53,435l-6.1-11.83L689.7,411.2,688,409.42l-9.76,9-2-1.68,12.61-20.26C703.53,408.71,703.41,409.85,684.53,435Z"/><path class="cls-2" d="M480.88,628.94l-1.26,2.3-9,6.45c-6.28-5.09-11.7-9.49-17.28-14,5.86-5.09,12.07-11.61,21.7-8.78C482,617,481.59,623.13,480.88,628.94Z"/><path class="cls-2" d="M448.93,660.27c-13.3-14.9-13.32-15.09-3.17-28.65l7.08,5.58,8.82-3.7c.55,1.35,1.75,2.83,1.5,4a23.16,23.16,0,0,1-3,7.93C456.84,650.34,453,654.91,448.93,660.27Z"/><path class="cls-2" d="M508.21,647.71l-.22.39c4.58-.52,12.91-2.17,13.15-1.38,2.2,7.25,3,14.93,4.38,23.68L501.7,667Q505,657.32,508.21,647.71Z"/><path class="cls-2" d="M450.8,585.21c5.39.56,8,2.42,5.07,8.39-2,4-2.85,8.48-4.24,12.83l-24,11.76c-2.42-7.23,2.22-11.24,6.88-15.68,5.85-5.57,11.14-11.73,16.67-17.64Z"/><path class="cls-2" d="M495.74,390.65V371.23l22.18-8.72C516.85,375.25,511.58,381.68,495.74,390.65Z"/><path class="cls-2" d="M533.32,649.57h8.41c.24,3.8.45,7,.65,10.21h.45c0-1.88-.37-3.87.1-5.63.43-1.6,1.76-2.95,2.7-4.41,1.34,1.43,3.6,2.7,3.87,4.31,1,5.82,1.26,11.76,1.82,17.79H533.66V649.21Z"/><path class="cls-2" d="M498.82,655.28c-3.36,5.33-7.58,7.89-13.72,4.24l.29.28-4.29-8,14.13-16.25c2.1,2,5.87,3.92,6,6C501.4,646.1,499.73,650.7,498.82,655.28Z"/><path class="cls-2" d="M500.15,668.53c8.44,10.28,9.31,10.43,21.32,1.89-.57,8.41-1,15.31-1.61,23.66-7-5.45-12.64-13-21.67-2.83.77-8.76,1.39-15.78,2-22.82Z"/><path class="cls-2" d="M380.48,6c10.29,9.13,20.72,18.11,30.76,27.51,2.14,2,2.85,5.55,4.72,9.41-6.29-3.85-11.4-6.55-16-10-2.85-2.11-6.78-5.15-7-8-.6-8.45-6-11.07-12.52-13.42-1.54-.55-2.58-2.51-3.85-3.83l4.24-1.41Z"/><path class="cls-2" d="M620.69,366.77l16-11.22,8.74,8.23L629.8,377.71c-2.67-3.35-5.73-7.2-8.85-11A1.73,1.73,0,0,1,620.69,366.77Z"/><path class="cls-2" d="M115.13,128.12v8.53H92.21l10.48-12.17Z"/><path class="cls-2" d="M533.58,675.6c2.81,2.24,5.3,5.81,7.78,5.81,3.31,0,6.62-2.79,10-4.44-.25,3.44-.61,8.27-.95,12.92C535.45,694.62,531.43,690.9,533.58,675.6Z"/><path class="cls-2" d="M102.44,145.92l-2.15-3.29c15.47-4.78,35.17.89,38.86,9.92-11.86-2.2-24.46-4.54-37-6.84C102.18,145.75,102.44,145.92,102.44,145.92Z"/><path class="cls-2" d="M462.83,605.8c-7.37-17.31-4.69-23.91,10.5-24Z"/><path class="cls-2" d="M476.94,150.59c-12.53-1.15-24.14-3.83-27-20.28Z"/><path class="cls-2" d="M279.31,160.06C283,155,286.52,149.69,290.67,145c1.08-1.22,4.26-.57,6.48-.79-.37,2.27.06,5.44-1.27,6.65-4.47,4.07-9.57,7.43-14.43,11.07Z"/><path class="cls-2" d="M604.33,354.16l7.3,5.22c-5.69,6.21-12.5,7.42-20.88,3.68Z"/><path class="cls-2" d="M404,150.08c1-9.46,1.84-16.68,2.63-23.9l3.2.41C410.77,134.08,413.6,141.8,404,150.08Z"/><path class="cls-2" d="M144.27,121.89l-26,7.71-.86-3.43c9.06-1,16.15-10.59,26.87-4.26Z"/><path class="cls-2" d="M388.78,80.29l12.61-17.08c-2.26,7.46-1.34,17.19-10.7,19.51Z"/><path class="cls-2" d="M345.17,480c3.09.41,6.41.24,9.25,1.32,19.24,7.39,38.38,15,59.83,23.5-1.11,13.85-3.85,30.75-3.44,47.59.45,18.85-11.19,31.06-19.92,45.24A193.43,193.43,0,0,0,376.14,626c-6.22,15.36-18.63,22-33.3,25.37-25.33,5.79-49.9-8.68-53.63-32.34-.89-5.64,2.8-13.14,6.59-18.1,5.72-7.49,5.61-15.72,6.54-24l-.29.53q5.13-19.78,10.25-39.58l4.4-7.06c1.83-5.83,3.65-11.66,5.39-17.2l1.3,1.54,4-12.38Z"/><path class="cls-2" d="M316.7,530.77l-4.4,7.06q-5.13,19.8-10.25,39.58l.29-.53c-6.85,12-13.67,24.09-20.61,36.07-.75,1.29-2.27,2.13-5.16,4.71,4.54-18.32-8.36-25.37-17.68-34-12.66-11.68-21.29-25.1-24.76-42.2s-10.79-32.77-23.7-45.94c12.91-8.14,26-15,37.46-24,12.45-9.72,23.42-21.37,35-32.17,2.39-2.64,5.22-5,7.05-8s2.67-6.6,3.93-9.9c.65-8.37,6.11-12.5,14.06-15.93-.5,26.89,13.33,46.33,29.91,64.51,2.74,3,4.88,6.57,7.3,9.87l-17.76,22.76c-10.09-1.29-2.33-10.25-7.09-14.93v19.89l-5.56-6.62C315.48,512.17,316.09,521.47,316.7,530.77Z"/><path class="cls-2" d="M133.55,824.91c-6.91-5.56-14.48-12.41-22.88-18-3-2-8-1.56-12.08-1.26-3.49.25-6.88,1.88-12.35,3.51,5.42-19.92,9-38.44,25.8-51,3.47-2.58,4.47-8.22,7.48-11.68,15-17.19,18.85-37.64,20.8-59.68,2.21-25,6.42-28,32.8-36.21-.71,4.72-1.58,9.23-2,13.79-.24,2.59-.8,6.4.6,7.7,8.81,8.19,10,20.33,16.29,29.72,6,9.1,14.9,11.8,25.39,9.65,2.5-.51,5-1.12,7-1.57-6.38,22.92-23,37.93-38.25,54.41C165,782.79,150.38,803.66,133.55,824.91Z"/><path class="cls-2" d="M250.76,639.38c-.46-15.31-17.38-22.38-30.57-23.13-14.46-.83-27.92,1.47-36.95,15.4.71-7.5,3.61-15.61,1.72-22.38-6.35-22.72,6.89-40.71,12.52-60.52a31.61,31.61,0,0,1,3-6.32,11.27,11.27,0,0,1,2.26-2.18c.83.62,2.17,1.13,2.22,1.74,1.68,20.13,16.11,31.52,30,42.93,13,10.72,19.45,25.37,24.52,40.46,1.31,3.91-3.76,10-5.89,15Z"/><path class="cls-2" d="M252.6,662.39c.19,26.29-24.8,47.84-45.38,41.68a22.71,22.71,0,0,1-13.68-32c3-6.15,3.25-13.63,6.07-19.9,1.73-3.87,5.42-8.34,9.19-9.55,15.65-5,28.28,3.81,40.67,11.34C252,655.55,252.13,661,252.6,662.39Z"/><path class="cls-2" d="M155.85,970.8l-53.54,5.83L86,939.45c16-6.09,33.92-5.92,51.67-3.61,13.17,1.72,17.45,7.69,18.15,20.83C156.06,961.29,155.85,965.94,155.85,970.8Z"/><path class="cls-2" d="M277.36,715.74l25.39,11.67-12.84,32c-21.1,2.15-35.69-5.07-44.35-21.78-7.75-15,1.34-31.07,18.68-33.12Q270.8,710.13,277.36,715.74Z"/><path class="cls-2" d="M135.77,874.83c-.69,13.78-1.13,14.33-16,17-13.78,2.45-26.46.86-37.83-8.47-5.77-4.72-6.1-9.69-2.21-14.66,3.48-4.44,7-8.48,15-5.28C107.44,868.44,121.17,870.92,135.77,874.83Z"/><path class="cls-2" d="M137.19,893.5V914l-53.37,3.58c.65-8.08,1.33-16.59,1.93-24.08Z"/><path class="cls-2" d="M333.65,680.06c-13.26,12.41-29.25,15-41.39,7.92-12.63-7.41-18.29-20.83-14.72-36.31C294,665.12,310.29,678.43,333.65,680.06Z"/><path class="cls-2" d="M63.49,940.53c26.09-28.13,76.88-31.64,87-6.72C121.23,926.73,93.5,935,63.49,940.53Z"/><path class="cls-2" d="M252.51,681.89c3.84-10.07,4.81-19.25.59-29.5-1.41-3.43,3.94-10.2,7.21-14.72,1.19-1.63,7.45-2.11,7.78-1.4A38.09,38.09,0,0,1,271.72,649a72.43,72.43,0,0,1-.5,16.84,13.12,13.12,0,0,1-4.6,7.75C262.49,676.76,257.62,679,252.51,681.89Z"/><path class="cls-2" d="M420.76,502.2c.48,7.92,1.2,15.83,1.39,23.75.39,16.07,1,17.4,14.57,26.7l-5.82,11.18c-9.38-7.91-17.72-14-13.52-28.45,2.94-10.1.57-21.75.57-32.71Z"/><path class="cls-2" d="M277.36,715.74q-6.57-5.61-13.12-11.24c.15-1.94.29-3.89.33-4.4,9.81,5,19.34,12.89,29.85,14.55s21.89-2.88,32.67-4.67c-4.14,9.44-16.52,14.38-29.67,11.26C290.68,719.64,284,717.59,277.36,715.74Z"/><path class="cls-1" d="M481.1,651.82l4.29,8-8,7.31-9.1-4.92c1.65-3.3,3.2-6.39,4.74-9.49Z"/><path class="cls-1" d="M522.73,293.56c-11.66-.47-21.62-11.56-21.23-23.6.21-6.34,11.36-14.36,19.43-14,10.72.52,19.64,10.12,19.13,20.59C539.46,288.67,534,294,522.73,293.56Z"/><path class="cls-1" d="M392,138c-4.13.88-8.13,1.55-12,2.61-4.08,1.12-8.65,3.76-9.87-3.06-1.07-6-1.6-12.57,5.89-14.74C387.6,119.4,394.11,126.05,392,138Z"/><path class="cls-1" d="M335.79,133.5c-8.09.83-16.34,3.82-21.13-4.42-.66-1.12,6.39-9.53,10.34-9.93C333.09,118.33,337.71,123.61,335.79,133.5Z"/><path class="cls-1" d="M646.59,464.81c-.9-1.5-3.72-4.2-4.06-7.17-.8-7,7.66-16.3,14.11-14.88,3.46.76,8,5.16,8.61,8.54C666.41,457.65,656.79,465.07,646.59,464.81Z"/><path class="cls-1" d="M579.26,494.5c-8.11-14.31-3.31-42.07,8.68-50.2C579.68,460.1,574.4,476.42,579.26,494.5Z"/><path class="cls-1" d="M440.68,177.32c2.15,5.75,7.5,11.65-1.28,15.11-2.38.93-8.6-1.71-9.33-3.93C427.47,180.59,433.05,178.12,440.68,177.32Z"/><path class="cls-1" d="M316.7,530.77c-.61-9.3-1.22-18.6-1.94-29.7l5.56,6.62V487.8c4.76,4.68-3,13.64,7.09,14.93l-4,12.38-1.3-1.54C320.35,519.11,318.53,524.94,316.7,530.77Z"/><path class="cls-4" d="M302.05,577.41q5.13-19.78,10.25-39.58Q307.17,557.63,302.05,577.41Z"/><g id="football"><path class="cls-5" d="M587.36,864c.87-5.86,4-31.13-10.24-55.65l-.13.34a88.38,88.38,0,0,0-36.69-35.34l.28-.11a86.56,86.56,0,0,0-53.83-8.54l.24.14a87.18,87.18,0,0,0-44.31,21c0-.11,0-.21,0-.32S418.8,804.27,414,837.75l.21-.16a86.57,86.57,0,0,0,4.73,44.9l-.34-.1c9.29,25.06,27.58,40.1,45.14,48.37,0-.09-.06-.17-.11-.26a86.62,86.62,0,0,0,36.92,8.25,88.24,88.24,0,0,0,12.45-.9l-.14.19c23.47-3.35,40.92-14.34,53.83-29.27a1.46,1.46,0,0,0-.29,0,87.19,87.19,0,0,0,20.78-45Z"/><path class="cls-6" d="M413.6,841s-3.33,16.91,4.11,38.57a71,71,0,0,0,16.74,2.63c1.1-10.23,1.42-17,7.05-31.35A117.71,117.71,0,0,1,428,829.49Z"/><path class="cls-6" d="M493.74,772c-7-5.74-8.47-6.4-9.39-6.89-11.71,2.46-24.46,6.13-39.94,18.94a53.77,53.77,0,0,0,1.26,9.34c11.7-4.69,19.47-5.52,29.21-5.57C480.84,779.93,485.49,776.1,493.74,772Z"/><path class="cls-6" d="M575.92,806.24a86.54,86.54,0,0,0-33.31-31.89l-9.36,4.27c5.69,4.87,10.39,11.7,14.22,21.33,10.62,3.35,20,9.14,25.71,14.45C573.63,813,574.55,808.87,575.92,806.24Z"/><path class="cls-6" d="M490.58,816.26c-5.36,11-9.9,19.8-13.52,29.86,4.38,9.8,13.68,20.3,22.27,26.59,13.84-4.92,20.41-7.82,34.14-17.12a116.19,116.19,0,0,0-7.05-35.39C518.1,817.41,501.9,816.08,490.58,816.26Z"/><path class="cls-6" d="M463.82,912.54a58.94,58.94,0,0,0,3.29,19.59c15.16,6.89,32.43,7.65,43.11,6.23,3.94-5,6.63-9.68,10.18-15.75a96.78,96.78,0,0,1-25.56-15.43C483.63,911.45,476.63,912.43,463.82,912.54Z"/><path class="cls-6" d="M579.37,856.8c-5.1,6.12-14.66,13.61-17.94,16,1.63,14.66-.77,25.05-3.78,32.6,3.34,1.21,10.11.83,11.44.6a83.14,83.14,0,0,0,17.61-38.13C584.56,863.52,582.87,860,579.37,856.8Z"/></g></g></g></g></svg>