<svg xmlns="http://www.w3.org/2000/svg" viewBox="0 0 79.69 53.6"><defs><style>.cls-1{fill:#fff;}.cls-2{fill:#74acdf;}.cls-3{fill:#f6b40e;}.cls-4{fill:#843511;}.cls-5{fill:#85340a;}</style></defs><title>Argentina</title><g id="Layer_2" data-name="Layer 2"><g id="flags"><g id="group_d" data-name="group d"><g id="argentina"><rect class="cls-1" x="0.04" y="17.57" width="79.6" height="18.46"/><rect class="cls-2" width="79.69" height="17.87"/><rect class="cls-2" y="35.74" width="79.69" height="17.87"/><path class="cls-3" d="M41.38,32.8a2.18,2.18,0,0,1-.21-1.31A2.73,2.73,0,0,0,41,30.32a2.74,2.74,0,0,1-.14-.67l-.13,0c.08.8.49,1.28.28,1.89.09-.74-.28-1.16-.43-1.86h-.13a4.38,4.38,0,0,0,.21.67,2.61,2.61,0,0,1,.23,1.19A2.19,2.19,0,0,0,41.25,33a2,2,0,0,1,.16.33.77.77,0,0,1,0,.49l0,.08,0,0a.74.74,0,0,0,.12-.63A1.17,1.17,0,0,0,41.38,32.8Z"/><path class="cls-3" d="M41.39,29.45l-.1.06L42,31.32l-.81-1.76-.1,0,1.74,3.8s0,.07.06.06,0-.07,0-.08Z"/><path class="cls-3" d="M39.1,31.57c.37-.65.18-1.18.32-1.88l-.13,0a5.76,5.76,0,0,0-.07.69,2.57,2.57,0,0,1-.23,1.2,2.21,2.21,0,0,0-.2,1.41,2.43,2.43,0,0,1,0,.36.73.73,0,0,1-.21.45l-.05.06.05,0c.09,0,.26-.18.35-.53a1.25,1.25,0,0,0,0-.43,2.31,2.31,0,0,1,.31-1.3,2.58,2.58,0,0,0,.29-1.14,3.34,3.34,0,0,1,.11-.67h-.12C39.33,30.49,39.52,31.09,39.1,31.57Z"/><path class="cls-3" d="M40.08,31.7,40,29.76h-.11l.16,4.18s0,.08,0,.08,0-.06,0-.08l.16-4.18h-.12Z"/><path class="cls-3" d="M39,29.56l-.81,1.76.68-1.81-.11-.06-1.45,3.92s0,.08,0,.09a.12.12,0,0,0,.06-.06l1.74-3.8Z"/><path class="cls-3" d="M38.22,29.93a2.77,2.77,0,0,1,.36-.58l-.1-.05c-.51.62-.57,1.25-1.14,1.53.59-.46.62-1,1-1.62l-.1-.08a4.47,4.47,0,0,0-.32.61,2.72,2.72,0,0,1-.69,1A2.26,2.26,0,0,0,36.52,32a2.23,2.23,0,0,1-.12.34.72.72,0,0,1-.36.33l-.07,0H36a.75.75,0,0,0,.53-.35,1.47,1.47,0,0,0,.19-.4,2.23,2.23,0,0,1,.78-1.08A2.59,2.59,0,0,0,38.22,29.93Z"/><path class="cls-3" d="M36.14,29.58a2.57,2.57,0,0,0,1-.6,3.39,3.39,0,0,1,.55-.4l-.07-.09c-.71.38-1,.94-1.63,1,.72-.2,1-.71,1.55-1.11l-.06-.11a6.06,6.06,0,0,0-.54.44,2.62,2.62,0,0,1-1,.68,2.19,2.19,0,0,0-1.13.86,2.27,2.27,0,0,1-.24.27.75.75,0,0,1-.47.17H34s0,0,0,0a.79.79,0,0,0,.62-.13,1.32,1.32,0,0,0,.33-.29A2.16,2.16,0,0,1,36.14,29.58Z"/><path class="cls-3" d="M38,28.93l-1.42,1.32,1.32-1.42-.07-.09L35,31.81s-.05.06,0,.08.07,0,.08,0L38.11,29Z"/><path class="cls-3" d="M33.64,28.22a1.44,1.44,0,0,0,.41-.15,2.32,2.32,0,0,1,1.32-.21,2.56,2.56,0,0,0,1.16-.17,3.3,3.3,0,0,1,.67-.14.5.5,0,0,1,0-.13c-.8.08-1.28.49-1.88.29.74.09,1.15-.29,1.85-.43a.62.62,0,0,1,0-.13,4.24,4.24,0,0,0-.66.2,2.53,2.53,0,0,1-1.2.23,2.25,2.25,0,0,0-1.38.36,1.64,1.64,0,0,1-.33.16.71.71,0,0,1-.49,0l-.08,0s0,0,0,0A.77.77,0,0,0,33.64,28.22Z"/><path class="cls-3" d="M37.34,28l-1.81.67,1.76-.8s0-.08,0-.11l-3.8,1.74s-.07,0-.06.06a.07.07,0,0,0,.08,0l3.93-1.45Z"/><path class="cls-3" d="M33.58,25.64a1.56,1.56,0,0,0,.43,0,2.27,2.27,0,0,1,1.3.3,2.45,2.45,0,0,0,1.14.29,3.34,3.34,0,0,1,.67.11.45.45,0,0,0,0-.11c-.76-.24-1.37,0-1.85-.46.65.36,1.18.17,1.88.31,0,0,0-.08,0-.13a5.68,5.68,0,0,0-.69-.06,2.74,2.74,0,0,1-1.2-.24,2.21,2.21,0,0,0-1.41-.2,2.43,2.43,0,0,1-.36,0,.73.73,0,0,1-.45-.21L33,25.24s0,0,0,.05A.72.72,0,0,0,33.58,25.64Z"/><path class="cls-3" d="M37.09,26.84l-1.94-.07,1.94-.07s0-.08,0-.12l-4.18.16s-.08,0-.08,0,.06,0,.08,0L37.1,27S37.09,26.88,37.09,26.84Z"/><path class="cls-3" d="M33.45,24.06l3.8,1.75a.56.56,0,0,0,0-.12l-1.76-.81,1.81.68.06-.1L33.48,24s-.08,0-.09,0S33.44,24.06,33.45,24.06Z"/><path class="cls-3" d="M34.5,23.24a1.47,1.47,0,0,0,.4.19,2.23,2.23,0,0,1,1.08.78,2.68,2.68,0,0,0,.94.7,2.77,2.77,0,0,1,.58.36.53.53,0,0,1,.06-.1c-.62-.51-1.26-.56-1.54-1.13.46.58,1,.61,1.62,1a.87.87,0,0,0,.08-.1,4.47,4.47,0,0,0-.61-.32,2.69,2.69,0,0,1-1-.68,2.2,2.2,0,0,0-1.22-.73l-.35-.11a.78.78,0,0,1-.33-.37l0-.07s0,0,0,.05A.75.75,0,0,0,34.5,23.24Z"/><path class="cls-3" d="M36.57,21.7a2.26,2.26,0,0,1,.7,1.13,2.66,2.66,0,0,0,.6,1,2.6,2.6,0,0,1,.4.55l.09-.08c-.38-.7-.94-1-1-1.63.2.72.71,1,1.11,1.55l.11-.06a4.7,4.7,0,0,0-.44-.54,2.39,2.39,0,0,1-.67-1,2.28,2.28,0,0,0-.86-1.14,1.31,1.31,0,0,1-.27-.24.7.7,0,0,1-.17-.47.2.2,0,0,1,0-.07l0,0a.81.81,0,0,0,.13.63A1.47,1.47,0,0,0,36.57,21.7Z"/><path class="cls-3" d="M37.84,24.8a.73.73,0,0,1,.08-.09L36.6,23.29,38,24.61l.09-.08L35,21.69s-.06-.05-.08,0,0,.07,0,.08Z"/><path class="cls-3" d="M38.76,24.09l.11-.06-.67-1.81L39,24l.11,0-1.74-3.81s0-.07-.06-.06,0,.08,0,.09Z"/><path class="cls-3" d="M38.78,20.74A2.32,2.32,0,0,1,39,22.06a2.71,2.71,0,0,0,.17,1.16,2.84,2.84,0,0,1,.14.67l.13,0c-.08-.8-.49-1.28-.28-1.88-.09.74.28,1.16.43,1.86l.13,0a4.62,4.62,0,0,0-.21-.66,2.63,2.63,0,0,1-.23-1.2,2.35,2.35,0,0,0-.36-1.38,1.64,1.64,0,0,1-.16-.33.77.77,0,0,1,0-.49.24.24,0,0,1,0-.07l0,0a.7.7,0,0,0-.12.62A1.11,1.11,0,0,0,38.78,20.74Z"/><path class="cls-3" d="M41.05,22c-.36.65-.17,1.18-.31,1.87l.13,0a4,4,0,0,0,.06-.69A2.55,2.55,0,0,1,41.18,22a2.27,2.27,0,0,0,.19-1.41,2.56,2.56,0,0,1,0-.37.67.67,0,0,1,.21-.44l0-.07,0,0a.75.75,0,0,0-.35.53,1.56,1.56,0,0,0,0,.43,2.18,2.18,0,0,1-.3,1.3,2.58,2.58,0,0,0-.29,1.14,3.43,3.43,0,0,1-.11.68h.11C40.83,23.06,40.64,22.46,41.05,22Z"/><path class="cls-3" d="M40.08,21.85l.07,1.93h.12l-.16-4.18s0-.08,0-.08,0,.07,0,.08l-.16,4.18H40Z"/><path class="cls-3" d="M41.94,23.61a2.77,2.77,0,0,1-.36.58l.1.06c.51-.62.56-1.25,1.14-1.54-.59.46-.62,1-1,1.62l.1.09a4.57,4.57,0,0,0,.32-.62,2.51,2.51,0,0,1,.69-1,2.3,2.3,0,0,0,.72-1.23,1.9,1.9,0,0,1,.12-.34.71.71,0,0,1,.36-.34l.07,0h0c-.11,0-.32.07-.53.36a1.41,1.41,0,0,0-.19.39,2.23,2.23,0,0,1-.78,1.08A2.68,2.68,0,0,0,41.94,23.61Z"/><path class="cls-3" d="M41.16,24,42,22.22,41.29,24l.11.05,1.45-3.92s0-.08,0-.09-.05.06-.06.06L41.05,24Z"/><path class="cls-3" d="M44,24a3,3,0,0,0-1,.6,2.29,2.29,0,0,1-.55.4l.08.09c.7-.37,1-.94,1.63-1-.72.2-1,.71-1.55,1.11l.06.12a4.77,4.77,0,0,0,.54-.45,2.56,2.56,0,0,1,1-.67,2.24,2.24,0,0,0,1.14-.86,1.68,1.68,0,0,1,.24-.27.75.75,0,0,1,.47-.17h.07l0,0a.73.73,0,0,0-.62.12,1.32,1.32,0,0,0-.33.29A2.15,2.15,0,0,1,44,24Z"/><path class="cls-3" d="M42.15,24.61l1.41-1.32-1.31,1.42.07.09,2.85-3.07s0-.06,0-.07a.08.08,0,0,0-.08,0l-3.07,2.84Z"/><path class="cls-3" d="M46.52,25.33a1.32,1.32,0,0,0-.41.14,2.23,2.23,0,0,1-1.32.21,2.71,2.71,0,0,0-1.16.17A2.74,2.74,0,0,1,43,26c0,.05,0,.09,0,.13.8-.08,1.28-.49,1.88-.28-.74-.09-1.15.29-1.85.43a.57.57,0,0,0,0,.13,5.7,5.7,0,0,0,.66-.2A2.56,2.56,0,0,1,44.9,26a2.21,2.21,0,0,0,1.38-.36,2.45,2.45,0,0,1,.33-.16.77.77,0,0,1,.49,0l.08,0,0,0A.73.73,0,0,0,46.52,25.33Z"/><path class="cls-3" d="M42.82,25.57l1.81-.68-1.76.81,0,.11,3.81-1.75s.07,0,.06-.06-.07,0-.09,0l-3.92,1.46Z"/><path class="cls-3" d="M47.24,26.74l-4.18-.16s0,.08,0,.12l1.93.07-1.93.08s0,.07,0,.11l4.18-.16s.08,0,.08,0A.13.13,0,0,0,47.24,26.74Z"/><path class="cls-3" d="M46.58,27.9a1.25,1.25,0,0,0-.43,0,2.21,2.21,0,0,1-1.3-.31,2.58,2.58,0,0,0-1.14-.29,2.75,2.75,0,0,1-.67-.11s0,.08,0,.12c.77.23,1.38,0,1.86.46-.65-.37-1.18-.18-1.88-.31,0,0,0,.08,0,.12a4.25,4.25,0,0,0,.69.07,2.54,2.54,0,0,1,1.19.24,2.23,2.23,0,0,0,1.42.19l.36,0a.79.79,0,0,1,.45.21l.06.05s0,0,0,0S46.92,28,46.58,27.9Z"/><path class="cls-3" d="M45.66,30.3a1.84,1.84,0,0,0-.4-.19,2.26,2.26,0,0,1-1.08-.77,2.6,2.6,0,0,0-.94-.71,2.77,2.77,0,0,1-.58-.36l-.06.11c.62.5,1.26.56,1.54,1.13-.46-.59-1-.62-1.62-1l-.08.1a5.15,5.15,0,0,0,.61.33,2.58,2.58,0,0,1,1,.68,2.3,2.3,0,0,0,1.23.72,1.65,1.65,0,0,1,.34.12.71.71,0,0,1,.34.36.24.24,0,0,0,0,.07.2.2,0,0,0,0-.05A.75.75,0,0,0,45.66,30.3Z"/><path class="cls-3" d="M46.71,29.48,42.9,27.74l0,.11,1.76.81L42.82,28l-.06.11,3.92,1.45s.08,0,.09,0S46.72,29.49,46.71,29.48Z"/><path class="cls-3" d="M42.32,28.74l-.08.1,1.32,1.42-1.42-1.32-.09.07,3.07,2.85s.06.05.08,0,0-.07,0-.08Z"/><path class="cls-3" d="M43.59,31.84a2.16,2.16,0,0,1-.7-1.13,2.69,2.69,0,0,0-.6-1,2.88,2.88,0,0,1-.4-.55l-.09.07c.38.71.94,1,1,1.63-.2-.72-.71-1-1.11-1.55l-.11.06a4,4,0,0,0,.44.54,2.62,2.62,0,0,1,.68,1,2.19,2.19,0,0,0,.85,1.13,2.36,2.36,0,0,1,.27.24.65.65,0,0,1,.17.47.25.25,0,0,1,0,.08s0,0,0-.05a.73.73,0,0,0-.12-.62A1.53,1.53,0,0,0,43.59,31.84Z"/><path class="cls-3" d="M39.74,28.22l0,0h0a.1.1,0,0,0,.05,0h0a.28.28,0,0,0,.11.05h.25a.33.33,0,0,0,.12-.05h0l0,0h0l0,0,0,0,.07-.05a.63.63,0,0,1,.23,0l-.26,0H40.3l-.06,0h0l-.13,0h0l-.13,0h0l-.06,0h-.19l-.25,0a.41.41,0,0,1,.22,0l.08.05Z"/><path class="cls-3" d="M40.72,29.53l.12,0h.08l.06,0,.11,0,.14-.06a.6.6,0,0,0,.11-.06h0l0,0h0l0,0,.12-.06.14-.1.09-.07,0,0,0,0s0,0,0,0a.31.31,0,0,0,.09-.07.57.57,0,0,0,.11-.11l.08-.09,0,0,0,0,0,0,0,0,0,0a.87.87,0,0,0,.08-.1c0-.05.06-.1.09-.14l.06-.11,0-.05v0l0,0,.06-.1,0-.14a.56.56,0,0,0,0-.12v-.14a.93.93,0,0,0,0-.13,1,1,0,0,0,0-.17.49.49,0,0,0,0-.12.13.13,0,0,0,0-.06v0a.13.13,0,0,0,0-.06s0-.08,0-.12,0-.05,0-.08,0-.05,0-.07,0-.08,0-.12v-.15a.66.66,0,0,0,0-.14l0-.16,0-.12a.43.43,0,0,0,0-.05v0s0,0,0-.06l0-.11-.06-.14-.06-.11v0l0,0v-.05l0,0-.06-.12-.1-.14L42.31,25l0-.05,0,0,0,0-.07-.09L42,24.72l-.09-.08,0,0,0,0,0,0h0l0,0-.1-.09-.15-.09-.1-.06,0,0h0l0,0-.1-.06-.14-.05-.12,0h-.14l-.13,0-.17,0H39.6l-.16,0-.12,0-.06,0h0l-.06,0-.11,0-.14.05-.11.06,0,0h0l0,0h0l-.12.07-.14.09-.09.08-.05,0,0,0-.05,0-.09.07-.1.11a.39.39,0,0,0-.08.1l0,0,0,0,0,0,0,0,0,0a.76.76,0,0,0-.08.11.71.71,0,0,0-.1.14s0,.07-.05.1l0,.05,0,0s0,0,0,.05l-.06.1-.06.15,0,.11V26s0,.08,0,.13l0,.16a.49.49,0,0,1,0,.12v.15s0,.07,0,.11,0,0,0,.08,0,.05,0,.08,0,.08,0,.12v.15s0,.09,0,.13l0,.17a.49.49,0,0,0,0,.11s0,0,0,.06v0s0,0,0,.05l0,.11.06.14a.39.39,0,0,0,.06.11v0l0,0v0l0,0,.06.12a3.51,3.51,0,0,0,.17.23l0,0,0,0,0,.05.07.09.11.11.09.07,0,0h0l0,0,0,0,0,0,.1.09.15.09.1.05.05,0,0,0,0,0,.1.06.14.06.12,0h.14l.13,0,.17,0h.8l.14,0Zm-.49-2H40l0,0h0l0,0,0,0h0a0,0,0,0,0,0,0l-.06,0-.06,0h0l-.06,0s-.05,0-.07,0,0,0,0-.06a0,0,0,0,0,0,0s0,0,0-.05h0a.14.14,0,0,1,0-.07s0,0,0-.07l.08,0,0,0,0,0a.11.11,0,0,0-.05.09h0v0s0,0,0,0,0,0,0,0l0,0h0a.05.05,0,0,0,0,0h0l.05,0a.13.13,0,0,0,.06-.07,0,0,0,0,1,0,0h0s0,0,0,.07l0,0h0l0,0h0l0,0,.08,0h.15l0,0,.05,0,0-.06h0s0,0,0,0l0,.07.06,0,0,0h0l.07,0,0-.05h0a.08.08,0,0,0,0-.05h0a.14.14,0,0,0-.09-.13l.08,0a.23.23,0,0,1,.07.1s0,0,0,.06a0,0,0,0,0,0,0s0,0,0,0,0,0,0,0,0,0,0,0l0,0-.07,0-.05,0h0s0,0,0,0l-.06,0s0,0-.06,0h0l0,0Zm-.94-1-.12,0h-.09a.66.66,0,0,1-.21,0l-.12,0a.47.47,0,0,1-.1-.05s-.07,0-.09-.06h0a.81.81,0,0,1,.1-.09.58.58,0,0,1,.29-.15h.15a.78.78,0,0,1,.21,0l.14.08.08,0,.06,0s0,0,0,0h0l0,0h-.05l-.1,0h0l0,0Zm-.79-.29a1.08,1.08,0,0,1,.25-.16l.09,0H39l.08,0h.07l.14,0,.1,0,.05,0,0,0,.08.06,0,0,0,0,.09.05h.06l0,0a0,0,0,0,1,0,0s0,0,0,0h0s0,0-.06,0l-.1-.06v0l-.09-.06h0l-.08,0a.47.47,0,0,0-.2-.06H39l-.06,0h-.12a1.3,1.3,0,0,0-.29.15l-.1.09s-.05,0-.06,0,0,0,0-.05A.31.31,0,0,1,38.5,26.24ZM41,26h.29a.53.53,0,0,1,.12,0,.77.77,0,0,1,.24.16.22.22,0,0,1,.08.09s0,.05,0,.06h0l-.06,0-.1-.08a.87.87,0,0,0-.29-.15h-.06l-.07,0H41a.37.37,0,0,0-.22.08l0,0,0,0,0,0-.05,0-.1.07,0,0h0a0,0,0,0,1,0,0h0l0,0v0h.09a.32.32,0,0,0,.13-.08h0l.09-.07.08-.05h0A.58.58,0,0,1,41,26Zm0,.54-.13,0h-.07l0,0h0l-.08-.05h0l0,0h0l0,0h0l.09-.08a.51.51,0,0,1,.16-.09.54.54,0,0,1,.21-.05h.13a.66.66,0,0,1,.32.14.41.41,0,0,1,.11.07h0l0,0-.11.06-.11.05h0A.93.93,0,0,1,41,26.56Zm.26.13a.78.78,0,0,1-.21,0h-.12l-.18,0h0l-.06,0h0l0,0h0l0,0-.05,0h0l0,0h0l0,0h0s0,0,0,0h0l.05,0h0l0,0,.07,0,.05,0h0l0,0h.05a.73.73,0,0,0,.22,0h.11l.09,0,.31-.09.07,0,0,0h0a.81.81,0,0,1-.18.1A.58.58,0,0,1,41.25,26.69Zm.09-1,.11,0,.06,0,0,0h0s0,0,0,0l0,0,.11.09a1.43,1.43,0,0,1,.15.18h0a1.82,1.82,0,0,0-.23-.15.57.57,0,0,0-.13-.08l-.06,0h0l-.06,0h-.06l-.13,0a1.27,1.27,0,0,0-.33,0h-.13l-.09,0-.06,0-.16.08h0s0,0-.05,0h0l0,.06h0l-.08.15h0s0,0,0,.08h0s0,0,0,.06h0v0h0v0h0v0h0s0,0,0,0a.15.15,0,0,0,0,.07v0h0v.07h0v0s0,0,0,0h0s0,0,0,0v0h0l0,.07h0s0,0,0,0h0v0l0,0h0v0h0v0s0,0,0,0h0l-.05,0v0h0s0,0,0-.05h0l0,0h0l0,0h0V27h0s0,0,0,0h0v0h0v0h0a0,0,0,0,0,0,0h0s0,0,0,0h0v0h0v-.07h0s0,0,0-.06h0v0h0v0h0v-.05h0s0-.05,0-.07h0v0h0a.28.28,0,0,1,0-.09h0a.24.24,0,0,0,0-.08h0V26l0-.08s0,0,0,0l.07,0,0,0,.06,0,.15-.07.07,0h.06l.08,0h.23A.75.75,0,0,1,41.34,25.69ZM38.43,26l.09-.09.06,0,0,0,0,0,0,0,.06,0,.11,0a1,1,0,0,1,.29-.06h.22l.07,0,.08,0h0l.17.08.06,0,.05,0,.06,0,.06,0v0L40,26a.64.64,0,0,1,0,.07h0s0,0,0,.05v.11h0v.08h0v.06h0v0h0v0h0s0,0,0,.05h0s0,0,0,0h0s0,0,0,0,0,0,0,0h0a.16.16,0,0,1,0,.07h0v0h0a0,0,0,0,0,0,0h0s0,0,0,0h0s0,0,0,0h0a.08.08,0,0,1,0,.05h0s0,0,0,.05h0v0h0v0h0s0,0,0,.05h0s0,0,0,.06h0s0,0,0,0l0,0h0v0l0,0s0,0,0,0h0v0l0,0v0h0v0l0-.07v0h0v0h0l0,0h0a.11.11,0,0,1,0-.05h0v0s0,0,0-.06v0h0v0h0v0h0v0h0v0h0a.43.43,0,0,1,0-.05v0h0v0l0-.05,0-.09a.56.56,0,0,1,0-.08l0,0,0,0-.06,0,0,0-.12-.07s0,0-.08,0h-.2l-.32,0-.13,0h-.13l-.06,0L38.5,26l-.23.15h0A.93.93,0,0,1,38.43,26Zm.26.63-.11-.06,0,0h0l.07,0,.27.08.1,0,.12,0a.83.83,0,0,0,.24,0h0l.07,0h0l0,0,.07,0,0,0h.11s0,0,0,0h0l0,.06h0l0,0h0l0,0h-.09l0,0h0l-.17,0h-.13a.79.79,0,0,1-.24-.05l-.11,0Zm.69,1.53h0a1.29,1.29,0,0,1,.28-.06H40l.13,0h0l.13,0h.25a1.36,1.36,0,0,1,.29.06h.07l-.07,0-.29-.18h0l-.05,0h-.21l0,0H40l-.05,0h-.28l-.29.19-.06,0,.07-.06a1.53,1.53,0,0,1,.29-.24h.06l.05,0h0l.08,0h0l.06,0,0,0h.06l0,0,.06,0h0l.08,0h0l.06,0h.06a2,2,0,0,1,.28.24l.08.06h0a.42.42,0,0,0-.23.09.38.38,0,0,0-.09.09h0l0,0s0,0,0,0h0l0,0-.13,0H40l-.12,0,0,0h0l0,0,0,0h0l-.09-.09A.5.5,0,0,0,39.38,28.12Zm.81.42-.11,0-.12,0-.11.05-.06.05-.06.06a.58.58,0,0,0,0,.14.46.46,0,0,1,0-.2l.06-.08s0,0,.06,0a.24.24,0,0,1,.11-.06.27.27,0,0,1,.12,0,.2.2,0,0,1,.11,0,.23.23,0,0,1,.12.06l.06,0,.06.08a.46.46,0,0,1,0,.2.35.35,0,0,0-.06-.14l-.05-.06-.06-.05Z"/><path class="cls-3" d="M38.92,26.46s0,0,0,0,0,0,0,0l0,0a.2.2,0,0,1,.09-.16.49.49,0,0,0-.25.14s0,0-.07.06h0a.2.2,0,0,0,.09.05.33.33,0,0,0,.1.06.64.64,0,0,0,.2,0,.25.25,0,0,1-.09,0S38.93,26.48,38.92,26.46Z"/><path class="cls-3" d="M39.46,26.37s0,0,0,0h0l0-.05a.4.4,0,0,0-.21-.08.13.13,0,0,1,.07.06.19.19,0,0,1,0,.09,0,0,0,0,1,0,0,0,0,0,0,0,0,0s0,0,0,0v0l0,0s0,0,0,0,0,0,0,0h.06l0,0,0,0h0l.08-.06Z"/><path class="cls-3" d="M41.47,26.37s0,0,0,0a.43.43,0,0,0-.28-.14h0a.19.19,0,0,1,.1.16v0s0,0,0,.05h0s0,0,0,.05l0,0h.07l.11-.06.08-.05Z"/><path class="cls-3" d="M40.91,26.49s0,0,0,0h0s0,0,0-.05h0s0-.06,0-.09,0,0,0-.05a.45.45,0,0,0-.17.11l0,0,0,0,0,0,.06,0,0,0h0l.06,0,.12,0a.2.2,0,0,1-.08,0A0,0,0,0,0,40.91,26.49Z"/><path class="cls-4" d="M41.52,26.32a.66.66,0,0,0-.32-.14h-.13a.54.54,0,0,0-.21.05.51.51,0,0,0-.16.09l-.09.08h0l0,0h0l0,0h0l.08.05h0l0,0h.07l.13,0h0l-.12,0-.06,0h0l0,0-.06,0,0,0,0,0,0,0a.45.45,0,0,1,.17-.11.18.18,0,0,1,.12-.05h.14a.43.43,0,0,1,.28.14s0,0,0,0l0,0-.08.05-.11.06h-.07l0,0a.75.75,0,0,0,.21,0h0l.11-.05.11-.06,0,0h0A.41.41,0,0,0,41.52,26.32Z"/><path class="cls-4" d="M41.07,26.57a.05.05,0,0,0,0,0h0Z"/><path class="cls-4" d="M39.53,26.33l-.08,0-.14-.08a.78.78,0,0,0-.21,0H39a.58.58,0,0,0-.29.15.81.81,0,0,0-.1.09h0s.06,0,.09.06a.47.47,0,0,0,.1.05l.12,0a.66.66,0,0,0,.21,0l0,0a.64.64,0,0,1-.2,0,.33.33,0,0,1-.1-.06.2.2,0,0,1-.09-.05h0s.05,0,.07-.06a.49.49,0,0,1,.25-.14h0l0,0h.09l.06,0a.4.4,0,0,1,.21.08l0,.05h0s0,0,0,0h0l-.08.06h0l0,0,0,0h-.06l-.06,0,0,0h.07l.12,0h.07l0,0h0l.1,0h.05l0,0h0s0,0,0,0Z"/><path class="cls-5" d="M47.4,26.68a.29.29,0,0,0-.16-.06l-4-.15c.18,0,.34-.11.5-.17a2.6,2.6,0,0,1,1.15-.22,2.39,2.39,0,0,0,1.45-.38,2.78,2.78,0,0,1,.3-.15.57.57,0,0,1,.42,0c.08,0,.17.05.22,0a.15.15,0,0,0,0-.15.82.82,0,0,0-.75-.19,1.9,1.9,0,0,0-.44.15,2,2,0,0,1-1.26.21,2.63,2.63,0,0,0-1.21.17,3.52,3.52,0,0,1-.58.15l3.74-1.72c.09,0,.16-.12.12-.21a.08.08,0,0,0-.07-.07.27.27,0,0,0-.16,0l-3.76,1.4a4.71,4.71,0,0,0,.41-.35,2.52,2.52,0,0,1,1-.65,2.29,2.29,0,0,0,1.19-.9,2,2,0,0,1,.23-.25.61.61,0,0,1,.4-.15c.07,0,.17,0,.18-.11a.15.15,0,0,0-.08-.12.8.8,0,0,0-.76.11,1.83,1.83,0,0,0-.36.31,2,2,0,0,1-1.08.67,2.7,2.7,0,0,0-1,.63,3,3,0,0,1-.48.35l2.8-3a.17.17,0,0,0,0-.24.11.11,0,0,0-.09,0h0c-.08,0-.14.07-.15.07L42.1,24.33q.13-.24.24-.48a2.48,2.48,0,0,1,.65-1,2.44,2.44,0,0,0,.76-1.29,2.33,2.33,0,0,1,.11-.32.61.61,0,0,1,.31-.28c.07,0,.16-.08.13-.17a.13.13,0,0,0-.12-.09.82.82,0,0,0-.66.4,1.38,1.38,0,0,0-.21.42,2.13,2.13,0,0,1-.74,1,2.92,2.92,0,0,0-.74,1,2.55,2.55,0,0,1-.31.52L43,20.21a.17.17,0,0,0-.07-.23c-.09,0-.17,0-.21.12L41,23.74c0-.18,0-.36,0-.53a2.45,2.45,0,0,1,.23-1.15,2.37,2.37,0,0,0,.21-1.48,1.39,1.39,0,0,1,0-.34.59.59,0,0,1,.18-.38c.05-.06.12-.13.05-.21a.15.15,0,0,0-.15,0,.82.82,0,0,0-.45.62,1.27,1.27,0,0,0,0,.47,2.17,2.17,0,0,1-.3,1.24,2.8,2.8,0,0,0-.3,1.18,2.57,2.57,0,0,1-.09.6l-.15-4.12c0-.09,0-.19-.15-.19s-.15.1-.15.19l-.15,4c-.05-.17-.11-.34-.17-.5A2.6,2.6,0,0,1,39.38,22,2.36,2.36,0,0,0,39,20.52a2.82,2.82,0,0,1-.15-.31.64.64,0,0,1,0-.42c0-.08.06-.17,0-.22a.13.13,0,0,0-.14,0,.79.79,0,0,0-.19.75,1.75,1.75,0,0,0,.15.44,2.12,2.12,0,0,1,.2,1.26,2.73,2.73,0,0,0,.18,1.21,2.73,2.73,0,0,1,.14.58L37.47,20.1c0-.09-.11-.16-.2-.12a.17.17,0,0,0-.07.23L38.59,24a4.73,4.73,0,0,0-.34-.4,2.44,2.44,0,0,1-.65-1,2.44,2.44,0,0,0-.9-1.19,1.56,1.56,0,0,1-.26-.23.64.64,0,0,1-.14-.39c0-.08,0-.18-.11-.19a.16.16,0,0,0-.13.08.83.83,0,0,0,.12.77,2.1,2.1,0,0,0,.31.35,2.12,2.12,0,0,1,.67,1.08,2.82,2.82,0,0,0,.62,1.05,3.1,3.1,0,0,1,.36.49l-3-2.81c-.07-.06-.17-.1-.24,0a.12.12,0,0,0,0,.09.2.2,0,0,0,.07.15l2.73,2.94q-.24-.13-.48-.24a2.41,2.41,0,0,1-1-.65,2.44,2.44,0,0,0-1.29-.76,1.48,1.48,0,0,1-.32-.11.57.57,0,0,1-.28-.31c0-.07-.08-.16-.18-.13a.15.15,0,0,0-.08.12.8.8,0,0,0,.39.66,1.42,1.42,0,0,0,.43.21,2.17,2.17,0,0,1,1,.74,2.83,2.83,0,0,0,1,.74,2.78,2.78,0,0,1,.51.31L33.52,23.9c-.09,0-.2,0-.24.06a.17.17,0,0,0,0,.1c0,.07.12.1.12.11l3.65,1.67-.53,0a2.45,2.45,0,0,1-1.15-.23,2.38,2.38,0,0,0-1.48-.21,1.39,1.39,0,0,1-.34,0,.59.59,0,0,1-.38-.18c-.06-.05-.14-.11-.21-.05a.15.15,0,0,0,0,.15.84.84,0,0,0,.62.46,1.5,1.5,0,0,0,.47,0,2.15,2.15,0,0,1,1.23.3,2.72,2.72,0,0,0,1.19.3,3.23,3.23,0,0,1,.6.09l-4.12.15c-.09,0-.2.05-.2.15a.13.13,0,0,0,0,.09.22.22,0,0,0,.15.06l4,.15-.51.17a2.4,2.4,0,0,1-1.14.23,2.4,2.4,0,0,0-1.45.37,1.66,1.66,0,0,1-.3.15.67.67,0,0,1-.43,0c-.07,0-.17-.06-.21,0a.16.16,0,0,0,0,.15.8.8,0,0,0,.74.18,1.26,1.26,0,0,0,.45-.15,2.12,2.12,0,0,1,1.26-.2,2.76,2.76,0,0,0,1.21-.18,2.59,2.59,0,0,1,.58-.14l-3.74,1.72a.23.23,0,0,0-.13.11.17.17,0,0,0,0,.1.19.19,0,0,0,.08.07h.06a.41.41,0,0,0,.1,0l3.76-1.39a4.71,4.71,0,0,0-.41.35,2.63,2.63,0,0,1-1,.65,2.28,2.28,0,0,0-1.19.89,2.19,2.19,0,0,1-.23.26.65.65,0,0,1-.4.14c-.08,0-.18,0-.18.11a.16.16,0,0,0,.08.13.81.81,0,0,0,.76-.12,1.52,1.52,0,0,0,.35-.31,2.22,2.22,0,0,1,1.09-.67,2.82,2.82,0,0,0,1-.62,3,3,0,0,1,.48-.36l-2.8,3a.17.17,0,0,0,0,.24A.12.12,0,0,0,35,32a.23.23,0,0,0,.15-.07l2.94-2.72c-.09.16-.17.32-.24.47a2.63,2.63,0,0,1-.65,1A2.32,2.32,0,0,0,36.41,32a2.33,2.33,0,0,1-.11.32.56.56,0,0,1-.31.28c-.08,0-.16.08-.13.18a.15.15,0,0,0,.12.09.82.82,0,0,0,.66-.4,1.5,1.5,0,0,0,.21-.42,2.07,2.07,0,0,1,.74-1,2.74,2.74,0,0,0,.74-1,2.32,2.32,0,0,1,.31-.51L37.2,33.33c0,.09,0,.2.07.24h.1a.24.24,0,0,0,.1-.12l1.68-3.65c0,.18,0,.36,0,.54a2.56,2.56,0,0,1-.23,1.14A2.39,2.39,0,0,0,38.67,33a1.42,1.42,0,0,1,0,.34.59.59,0,0,1-.18.38c0,.06-.12.14,0,.21a.17.17,0,0,0,.15,0,.82.82,0,0,0,.45-.63,1.26,1.26,0,0,0,0-.47,2.07,2.07,0,0,1,.3-1.23,2.83,2.83,0,0,0,.3-1.19,2.49,2.49,0,0,1,.09-.59l.15,4.11c0,.1,0,.2.15.2s.15-.1.15-.19l.15-4c0,.17.11.34.17.51a2.67,2.67,0,0,1,.23,1.14A2.25,2.25,0,0,0,41.15,33a2.82,2.82,0,0,1,.15.31.64.64,0,0,1,0,.42c0,.07-.06.17,0,.21h0a.14.14,0,0,0,.09,0,.8.8,0,0,0,.19-.74,1.83,1.83,0,0,0-.15-.45,2.19,2.19,0,0,1-.21-1.26,2.65,2.65,0,0,0-.17-1.21A3.28,3.28,0,0,1,41,29.7l1.72,3.75s0,.09.11.12h.1a.16.16,0,0,0,.09-.15c0-.05,0-.08,0-.09l-1.4-3.75.35.4a2.41,2.41,0,0,1,.65,1,2.34,2.34,0,0,0,.9,1.19,3.46,3.46,0,0,1,.26.23.67.67,0,0,1,.14.4c0,.08,0,.18.11.18h0a.13.13,0,0,0,.12-.08.77.77,0,0,0-.11-.76,1.52,1.52,0,0,0-.31-.35A2.22,2.22,0,0,1,43,30.67a2.82,2.82,0,0,0-.62-1.05,2.51,2.51,0,0,1-.36-.48l3,2.8a.23.23,0,0,0,.15.07.12.12,0,0,0,.09,0,.1.1,0,0,0,0-.09.23.23,0,0,0-.07-.15l-2.73-2.94q.24.13.48.24a2.52,2.52,0,0,1,1,.65,2.31,2.31,0,0,0,1.29.76,2.33,2.33,0,0,1,.32.11.61.61,0,0,1,.28.31c0,.07.07.14.14.14h0a.14.14,0,0,0,.08-.12.81.81,0,0,0-.39-.66A2.13,2.13,0,0,0,45.3,30a2.06,2.06,0,0,1-1-.74,2.83,2.83,0,0,0-1-.74,2.71,2.71,0,0,1-.51-.3l3.86,1.43a.24.24,0,0,0,.16,0,.1.1,0,0,0,.07-.07.09.09,0,0,0,0-.1.19.19,0,0,0-.12-.11L43.11,27.7a3.23,3.23,0,0,0,.53,0,2.57,2.57,0,0,1,1.15.23,2.37,2.37,0,0,0,1.48.21,2.18,2.18,0,0,1,.34,0,.59.59,0,0,1,.38.18.23.23,0,0,0,.14.08.11.11,0,0,0,.07,0,.13.13,0,0,0,0-.14c0-.16-.25-.37-.62-.46a1.51,1.51,0,0,0-.47,0,2.14,2.14,0,0,1-1.24-.29,2.83,2.83,0,0,0-1.18-.31,3.19,3.19,0,0,1-.6-.08l4.12-.16a.21.21,0,0,0,.16-.05.17.17,0,0,0,0-.1A.14.14,0,0,0,47.4,26.68Zm-.82,1.22c.34.09.5.26.53.36s0,0,0,0l-.06-.05a.79.79,0,0,0-.45-.21l-.36,0a2.23,2.23,0,0,1-1.42-.19,2.54,2.54,0,0,0-1.19-.24,4.25,4.25,0,0,1-.69-.07s0-.08,0-.12c.7.13,1.23-.06,1.88.31-.48-.42-1.09-.23-1.86-.46,0,0,0-.08,0-.12a2.75,2.75,0,0,0,.67.11,2.58,2.58,0,0,1,1.14.29,2.21,2.21,0,0,0,1.3.31A1.25,1.25,0,0,1,46.58,27.9Zm.19,1.64s-.07,0-.09,0l-3.92-1.45.06-.11,1.81.68-1.76-.81,0-.11,3.81,1.74S46.78,29.52,46.77,29.54Zm-1.51.57a1.84,1.84,0,0,1,.4.19.75.75,0,0,1,.35.53.2.2,0,0,1,0,.05.24.24,0,0,1,0-.07.71.71,0,0,0-.34-.36,1.65,1.65,0,0,0-.34-.12,2.3,2.3,0,0,1-1.23-.72,2.58,2.58,0,0,0-1-.68,5.15,5.15,0,0,1-.61-.33l.08-.1c.59.39,1.16.42,1.62,1-.28-.57-.92-.63-1.54-1.13l.06-.11a2.77,2.77,0,0,0,.58.36,2.6,2.6,0,0,1,.94.71A2.26,2.26,0,0,0,45.26,30.11Zm-1.38,2.06a.73.73,0,0,1,.12.62s0,0,0,.05a.25.25,0,0,0,0-.08.65.65,0,0,0-.17-.47,2.36,2.36,0,0,0-.27-.24,2.19,2.19,0,0,1-.85-1.13,2.62,2.62,0,0,0-.68-1,4,4,0,0,1-.44-.54l.11-.06c.4.59.91.83,1.11,1.55,0-.63-.6-.92-1-1.63l.09-.07a2.88,2.88,0,0,0,.4.55,2.69,2.69,0,0,1,.6,1,2.16,2.16,0,0,0,.7,1.13A1.53,1.53,0,0,1,43.88,32.17Zm-1,1.29s-.05-.05-.06-.06l-1.74-3.8.1,0L42,31.32l-.67-1.81.1-.06,1.46,3.93S42.87,33.45,42.85,33.46Zm-1.49.41,0-.08a.77.77,0,0,0,0-.49,2,2,0,0,0-.16-.33,2.19,2.19,0,0,1-.36-1.38,2.61,2.61,0,0,0-.23-1.19,4.38,4.38,0,0,1-.21-.67h.13c.15.7.52,1.12.43,1.86.21-.61-.2-1.09-.28-1.89l.13,0a2.74,2.74,0,0,0,.14.67,2.73,2.73,0,0,1,.17,1.17,2.18,2.18,0,0,0,.21,1.31,1.17,1.17,0,0,1,.14.41.74.74,0,0,1-.12.63ZM40.08,34s0-.06,0-.08l-.16-4.18H40l.08,1.94.07-1.94h.12l-.16,4.18S40.1,34,40.08,34Zm-.51-3.61a2.58,2.58,0,0,1-.29,1.14,2.31,2.31,0,0,0-.31,1.3,1.25,1.25,0,0,1,0,.43c-.09.35-.26.5-.35.53l-.05,0,.05-.06a.73.73,0,0,0,.21-.45,2.43,2.43,0,0,0,0-.36,2.21,2.21,0,0,1,.2-1.41,2.57,2.57,0,0,0,.23-1.2,5.76,5.76,0,0,1,.07-.69l.13,0c-.14.7,0,1.23-.32,1.88.42-.48.23-1.08.46-1.85h.12A3.34,3.34,0,0,0,39.57,30.4Zm-2.26,3.06s0-.07,0-.09l1.45-3.92.11.06-.68,1.81L39,29.56l.11,0-1.74,3.8A.12.12,0,0,1,37.31,33.46ZM36.74,32a1.47,1.47,0,0,1-.19.4.75.75,0,0,1-.53.35H36l.07,0a.72.72,0,0,0,.36-.33,2.23,2.23,0,0,0,.12-.34,2.26,2.26,0,0,1,.72-1.23,2.72,2.72,0,0,0,.69-1,4.47,4.47,0,0,1,.32-.61l.1.08c-.39.6-.42,1.16-1,1.62.57-.28.63-.91,1.14-1.53l.1.05a2.77,2.77,0,0,0-.36.58,2.59,2.59,0,0,1-.7.94A2.23,2.23,0,0,0,36.74,32ZM35,30.28a1.32,1.32,0,0,1-.33.29.79.79,0,0,1-.62.13s0,0,0,0h.07a.75.75,0,0,0,.47-.17,2.27,2.27,0,0,0,.24-.27,2.19,2.19,0,0,1,1.13-.86,2.62,2.62,0,0,0,1-.68,6.06,6.06,0,0,1,.54-.44l.06.11c-.59.4-.83.91-1.55,1.11.63,0,.92-.6,1.63-1l.07.09a3.39,3.39,0,0,0-.55.4,2.57,2.57,0,0,1-1,.6A2.16,2.16,0,0,0,35,30.28Zm-1.56-.8,3.8-1.74s0,.07,0,.11l-1.76.8L37.34,28l.06.11-3.93,1.45a.07.07,0,0,1-.08,0S33.44,29.49,33.45,29.48Zm.6-1.41a1.44,1.44,0,0,1-.41.15A.77.77,0,0,1,33,28.1s0,0,0,0l.08,0a.71.71,0,0,0,.49,0,1.64,1.64,0,0,0,.33-.16,2.25,2.25,0,0,1,1.38-.36,2.53,2.53,0,0,0,1.2-.23,4.24,4.24,0,0,1,.66-.2.62.62,0,0,0,0,.13c-.7.14-1.11.52-1.85.43.6.2,1.08-.21,1.88-.29a.5.5,0,0,0,0,.13,3.3,3.3,0,0,0-.67.14,2.56,2.56,0,0,1-1.16.17A2.32,2.32,0,0,0,34.05,28.07Zm-.47-2.43a.72.72,0,0,1-.53-.35s0,0,0-.05l.06.05a.73.73,0,0,0,.45.21,2.43,2.43,0,0,0,.36,0,2.21,2.21,0,0,1,1.41.2,2.74,2.74,0,0,0,1.2.24,5.68,5.68,0,0,1,.69.06c0,.05,0,.09,0,.13-.7-.14-1.23.05-1.88-.31.48.42,1.09.22,1.85.46a.45.45,0,0,1,0,.11,3.34,3.34,0,0,0-.67-.11A2.45,2.45,0,0,1,35.31,26a2.27,2.27,0,0,0-1.3-.3A1.56,1.56,0,0,1,33.58,25.64ZM33.39,24s.07,0,.09,0l3.92,1.46-.06.1-1.81-.68,1.76.81a.56.56,0,0,1,0,.12l-3.8-1.75S33.38,24,33.39,24Zm1.51-.57a1.47,1.47,0,0,1-.4-.19.75.75,0,0,1-.35-.53s0,0,0-.05l0,.07a.78.78,0,0,0,.33.37l.35.11a2.2,2.2,0,0,1,1.22.73,2.69,2.69,0,0,0,1,.68,4.47,4.47,0,0,1,.61.32.87.87,0,0,1-.08.1c-.6-.39-1.16-.42-1.62-1,.28.57.92.62,1.54,1.13a.53.53,0,0,0-.06.1,2.77,2.77,0,0,0-.58-.36,2.68,2.68,0,0,1-.94-.7A2.23,2.23,0,0,0,34.9,23.43Zm1.38-2.05a.81.81,0,0,1-.13-.63l0,0a.2.2,0,0,0,0,.07.7.7,0,0,0,.17.47,1.31,1.31,0,0,0,.27.24,2.28,2.28,0,0,1,.86,1.14,2.39,2.39,0,0,0,.67,1,4.7,4.7,0,0,1,.44.54l-.11.06c-.4-.59-.91-.83-1.11-1.55,0,.64.6.93,1,1.63l-.09.08a2.6,2.6,0,0,0-.4-.55,2.66,2.66,0,0,1-.6-1,2.26,2.26,0,0,0-.7-1.13A1.47,1.47,0,0,1,36.28,21.38Zm1-1.3s0,.05.06.06L39.11,24,39,24l-.8-1.76L38.87,24l-.11.06-1.45-3.92S37.29,20.09,37.31,20.08Zm1.49-.4a.24.24,0,0,0,0,.07.77.77,0,0,0,0,.49,1.64,1.64,0,0,0,.16.33A2.35,2.35,0,0,1,39.27,22a2.63,2.63,0,0,0,.23,1.2,4.62,4.62,0,0,1,.21.66l-.13,0c-.15-.7-.52-1.12-.43-1.86-.21.6.2,1.08.28,1.88l-.13,0a2.84,2.84,0,0,0-.14-.67A2.71,2.71,0,0,1,39,22.06a2.32,2.32,0,0,0-.21-1.32,1.11,1.11,0,0,1-.14-.41.7.7,0,0,1,.12-.62Zm1.28-.15s0,.07,0,.08l.16,4.18h-.12l-.07-1.93L40,23.78h-.12l.16-4.18S40.05,19.53,40.08,19.53Zm.51,3.61A2.58,2.58,0,0,1,40.88,22a2.18,2.18,0,0,0,.3-1.3,1.56,1.56,0,0,1,0-.43.75.75,0,0,1,.35-.53l0,0,0,.07a.67.67,0,0,0-.21.44,2.56,2.56,0,0,0,0,.37A2.27,2.27,0,0,1,41.18,22a2.55,2.55,0,0,0-.25,1.19,4,4,0,0,1-.06.69l-.13,0c.14-.69-.05-1.22.31-1.87-.41.48-.22,1.08-.46,1.85h-.11A3.43,3.43,0,0,0,40.59,23.14Zm2.26-3.06s0,.08,0,.09L41.4,24.09,41.29,24,42,22.22,41.16,24l-.11,0,1.74-3.81S42.83,20.07,42.85,20.08Zm.57,1.51a1.41,1.41,0,0,1,.19-.39c.21-.29.42-.37.53-.36h0l-.07,0a.71.71,0,0,0-.36.34,1.9,1.9,0,0,0-.12.34,2.3,2.3,0,0,1-.72,1.23,2.51,2.51,0,0,0-.69,1,4.57,4.57,0,0,1-.32.62l-.1-.09c.39-.59.42-1.16,1-1.62-.58.29-.63.92-1.14,1.54l-.1-.06a2.77,2.77,0,0,0,.36-.58,2.68,2.68,0,0,1,.7-.94A2.23,2.23,0,0,0,43.42,21.59Zm1.73,1.67a1.32,1.32,0,0,1,.33-.29.73.73,0,0,1,.62-.12l0,0h-.07a.75.75,0,0,0-.47.17,1.68,1.68,0,0,0-.24.27,2.24,2.24,0,0,1-1.14.86,2.56,2.56,0,0,0-1,.67,4.77,4.77,0,0,1-.54.45l-.06-.12c.59-.4.83-.91,1.55-1.11-.63,0-.93.61-1.63,1L42.45,25a2.29,2.29,0,0,0,.55-.4,3,3,0,0,1,1-.6A2.15,2.15,0,0,0,45.15,23.26Zm1.62.74s-.05.06-.06.06L42.9,25.81l0-.11,1.76-.81-1.81.68-.06-.11L46.68,24S46.76,24,46.77,24Zm-.66,1.47a1.32,1.32,0,0,1,.41-.14.73.73,0,0,1,.62.12l0,0-.08,0a.77.77,0,0,0-.49,0,2.45,2.45,0,0,0-.33.16A2.21,2.21,0,0,1,44.9,26a2.56,2.56,0,0,0-1.2.24,5.7,5.7,0,0,1-.66.2.57.57,0,0,1,0-.13c.7-.14,1.11-.52,1.85-.43-.6-.21-1.08.2-1.88.28,0,0,0-.08,0-.13a2.74,2.74,0,0,0,.67-.14,2.71,2.71,0,0,1,1.16-.17A2.23,2.23,0,0,0,46.11,25.47Zm-3.84,3.09,0,0,0,0,0,0-.08.09a.57.57,0,0,1-.11.11.31.31,0,0,1-.09.07s0,0,0,0l0,0,0,0-.09.07-.14.1-.12.06,0,0h0l0,0h0a.6.6,0,0,1-.11.06l-.14.06-.11,0-.06,0h-.08l-.12,0-.16,0-.14,0h-.8l-.17,0-.13,0h-.14l-.12,0-.14-.06-.1-.06,0,0,0,0-.05,0-.1-.05-.15-.09-.1-.09,0,0,0,0,0,0h0l0,0-.09-.07L38,28.72,38,28.63l0-.05,0,0,0,0a3.51,3.51,0,0,1-.17-.23l-.06-.12,0,0v0l0,0v0a.39.39,0,0,1-.06-.11l-.06-.14,0-.11s0,0,0-.05v0s0,0,0-.06a.49.49,0,0,1,0-.11l0-.17s0-.09,0-.13V27s0-.08,0-.12,0-.05,0-.08,0-.05,0-.08,0-.07,0-.11v-.15a.49.49,0,0,0,0-.12l0-.16s0-.09,0-.13v-.15l0-.11.06-.15.06-.1s0,0,0-.05l0,0,0-.05s0-.07.05-.1a.71.71,0,0,1,.1-.14.76.76,0,0,1,.08-.11l0,0,0,0,0,0,0,0,0,0a.39.39,0,0,1,.08-.1l.1-.11.09-.07.05,0,0,0,.05,0,.09-.08.14-.09.12-.07h0l0,0h0l0,0,.11-.06.14-.05.11,0,.06,0h0l.06,0,.12,0,.16,0h.94l.17,0,.13,0H41l.12,0,.14.05.1.06,0,0h0l0,0,.1.06.15.09.1.09,0,0h0l0,0,0,0,0,0,.09.08.11.11.07.09,0,0,0,0,0,.05.07.09.1.14.06.12,0,0v.05l0,0v0l.06.11.06.14,0,.11s0,0,0,.06v0a.43.43,0,0,1,0,.05l0,.12,0,.16a.66.66,0,0,1,0,.14v.15s0,.08,0,.12,0,.05,0,.07,0,.05,0,.08,0,.08,0,.12a.13.13,0,0,1,0,.06v0a.13.13,0,0,1,0,.06.49.49,0,0,1,0,.12,1,1,0,0,1,0,.17.93.93,0,0,1,0,.13v.14a.56.56,0,0,1,0,.12l0,.14-.06.1,0,0v0l0,.05-.06.11s0,.09-.09.14a.87.87,0,0,1-.08.1l0,0Zm2.9-6.83L42.32,24.8l-.07-.09,1.31-1.42-1.41,1.32-.1-.08,3.07-2.84a.08.08,0,0,1,.08,0S45.17,21.72,45.17,21.73ZM38,24.61,36.6,23.29l1.32,1.42a.73.73,0,0,0-.08.09L35,21.73s-.05-.06,0-.08.07,0,.08,0l3.07,2.84Zm-.92,2s0,.08,0,.12l-1.94.07,1.94.07s0,.08,0,.12l-4.18-.16s-.08,0-.08,0,.07,0,.08,0ZM35,31.81l2.85-3.07.07.09-1.32,1.42L38,28.93l.1.08L35,31.86s-.06.05-.08,0S35,31.82,35,31.81Zm7.15-2.87,1.42,1.32-1.32-1.42.08-.1,2.85,3.07s0,.06,0,.08-.07,0-.08,0L42.05,29Zm.92-2s0-.08,0-.11L45,26.77l-1.93-.07s0-.08,0-.12l4.18.16a.13.13,0,0,1,.08,0s-.07,0-.08,0Z"/><path class="cls-5" d="M41.76,26.33a.22.22,0,0,0-.08-.09.77.77,0,0,0-.24-.16.53.53,0,0,0-.12,0H41a.58.58,0,0,0-.21,0h0l-.08.05-.09.07h0a.32.32,0,0,1-.13.08h-.09v0l0,0h0a0,0,0,0,0,0,0h0l0,0,.1-.07.05,0,0,0,0,0,0,0a.37.37,0,0,1,.22-.08h.23l.07,0h.06a.87.87,0,0,1,.29.15l.1.08.06,0h0S41.78,26.36,41.76,26.33Z"/><polygon class="cls-5" points="41.92 26.14 41.92 26.14 41.92 26.14 41.92 26.14"/><path class="cls-5" d="M41.76,26l-.11-.09,0,0s0,0,0,0h0l0,0-.06,0-.11,0a.75.75,0,0,0-.29-.06h-.23l-.08,0h-.06l-.07,0-.15.07-.06,0,0,0-.07,0s0,0,0,0l0,.08v.07h0a.24.24,0,0,1,0,.08h0a.28.28,0,0,0,0,.09h0v0h0s0,0,0,.07h0v.05h0v0h0v0h0s0,0,0,.06h0v.07h0v0h0s0,0,0,0h0a0,0,0,0,1,0,0h0v0h0v0h0s0,0,0,0h0V27h0l0,0h0l0,0h0s0,0,0,.05h0v0l.05,0h0s0,0,0,0v0h0v0h0l0,0v0h0s0,0,0,0h0l0-.07h0v0s0,0,0,0h0s0,0,0,0v0h0v-.07h0v0a.15.15,0,0,1,0-.07s0,0,0,0h0v0h0v0h0v0h0s0,0,0-.06h0s0-.05,0-.08h0l.08-.15h0l0-.06h0s0,0,.05,0h0l.16-.08.06,0,.09,0h.13a1.27,1.27,0,0,1,.33,0l.13,0h.06l.06,0h0l.06,0a.57.57,0,0,1,.13.08,1.82,1.82,0,0,1,.23.15h0A1.43,1.43,0,0,0,41.76,26Z"/><path class="cls-5" d="M40.89,26.43h0s0,0,0,0a0,0,0,0,1,0,0,.2.2,0,0,0,.08,0h0l.06,0a.18.18,0,0,0,.09,0l0,0s0,0,0-.05h0s0,0,0-.05v0a.19.19,0,0,0-.1-.16H41a.18.18,0,0,0-.12.05s0,0,0,.05,0,0,0,.09h0S40.88,26.41,40.89,26.43Z"/><path class="cls-5" d="M41.27,26.62l-.09,0h-.11a.73.73,0,0,1-.22,0H40.8l0,0h0l-.05,0-.07,0,0,0h0l-.05,0h0s0,0,0,0h0l0,0h0l0,0h0l.05,0,0,0h0l0,0h0l.06,0h0l.18,0H41a.78.78,0,0,0,.21,0,.58.58,0,0,0,.16-.05.81.81,0,0,0,.18-.1h0l0,0-.07,0Z"/><path class="cls-5" d="M40,27.45l0,0h0l0,0s0-.05,0-.07h0a0,0,0,0,0,0,0,.13.13,0,0,1-.06.07l-.05,0h0a.05.05,0,0,1,0,0h0l0,0s0,0,0,0,0,0,0,0v0h0a.11.11,0,0,1,.05-.09l0,0,0,0-.08,0s0,.05,0,.07a.14.14,0,0,0,0,.07h0s0,0,0,.05a0,0,0,0,1,0,0s0,0,0,.06,0,0,.07,0l.06,0h0l.06,0,.06,0a0,0,0,0,1,0,0h0l0,0,0,0h0l0,0h.25l.05,0,0,0h0s0,0,.06,0l.06,0s0,0,0,0h0l.05,0,.07,0,0,0s0,0,0,0,0,0,0,0,0,0,0,0a0,0,0,0,1,0,0s0,0,0-.06a.23.23,0,0,0-.07-.1l-.08,0a.14.14,0,0,1,.09.13h0a.08.08,0,0,1,0,.05h0l0,.05-.07,0h0l0,0-.06,0,0-.07s0,0,0,0h0l0,.06-.05,0,0,0h-.15l-.08,0,0,0Z"/><path class="cls-5" d="M40.46,27.81H40.4l-.06,0h0l-.08,0h0l-.06,0,0,0h-.06l0,0-.06,0h0l-.08,0h0l-.05,0H39.7a1.53,1.53,0,0,0-.29.24l-.07.06.06,0,.29-.19H40l.05,0h.12l0,0h.21l.05,0h0l.29.18.07,0-.08-.06A2,2,0,0,0,40.46,27.81Z"/><path class="cls-5" d="M40.75,28.11a1.36,1.36,0,0,0-.29-.06h-.25l-.13,0h0l-.13,0h-.26a1.29,1.29,0,0,0-.28.06h0a.5.5,0,0,1,.24.09l.09.09h0l0,0,0,0h0l0,0,.12,0h.23l.13,0,0,0h0s0,0,0,0l0,0h0a.38.38,0,0,1,.09-.09.42.42,0,0,1,.23-.09h0Zm-.24,0-.07.05,0,0,0,0h0l0,0h0a.33.33,0,0,1-.12.05H40a.28.28,0,0,1-.11-.05h0a.1.1,0,0,1-.05,0h0l0,0,0,0-.08-.05a.41.41,0,0,0-.22,0l.25,0h.19l.06,0h0l.13,0h0l.13,0h0l.06,0h.18l.26,0A.63.63,0,0,0,40.51,28.15Z"/><path class="cls-5" d="M40.37,28.56l-.06,0a.23.23,0,0,0-.12-.06.2.2,0,0,0-.11,0,.27.27,0,0,0-.12,0,.24.24,0,0,0-.11.06s-.05,0-.06,0l-.06.08a.46.46,0,0,0,0,.2.58.58,0,0,1,0-.14l.06-.06.06-.05.11-.05.12,0,.11,0,.12.05.06.05.05.06a.35.35,0,0,1,.06.14.46.46,0,0,0,0-.2Z"/><path class="cls-5" d="M38.62,25.91l.06,0h.13l.13,0,.32,0h.2s0,0,.08,0l.12.07,0,0,.06,0,0,0,0,0a.56.56,0,0,0,0,.08l0,.09,0,.05v0h0v0a.43.43,0,0,0,0,.05h0v0h0v0h0v0h0v0h0v0s0,0,0,.06v0h0a.11.11,0,0,0,0,.05h0l0,0h0v0h0v0l0,.07v0h0v0l0,0v0h0s0,0,0,0l0,0v0h0l0,0s0,0,0,0h0s0,0,0-.06h0s0,0,0-.05h0v0h0v0h0s0,0,0-.05h0a.08.08,0,0,0,0-.05h0s0,0,0,0h0s0,0,0,0h0a0,0,0,0,1,0,0h0v0h0a.16.16,0,0,0,0-.07h0s0,0,0,0,0,0,0,0h0s0,0,0,0h0s0,0,0-.05h0v0h0v0h0v-.06h0v-.08h0v-.11s0,0,0-.05h0A.64.64,0,0,0,40,26l0-.09v0l-.06,0-.06,0-.05,0-.06,0-.17-.08h0l-.08,0-.07,0h-.22a1,1,0,0,0-.29.06l-.11,0-.06,0,0,0,0,0,0,0-.06,0-.09.09a.93.93,0,0,0-.16.18h0L38.5,26Z"/><path class="cls-5" d="M38.85,26.12H39l.06,0h.17a.47.47,0,0,1,.2.06l.08,0h0l.09.06v0l.1.06s0,0,.06,0h0s0,0,0,0a0,0,0,0,0,0,0l0,0h-.06l-.09-.05,0,0,0,0-.08-.06,0,0-.05,0-.1,0-.14,0h-.07L39,26h-.14l-.09,0a1.08,1.08,0,0,0-.25.16.31.31,0,0,0-.08.1s0,.05,0,.05,0,0,.06,0l.1-.09A1.3,1.3,0,0,1,38.85,26.12Z"/><path class="cls-5" d="M39.18,26.21l-.06,0H39l0,0h0a.2.2,0,0,0-.09.16l0,0s0,0,0,0,0,0,0,0,0,0,0,.05a.25.25,0,0,0,.09,0l0,0h0l0,0,.06,0s0,0,0,0,0,0,0,0l0,0v0s0,0,0,0a0,0,0,0,1,0,0,0,0,0,0,0,0,0,.19.19,0,0,0,0-.09A.13.13,0,0,0,39.18,26.21Z"/><path class="cls-5" d="M39.44,26.67h0l0,0h.09l0,0h0l0,0h0l0-.06h0s0,0,0,0h-.11l0,0-.07,0,0,0h0l-.07,0h0a.83.83,0,0,1-.24,0l-.12,0-.1,0-.27-.08-.07,0h0l0,0,.11.06.08.05.11,0a.79.79,0,0,0,.24.05h.13l.17,0Z"/></g></g></g></g></svg>