<svg xmlns="http://www.w3.org/2000/svg" viewBox="0 0 79.83 54.06"><defs><style>.cls-1{fill:#003876;}.cls-2{fill:#fff;fill-rule:evenodd;}.cls-3{fill:#ca202b;}</style></defs><title>Australia</title><g id="Layer_2" data-name="Layer 2"><g id="flags"><g id="group_c" data-name="group c"><g id="australia"><rect class="cls-1" width="79.83" height="54.06"/><polygon class="cls-2" points="41 0 40.26 0 24.74 7.75 24.74 0 15.67 0 15.67 7.75 0.14 0 0 0 0 6.56 4.49 8.82 0 8.82 0 17.93 4.49 17.93 0 20.19 0 26.83 15.67 19 15.67 27.05 24.74 27.05 24.74 19 40.85 27.05 41 27.05 41 20.48 35.92 17.93 41 17.93 41 8.82 35.92 8.82 41 6.28 41 0"/><polygon class="cls-3" points="0 3.22 0 5.41 6.81 8.82 11.2 8.82 0 3.22"/><polygon class="cls-3" points="0 25.71 15.52 17.93 11.16 17.93 0 23.53 0 25.71"/><polygon class="cls-3" points="22.93 0 17.6 0 17.6 10.71 0 10.71 0 16.05 17.6 16.05 17.6 27.05 22.93 27.05 22.93 16.05 41 16.05 41 10.71 22.93 10.71 22.93 0"/><polygon class="cls-3" points="29.34 17.93 41 23.79 41 21.6 33.72 17.93 29.34 17.93"/><polygon class="cls-3" points="29.36 8.82 41 2.97 41 0.81 25.01 8.82 29.36 8.82"/><path class="cls-2" d="M19.83,31.84l1.71,5.75,5.56-2.25-3.43,4.93,5.22,2.94-6,.39.95,5.92-4-4.44-4,4.44,1-5.92-6-.39L16,40.27l-3.42-4.93,5.55,2.25,1.7-5.75ZM50.07,19.47l.62,2.09,2-.82-1.25,1.78,1.9,1.07-2.17.15.35,2.14-1.47-1.61-1.46,1.61L49,23.74l-2.17-.15,1.89-1.07-1.24-1.78,2,.82.61-2.09Zm19.14,6.31.51,1.58h1.65l-1.34,1,.51,1.57-1.33-1-1.34,1,.52-1.57-1.34-1H68.7l.51-1.58ZM63.05,6.45l.62,2.09,2-.82L64.44,9.51l1.89,1.07-2.16.14.34,2.15-1.46-1.62-1.46,1.62.35-2.15-2.17-.14,1.89-1.07L60.42,7.72l2,.82.62-2.09Zm11.19,9.8.62,2.09,2-.82-1.25,1.79,1.89,1.07-2.16.14.35,2.15-1.47-1.62-1.46,1.62.35-2.15L71,20.38l1.89-1.07-1.24-1.79,2,.82.62-2.09ZM63,40.19l.62,2.09,2-.82-1.24,1.79,1.89,1.07-2.17.14.35,2.15L63,45l-1.46,1.62.34-2.15-2.16-.14,1.89-1.07-1.24-1.79,2,.82Z"/></g></g></g></g></svg>