<svg xmlns="http://www.w3.org/2000/svg" viewBox="0 0 80 54"><defs><style>.cls-1,.cls-5{fill:#219256;}.cls-2{fill:#f8e334;}.cls-3{fill:#042c81;}.cls-4{fill:#fff;}.cls-5{fill-rule:evenodd;}</style></defs><title>Brazil</title><g id="Layer_2" data-name="Layer 2"><g id="flags"><g id="group_e" data-name="group e"><g id="brazil"><rect class="cls-1" width="80" height="54"/><polygon class="cls-2" points="6.03 26.96 39.64 48.42 73.25 26.96 39.64 5.5 6.03 26.96"/><path class="cls-3" d="M53.81,27A14.17,14.17,0,1,1,39.64,12.79,14.18,14.18,0,0,1,53.81,27Z"/><path class="cls-4" d="M26.68,21.23a13.6,13.6,0,0,0-.76,2.17,32.41,32.41,0,0,1,27.25,7.79,14.87,14.87,0,0,0,.5-2.24,34.26,34.26,0,0,0-22.13-8.06A35.42,35.42,0,0,0,26.68,21.23Z"/><path class="cls-5" d="M34.43,22.28l-.19-1-.33,0-.12,1.35.23,0,.08-.92.19.94.21,0,.35-.9-.08.93H35l.12-1.34-.34,0ZM32.33,22l.77,0v-.23l-.77,0v-.28l.93,0v-.25l-1.15,0-.05,1.34,1.21.05v-.25l-1,0ZM31,21.23h-.64l0,1.35H31a.59.59,0,0,0,.57-.59V21.8A.57.57,0,0,0,31,21.23Zm0,1.1h-.37v-.85H31a.37.37,0,0,1,.37.36V22A.37.37,0,0,1,31,22.33Zm-3.59-.85a.64.64,0,0,0-.52.75.61.61,0,1,0,1.2-.15A.64.64,0,0,0,27.39,21.48Zm.13,1.09a.43.43,0,1,1,.3-.46A.38.38,0,0,1,27.52,22.57Zm2.28-.88a.42.42,0,0,0-.45-.39l-.77.05.07,1.35.25,0,0-.5.53,0a.79.79,0,0,1,.17.49h.23c0-.15,0-.44-.18-.55A.43.43,0,0,0,29.8,21.69Zm-.43.2-.52,0,0-.34.53,0,.18.16Zm23.39,6.75a.64.64,0,0,0-.9.15.61.61,0,1,0,1,.75A.64.64,0,0,0,52.76,28.64Zm-.14.75a.4.4,0,0,1-.55.1.39.39,0,0,1,0-.55.4.4,0,0,1,.54-.11A.41.41,0,0,1,52.62,29.39Zm-5.71-4.5-.69-.35-.62,1.2.23.12.22-.45.48.24a.73.73,0,0,1-.11.5l.21.11c.07-.14.2-.4.13-.57a.41.41,0,0,0,.34-.23A.42.42,0,0,0,46.91,24.89Zm0,.45-.23.08-.47-.24.16-.31.46.24Zm-3.38-2a.66.66,0,0,0-.81.42.65.65,0,0,0,.33.85.64.64,0,0,0,.81-.42A.65.65,0,0,0,43.48,23.38Zm.09.76a.36.36,0,1,1-.66-.25.36.36,0,1,1,.66.25Zm5.11,2,.12-.23-1-.56-.66,1.17,1.06.6.12-.22-.86-.48.18-.31.67.38.11-.2-.67-.38.13-.23Zm-3.55-2.09a.68.68,0,0,0-.54,1.24.57.57,0,0,0,.46,0l-.08.17.18.07.27-.62A.64.64,0,0,0,45.13,24.05Zm.06.76-.24-.1-.08.18.21.09a.36.36,0,0,1-.39.08.39.39,0,0,1-.15-.53.39.39,0,0,1,.49-.25A.4.4,0,0,1,45.19,24.81ZM42,22.86l-.73-.23-.43,1.28L41,24l.16-.47.51.16a.73.73,0,0,1,0,.51l.22.07c0-.14.13-.42,0-.58a.42.42,0,0,0,0-.81Zm0,.45-.21.11-.5-.15.1-.33.5.15Zm9.4,4.29c-.14-.11-.51-.39-.76-.06s.55.77.39,1c0,.07-.16.07-.32,0s-.22-.24-.14-.35L50.3,28c-.2.28.07.57.25.7s.53.3.74,0-.54-.79-.41-1,.18-.07.31,0,.2.21.12.33l.24.17A.45.45,0,0,0,51.38,27.6ZM36.59,23l1,.18,0-.23-.77-.14,0-.3.63.11,0-.23-.63-.11L37,22l.75.13,0-.23-1-.16ZM49.9,26.6c-.15-.1-.53-.37-.76,0s.59.74.44,1c0,.07-.15.08-.32,0s-.23-.24-.16-.35L48.84,27c-.18.28.1.56.29.68s.54.27.74,0-.58-.75-.46-.94.18-.08.31,0,.21.2.13.32l.25.16A.44.44,0,0,0,49.9,26.6Zm-9.65-4.24-.74-.19-.36,1.3.24.06.13-.49.52.14a.42.42,0,1,0,.21-.82Zm0,.45-.21.12-.5-.13.09-.33.5.13Z"/><polygon class="cls-4" points="44.26 22.64 44.61 22.38 44.17 22.38 44.03 21.96 43.9 22.38 43.46 22.38 43.82 22.64 43.68 23.06 44.03 22.8 44.39 23.06 44.26 22.64"/><polygon class="cls-4" points="43.64 26.3 43.88 26.13 43.59 26.13 43.5 25.84 43.41 26.13 43.11 26.13 43.35 26.3 43.26 26.58 43.5 26.4 43.73 26.58 43.64 26.3"/><path class="cls-4" d="M28.21,24.23l-.14-.42-.14.42h-.44l.36.26-.14.42.36-.26.36.26-.14-.42.36-.26Zm1.25,6-.14-.42-.13.42h-.44l.35.26-.13.42.35-.26.36.26-.14-.42.36-.26Zm-1.78,1.33-.09-.28-.09.28h-.3l.24.18-.09.28.24-.18.24.18-.09-.28.23-.18Zm3.1-2.1-.07-.2-.06.2h-.21l.17.12-.07.2.17-.12.17.12-.06-.2.17-.12Zm1.61,2.21-.12-.35-.11.35h-.37l.3.21-.11.35.29-.21.3.21-.11-.35.3-.21ZM32,33l-.11-.35-.12.35h-.36l.3.22-.12.35.3-.21.3.21L32,33.25l.3-.22Zm17.25-.6.36-.26.36.26L49.79,32l.36-.26h-.44l-.14-.42-.14.42H49l.36.26ZM51.92,32h-.29l-.09-.28-.1.28h-.29l.24.17-.09.28.24-.17.23.17-.09-.28ZM50.26,33l-.11-.35L50,33h-.37l.29.22-.11.35.3-.21.3.21-.12-.35.3-.22Zm-3.53,2.62-.11.35h-.36l.29.22-.11.35.29-.22.3.22-.11-.35.3-.22h-.37Zm.08,1.81-.09-.28-.1.28h-.29l.24.18-.09.27.24-.17.23.17-.09-.27.24-.18Zm1.42-2.54-.09-.28-.09.28h-.29l.24.17-.1.28.24-.17.24.17-.09-.28.24-.17Zm1.16-.75-.11-.35-.11.35H48.8l.3.22-.12.35.3-.22.3.22-.12-.35.3-.22Zm-3,.93.24-.17.23.17-.09-.28.24-.17h-.29l-.09-.28-.09.28h-.3l.24.17ZM34.35,27.39,34.24,27l-.11.35h-.37l.3.21-.12.35.3-.21.3.21-.11-.35.29-.21Zm5.42,5.75-.13-.42-.14.42h-.44l.36.26-.14.42.36-.26.36.26-.14-.42.36-.26Zm1.62-2.79L41.28,30l-.11.35H40.8l.29.22-.11.35.3-.22.3.22-.12-.35.3-.22Zm-2-.7.3-.22.3.22-.12-.35.3-.22h-.37l-.11-.35-.11.35h-.37l.29.22Zm-1,.73-.09-.27-.09.27h-.29l.24.18-.1.28.24-.17.24.17-.09-.28.24-.18ZM39,31.53l.17-.13H39l-.06-.2-.07.2h-.21l.17.13-.06.2.17-.12.17.12Zm5,4.82L43.88,36l-.11.35H43.4l.3.22-.12.35.3-.22.3.22-.12-.35.3-.22Zm1.19-1.22-.09-.28-.09.28h-.3l.24.17-.09.28.24-.17.23.17-.09-.28.24-.17Zm-2.34-.35-.09-.28-.09.28h-.29l.24.17-.09.29.23-.18.24.18L42.91,35l.24-.17Zm-8.76-.49L34,33.88l-.14.41h-.44l.36.26-.14.42.36-.26.36.26-.14-.42.36-.26Zm5.6,3.7,0-.14,0,.14h-.14l.12.08,0,.14.12-.08.12.08,0-.14.12-.08Z"/></g></g></g></g></svg>