<svg xmlns="http://www.w3.org/2000/svg" viewBox="0 0 79.41 53.6"><defs><style>.cls-1{fill:#fff;}.cls-2{fill:#1e2788;}.cls-3{fill:#cb0028;}.cls-4{fill:#3a7aa1;}.cls-5{fill:#4c73d5;}.cls-6{fill:#fbfc2b;}.cls-7{fill:#c2a21f;}.cls-8{fill:#613f21;}.cls-9{fill:#160080;}.cls-10{fill:#d30028;}.cls-11{fill:#ba0019;}.cls-12{fill:#82373b;}.cls-13{fill:#83353b;}.cls-14{fill:#e8d629;}.cls-15{fill:#624e0f;}.cls-16{fill:#f4c627;}.cls-17{fill:#f4c427;}</style></defs><title>Croatia</title><g id="Layer_2" data-name="Layer 2"><g id="flags"><g id="group_d" data-name="group d"><g id="croatia"><rect class="cls-1" y="17.87" width="79.41" height="17.87"/><rect class="cls-2" y="35.74" width="79.41" height="17.87"/><rect class="cls-3" width="79.41" height="17.87"/><path class="cls-1" d="M29.05,17.61A32.06,32.06,0,0,1,39.56,15.8a31.52,31.52,0,0,1,10.79,1.84L53,12.24,51.15,9l-3.38,1.37S45.4,7.77,45.4,7.77l-3,1.82L39.58,7.43,36.93,9.55l-3.1-1.79-2.25,2.68L28.19,9l-1.81,3.24Z"/><path class="cls-3" d="M50.39,17.73l-.06,0a31.52,31.52,0,0,0-10.69-1.83,32.08,32.08,0,0,0-10.56,1.8l-2.77-5.4L28.12,9l3.49,1.41,2.16-2.66L37,9.48l2.56-2.11,2.92,2.15L45.36,7.7c1,1,2.37,2.51,2.45,2.58s2.4-1,3.31-1.39l2,3.31-2.7,5.53ZM28.16,9.07l-1.71,3.21,2.67,5.3a30.11,30.11,0,0,1,10.44-1.86,31.77,31.77,0,0,1,10.75,1.82L53,12.21,51.08,9c-3.27,1.42-3.29,1.42-3.31,1.42a22.35,22.35,0,0,1-2.43-2.6l-2.9,1.83L39.53,7.49,37,9.61,33.79,7.83l-2.15,2.66L28.16,9.07Z"/><path class="cls-4" d="M46.2,16.11l1.53-5.41L51,9.37l1.73,2.9-2.48,5.07a22.08,22.08,0,0,0-4.06-1.23Z"/><path class="cls-5" d="M50.27,17.37h0a21.82,21.82,0,0,0-4-1.23l1.51-5.44L51,9.35l1.76,2.91-2.49,5.11Zm.72-8-3.25,1.34-1.52,5.4a20,20,0,0,1,4,1.2l2.47-5.06L51,9.38Z"/><path class="cls-4" d="M37.56,15.53l-.51-5.61,2.6-2.07,2.73,2.06-.49,5.62a39,39,0,0,0-4.33,0Z"/><path class="cls-5" d="M41.91,15.55h0a39,39,0,0,0-4.33,0L37,9.92l2.61-2.09L42.39,9.9l-.48,5.65ZM39.64,7.86,37.06,9.93l.52,5.6a32.6,32.6,0,0,1,4.3,0l.48-5.6-2.72-2Z"/><path class="cls-4" d="M29.18,17.34,26.75,12.2l1.62-2.84,3.37,1.47,1.42,5.3a21.59,21.59,0,0,0-4,1.21Z"/><path class="cls-5" d="M29.17,17.37l-2.44-5.16,1.63-2.86,3.39,1.46,1.43,5.32a22.82,22.82,0,0,0-4,1.23Zm-.8-8-1.6,2.83,2.42,5.11a21,21,0,0,1,4-1.21l-1.44-5.28L28.37,9.38Z"/><path class="cls-1" d="M28.66,14.76a4.29,4.29,0,0,0,1.91-.18,2.61,2.61,0,0,0,1.23-1.11,1.38,1.38,0,0,1-.74,1.76,1.9,1.9,0,0,1-2.4-.47Z"/><path class="cls-1" d="M30.1,15.48a1.69,1.69,0,0,1-1.45-.71h.63a3.89,3.89,0,0,0,1.29-.22,2.54,2.54,0,0,0,1.17-1h0a2.36,2.36,0,0,1-1.17,1.05,4.18,4.18,0,0,1-1.92.19,2,2,0,0,0,2.39.44,1.34,1.34,0,0,0,.81-1.33c.08.43-.06.93-.8,1.36a2.06,2.06,0,0,1-1,.23Z"/><path class="cls-6" d="M40.36,10.79l-.15,0v.26l-.18,0-.13.23.08.08a1.15,1.15,0,0,1-.06.17l0,.06.05.15h.12l0,.17.19,0,.18.13v.07h.21l.13,0,.49,0,.06-.1V12h.25l0-.22h.14l0-.24H42l0-.12-.08-.1v-.15l-.2-.19,0-.26-.13-.07v-.17l.15-.2V10.2h-.14l-.1.08h-.14v.07l0,.11h-.16v-.18l-.22-.11-.21.15v.16l-.1,0-.1-.15-.18-.06H40.2v.12l.19.24Z"/><path class="cls-7" d="M40.9,12.33l-.38-.05v-.12l-.16-.09-.17,0-.07-.21-.09,0-.11-.33.08-.09-.11,0,.12-.29.21-.06,0-.22.18-.08,0-.11-.17-.2v-.2h.15l.19.07.12.17,0-.17s0,0,.22-.17l.27.1,0,.22.07,0,0-.06c0-.12,0-.12.17-.14l.08-.07h.2l0,.12-.15.24,0,.14s.1,0,.1,0l.07.3.19.17.13.39-.16,0,.06.2-.18,0,0,.18-.3,0,0,.09-.08.12-.52.08Zm-.13-.13.14,0,.47-.06,0-.08V12l.3-.05v-.18l.18,0-.07-.19.17,0-.14-.14,0-.17L41.62,11l0-.29c-.13,0-.13,0-.13-.07v-.17l.15-.23h-.11l-.07.07-.15,0,.06.13-.2,0,0-.23-.19-.06s-.13.1-.16.13a.57.57,0,0,1,0,.13v0l-.13,0-.15-.17-.15-.05,0,.07.17.21v.18l-.18.07,0,.22-.22.08-.1.22c.09,0,.09.06,0,.17s0,0,0,.09l0,.15h.09l.07.2h.15l.21.14,0,.1.16,0Z"/><path class="cls-7" d="M40,11.41h.21l0,.19.07.06V12l.07,0,0-.13h.16l0,.27,0,0v0h.2l0-.08H41l0,.08,0-.11.11,0,.08.14.14,0-.08-.09,0-.18.2-.1.08.13h.07l-.09-.15V11.5l.16-.21.21,0v-.09L41.65,11l-.06-.26-.12-.06,0,0h-.13l.13.2V11l.06,0v.35l-.15,0v.19l-.1.09,0,.18-.09.11h-.16l-.1-.09,0-.13-.06,0a.83.83,0,0,1,0-.15l-.11-.06v-.08l-.11-.05v-.08l-.06,0v-.21l.09,0,0-.07,0-.06v-.06l.08-.08-.14,0-.14.06v.26l-.17.05-.13.21Z"/><path class="cls-7" d="M40.56,12.28l0-.07v-.33l-.12,0,0,.1v.06L40.32,12l0-.39-.12-.24-.18.05-.08-.07.12-.27.18-.06a.74.74,0,0,1,0-.21.93.93,0,0,1,.15-.1.77.77,0,0,1,.18,0l-.07.23-.06-.05.06-.11h-.08s0,0-.1.05v.22l-.2.09-.1.19.24,0,.08.22.09.42v-.12l.2-.05.08.32,0,0,.2,0v.09l-.26,0Zm.66,0c-.14-.16-.14-.16-.14-.18l-.06,0v0l0-.07.12,0a1.07,1.07,0,0,1,.13.15l.1,0h-.11l-.05-.21h0l0,.09-.2,0c-.14-.12-.14-.12-.14-.14l0-.13c-.06,0-.06,0-.1-.16l-.11,0v-.11l-.1,0,0-.1c-.07,0-.07,0-.07-.26v0l.14,0h0l.09.08-.16,0s0,.14,0,.16l.18.15v.11l.09,0a1,1,0,0,1,.06.16c.07,0,.09.17.09.17L41,12h.13c.06-.11.06-.11.09-.11s0-.15,0-.15l.1-.11v-.16s0,0,.19-.07l-.09-.45-.12-.17.16-.08.18,0,.08.29.21.18v.11l-.25.07-.12.18v.29h0l.08.13-.11.07-.12-.16-.14.12.13.19-.16.1Zm.14-.79s0,.15,0,.15l-.11.12c0,.14,0,.18-.06.19l.21-.14.05.06V11.5l0-.07-.13,0Zm.09-.76-.14,0,.16.12.06.5.08-.11.24,0L41.62,11l-.07-.28-.1,0Z"/><path class="cls-8" d="M40.82,11.76l.11-.06v-.12l-.11,0,0,0,.12,0,.14,0,.05,0c0,.05,0,.05,0,.05l-.08,0v.11l.25,0s0,0,0,0l-.26,0-.15.09Z"/><path class="cls-7" d="M40.75,11.88l0-.13.12-.07,0-.12.06,0v0l.1,0v0l-.07.06,0,.09c.24,0,.24,0,.24,0s0,.06-.29,0l-.2.13Z"/><path class="cls-7" d="M41.44,11l-.14.11-.09.16h-.05L41,11.13h-.16l-.08.22h-.07l-.16-.18s-.06-.09,0-.09h.42v-.2l-.1,0h.23l-.09.05v.17h.36Z"/><path class="cls-7" d="M40.77,11.4H40.7l-.21-.22,0-.12.46,0-.05-.14.05,0h-.05c0-.09,0-.09.18-.09h.14l-.21.14,0,.13.43-.07-.21.34h-.09L41,11.16l-.12,0s0,.17,0,.18l0,0Zm.18-.32-.45,0,.24.19s0-.08.08-.19l.14,0Z"/><path class="cls-8" d="M40.7,11.13h0a0,0,0,0,1,0,0v0a0,0,0,0,1,0,0h0a0,0,0,0,1,0,0v0a0,0,0,0,1,0,0Z"/><path class="cls-8" d="M41.16,11.11h0a0,0,0,0,1,0,0v0a0,0,0,0,1,0,0h0a0,0,0,0,1,0,0v0a0,0,0,0,1,0,0Z"/><path class="cls-7" d="M40.5,10.85l0,0v-.06a1.36,1.36,0,0,1,.43-.11,1.5,1.5,0,0,1,.48,0,1.51,1.51,0,0,1-.47.05,1.31,1.31,0,0,0-.41.12Z"/><polygon class="cls-7" points="40.54 10.5 40.42 10.5 40.24 10.31 40.34 10.33 40.46 10.38 40.54 10.5"/><polygon class="cls-7" points="40.63 10.54 40.42 10.54 40.12 10.26 40.47 10.34 40.63 10.54 40.63 10.54"/><polygon class="cls-7" points="41.28 10.43 41.56 10.22 41.47 10.21 41.37 10.3 41.25 10.32 41.28 10.43"/><path class="cls-7" d="M41.12,10.47h-.44v0l.16,0,0-.06h.05l0,.06.16,0Z"/><polygon class="cls-7" points="40.63 10.53 40.64 10.43 40.84 10.38 40.76 10.44 40.9 10.43 40.88 10.38 41.11 10.4 41.16 10.47 41.12 10.51 40.63 10.53 40.63 10.53"/><polygon class="cls-7" points="41.1 10.3 40.95 10.31 40.94 10.22 41.1 10.3"/><polygon class="cls-7" points="40.84 10.23 40.83 10.31 40.68 10.34 40.84 10.23"/><polygon class="cls-7" points="40.01 11.73 40.08 11.54 40.01 11.41 39.95 11.6 40.01 11.73"/><polygon class="cls-7" points="40.16 11.83 40.25 11.61 40.08 11.79 40.16 11.83"/><polygon class="cls-7" points="40.18 11.89 40.05 11.82 40.21 11.59 40.11 11.82 40.16 11.83 40.12 11.81 40.22 11.57 40.18 11.89 40.18 11.89"/><path class="cls-6" d="M37.94,10.87l-.15,0v.27l-.18,0-.13.23.08.08a1.15,1.15,0,0,1-.06.17l.05.06,0,.14.12,0,0,.17.19,0,.18.12v.08h.2l.14,0,.49,0,.06-.1v-.14h.27l0-.21h.14l0-.25h.11l0-.11-.07-.1v-.15l-.2-.2-.05-.26-.13-.06v-.17l.15-.2v-.08h-.14l-.1.09h-.14v.06l0,.12h-.16v-.18l-.22-.11-.21.14v.16l-.1,0-.1-.15-.18-.06h-.1v.12l.19.24Z"/><path class="cls-7" d="M38.48,12.41l-.38-.05v-.12l-.16-.09-.18,0-.06-.2-.09,0-.11-.32a.66.66,0,0,1,0-.11l-.08-.09.13-.23.21-.06,0-.22.18-.09,0-.1-.17-.21v-.19h.14l.19.07.13.17,0-.17s0,0,.22-.17l.26.1,0,.22.07,0,0-.06c0-.12,0-.12.17-.14l.08-.07h.2l0,.12-.15.23v.15s.11,0,.11,0l.07.3.19.17.13.38-.17.05.07.19-.18.05,0,.18-.3,0,0,.09-.08.12-.52.08Zm-.13-.14.14.05.47-.06,0-.08v-.11l.3-.05v-.18l.18,0-.07-.19.17,0-.14-.14,0-.17-.19-.17-.05-.29c-.13,0-.13,0-.13-.07v-.17l.15-.23h-.11l-.07.07-.16,0c.07.12.07.12.07.13l-.2,0,0-.22-.19-.06s-.13.1-.16.12a.65.65,0,0,1,0,.14v0l-.13,0L38,10.47l-.15-.05,0,.07.17.21v.17L37.8,11l.05.22-.22.08-.1.21c.09.06.09.07,0,.2,0,0,0,0,0,.06l0,.16h.09l.07.2H38l.21.14,0,.1.16,0Z"/><path class="cls-7" d="M37.58,11.49h.21l0,.19.07.06v.35l.07,0L38,12l.16,0,0,.28-.05,0,0,0h.2s0-.08.05-.08h.11l0,.09,0-.11.1,0,.09.13.14,0-.09-.08,0-.18.2-.1.08.13h.07l-.09-.15v-.31l.15-.21.22,0v-.09l-.22-.19,0-.27-.12-.05,0,0h-.13L39,11v.13l.06,0,0,.34-.14,0v.19l-.1.09-.05.18-.09.11h-.16l-.1-.09,0-.13-.06,0a.83.83,0,0,1,0-.15l-.11-.06v-.09l-.11,0v-.09l-.06,0v-.22h.09l0-.07L38,11V11l.08-.08-.14,0-.14.06v.26l-.16.05-.13.2Z"/><path class="cls-7" d="M38.14,12.36l0-.08V12L38,12l0,.1v.06l-.12-.05,0-.39-.12-.24-.18,0-.08-.07.12-.27.18-.06s0-.19,0-.21a.45.45,0,0,1,.16-.1h.18l-.07.24L38,11,38,10.9H38s-.05,0-.1.05v.22l-.2.09-.1.19.23,0,.09.22.09.41V12l.21-.05.08.32,0,0,.2,0v.09l-.26,0Zm.66,0c-.14-.16-.14-.16-.14-.18l-.06,0v0l0-.06.12,0,.13.15.1,0h-.12l0-.21.22-.15,0,.06v-.35l0-.07-.13,0s0,.15,0,.15l-.11.12c-.05.2-.05.2-.08.2l0,.09-.2,0c-.14-.12-.14-.12-.14-.14l0-.13c-.07,0-.07,0-.1-.16l-.11,0v-.11l-.1,0,0-.1c-.07,0-.07,0-.07-.27v0l.14,0h0l.1.08-.16,0s0,.14,0,.16l.17.14v.12l.09,0a1.77,1.77,0,0,1,.06.17c.07,0,.09.17.09.17l.08.06.13,0c.06-.1.06-.1.09-.1s0-.15,0-.15l.1-.11v-.16s0,0,.19-.07L39,11l-.12-.16.16-.08.18,0,.08.3.21.18v.11l-.25.07-.12.18v.29h0l.08.12h0l-.1.08L39,11.93l-.14.12.13.19-.16.1ZM39,10.79l-.14.05.16.12.06.5.08-.12.24,0-.24-.2-.07-.29-.09,0Z"/><path class="cls-8" d="M38.4,11.84l.11-.06v-.12l-.11,0,0,0,.12,0h.14l.05,0c0,.05,0,.05,0,.05l-.08,0v.12l.25,0s0,0,0,0l-.26,0-.15.09Z"/><path class="cls-7" d="M38.33,12l.05-.12.12-.07,0-.12.06,0v0l.1,0v0l-.07,0,0,.1c.24,0,.24,0,.24,0s0,.06-.29,0l-.2.12Z"/><path class="cls-7" d="M39,11.11l-.14.11-.09.16h0l-.14-.18h-.16l-.08.22h-.07l-.17-.18s0-.09,0-.09h.42V11l-.1,0h.22l-.08.06v.17h.36Z"/><path class="cls-7" d="M38.35,11.48h-.07l-.21-.22,0-.12.46,0,0-.14,0,0h0c0-.09,0-.09.17-.09h.15l-.21.14,0,.13.43-.07-.21.34h-.09l-.14-.19-.12,0s-.05.18-.05.19l0,0Zm.18-.32-.45,0,.24.19s0-.08.08-.2l.14,0Z"/><path class="cls-8" d="M38.28,11.21h0a0,0,0,0,1,0,0v0a0,0,0,0,1,0,0h0a0,0,0,0,1,0,0v0a0,0,0,0,1,0,0Z"/><path class="cls-8" d="M38.73,11.19h0a0,0,0,0,1,0,0v0a0,0,0,0,1,0,0h0a0,0,0,0,1,0,0v0a0,0,0,0,1,0,0Z"/><path class="cls-7" d="M38.09,10.92l-.05,0,0-.05a1.22,1.22,0,0,1,.42-.12,1.75,1.75,0,0,1,.47,0,1.41,1.41,0,0,1-.46.05,1.45,1.45,0,0,0-.4.11Z"/><polygon class="cls-7" points="38.12 10.58 37.99 10.58 37.82 10.39 37.92 10.4 38.04 10.46 38.12 10.58"/><polygon class="cls-7" points="38.2 10.62 37.99 10.62 37.7 10.33 38.05 10.41 38.2 10.62 38.2 10.62"/><polygon class="cls-7" points="38.86 10.51 39.15 10.3 39.05 10.28 38.95 10.38 38.83 10.4 38.86 10.51"/><path class="cls-7" d="M38.7,10.55h-.44v-.05h.16l0-.06h0l0,.06.16,0Z"/><polygon class="cls-7" points="38.21 10.61 38.22 10.51 38.42 10.46 38.34 10.51 38.48 10.51 38.46 10.46 38.69 10.48 38.74 10.54 38.7 10.59 38.21 10.61 38.21 10.61"/><polygon class="cls-7" points="38.68 10.38 38.53 10.38 38.52 10.3 38.68 10.38"/><polygon class="cls-7" points="38.42 10.31 38.41 10.39 38.26 10.41 38.42 10.31"/><polygon class="cls-7" points="37.59 11.8 37.66 11.62 37.59 11.49 37.52 11.68 37.59 11.8"/><polygon class="cls-7" points="37.74 11.91 37.83 11.68 37.65 11.87 37.74 11.91"/><polygon class="cls-7" points="37.76 11.97 37.63 11.9 37.79 11.67 37.69 11.9 37.74 11.91 37.7 11.89 37.8 11.65 37.76 11.97 37.76 11.97"/><path class="cls-2" d="M41.93,15.52l.49-5.62,3-1.71,2.3,2.49L46.16,16.1a29.44,29.44,0,0,0-4.23-.58Z"/><path class="cls-9" d="M46.18,16.12h0a29.64,29.64,0,0,0-4.23-.58L42.4,9.9l3-1.73,2.32,2.5-1.53,5.45Zm-.8-7.92-3,1.72L42,15.53a25.89,25.89,0,0,1,4.2.55l1.53-5.4L45.38,8.2Z"/><path class="cls-6" d="M39.2,13l-.15,0v.27l-.18,0-.13.23.08.08-.06.17,0,.06,0,.15H39l0,.17.19,0,.18.13v.07h.2l.14,0,.48-.05.07-.1v-.14h.26l0-.21h.14l0-.25h.12l0-.11-.07-.1,0-.15-.2-.2,0-.26-.13-.06v-.17l.14-.2v-.08h-.13l-.11.09h-.13v.07l0,.11H40v-.18l-.22-.11-.2.14v.17l-.1,0-.11-.15-.17-.06H39v.12l.18.24Z"/><path class="cls-7" d="M39.73,14.51l-.37,0,0-.12-.16-.09-.17,0-.07-.2-.08,0-.13-.36,0-.16.13-.23.21-.06L39,13l.18-.08,0-.11L39,12.61v-.19h.14l.19.07.12.17,0-.17s0,0,.23-.17l.26.1,0,.22.07,0,0-.06c0-.12,0-.12.17-.14l.08-.07h.2l0,.12-.16.24,0,.14s.1,0,.1,0l.08.3.19.17.12.38-.16.05.07.19-.19.05,0,.18-.3.05,0,.09-.07.12-.53.08Zm-.13-.14.14.05.47-.06,0-.08v-.11l.3-.05,0-.18.18,0-.06-.19.16,0-.14-.14,0-.17-.19-.17-.06-.29c-.13,0-.13,0-.13-.07v-.17l.16-.23H40.3l-.07.07-.15,0,.07.13-.2,0-.05-.23-.19-.06-.16.12a.65.65,0,0,1,0,.14v0l-.13,0-.15-.17-.16-.05,0,.07.18.21V13l-.18.08,0,.22-.22.08-.09.21c.09.06.09.07,0,.18s0,0,0,.09l.06.15H39l.07.2h.15l.22.14v.1l.16,0Z"/><path class="cls-7" d="M38.83,13.59H39l0,.19.08.06v.35l.07,0v-.13h.17l0,.27,0,0,0,0h.19s0-.08.05-.08h.11l0,.08,0-.11.1,0,.08.14.15,0-.09-.09,0-.18.2-.1.08.13h.08a1.19,1.19,0,0,1-.09-.15v-.31l.15-.21.21,0v-.09l-.21-.19-.06-.26-.12-.06,0,0h-.13l.13.2v.12l.06,0v.35l-.15,0v.19l-.09.09a1.27,1.27,0,0,1-.06.18l-.08.11h-.17l-.1-.1V14l-.07,0,0-.15-.12-.06v-.09l-.11,0s0-.08,0-.08l0,0v-.22h.1l-.06-.07v-.12l.08-.08-.15,0-.14.06a2.26,2.26,0,0,1,0,.26l-.16.05-.13.21Z"/><path class="cls-7" d="M39.4,14.46l0-.07v-.33l-.11,0,0,.1v.06l-.12,0,0-.39L39,13.59l-.18.05-.08-.07.12-.27.18-.06A.75.75,0,0,1,39,13a.64.64,0,0,1,.16-.1.72.72,0,0,1,.17,0l-.06.23-.07-.05.07-.12h-.08s-.05,0-.11.05a1,1,0,0,1,0,.22l-.2.09-.11.19.24,0,.09.22.08.41v-.11l.21-.05.08.32,0,0,.21,0v.09l-.26,0Zm.65,0c-.13-.16-.13-.16-.13-.18l-.05.16-.13-.09h-.07l.11-.05v.05l.08.06v0l0-.11.12,0a.83.83,0,0,1,.12.15l.1,0h-.11l0-.21.22-.15.06.06v-.35l0-.07-.13,0a.86.86,0,0,1,0,.15l-.11.12c-.05.2-.05.2-.09.2s0,.09,0,.09l-.2,0c-.14-.12-.14-.12-.14-.14V14c-.07,0-.07,0-.11-.16l-.11,0v-.11l-.1,0,0-.1c-.06,0-.06,0-.06-.27v0l.13,0h0l.09.08-.15,0a.47.47,0,0,1,0,.16c.05,0,.06,0,.07.12l.11,0v.12l.09,0a.64.64,0,0,1,0,.17c.07,0,.09.17.09.17l.08.06h.13C40,14,40,14,40,14s0-.15,0-.15l.1-.11v-.16s0,0,.18-.07l-.08-.45-.13-.17.17-.08.17,0,.08.29.21.18v.11l-.25.07-.12.18V14h0a.74.74,0,0,1,.08.13l-.11.07L40.23,14l-.15.12.14.19-.17.1Zm.23-1.55-.14,0,.17.12,0,.5.08-.11.24,0-.23-.21-.07-.29-.1,0Z"/><path class="cls-8" d="M39.66,13.94l.11-.06v-.12l-.1,0,0,0h.26l0,0c0,.05,0,.05,0,.05l-.07,0v.11l.24,0s0,.05,0,.05l-.25-.05-.16.09Z"/><path class="cls-7" d="M39.59,14.05l0-.12.11-.07,0-.12.06,0v0l.1,0v0l-.06.06v.09c.25,0,.25,0,.25,0s0,.06-.3,0l-.19.12Z"/><path class="cls-7" d="M40.28,13.21l-.14.11-.1.16h0l-.14-.18H39.7l-.09.22h-.06l-.17-.18-.05-.09h.42v-.2l-.1,0h.23l-.09.06v.17h.37Z"/><path class="cls-7" d="M39.61,13.58h-.07l-.22-.22,0-.12.45,0,0-.14,0,0h0c0-.09,0-.09.18-.09H40l-.2.14,0,.13.43-.07-.21.34H40l-.14-.19-.11,0a.64.64,0,0,1-.06.18l0,0Zm.18-.32-.46,0,.25.19.08-.19.13,0Z"/><path class="cls-8" d="M39.54,13.31h0a0,0,0,0,1,0,0v0a0,0,0,0,1,0,0h0a0,0,0,0,1,0,0v0a0,0,0,0,1,0,0Z"/><path class="cls-8" d="M40,13.29h0a0,0,0,0,1,0,0v0a0,0,0,0,1,0,0h0a0,0,0,0,1,0,0v0a0,0,0,0,1,0,0Z"/><path class="cls-7" d="M39.34,13l-.05,0v-.06a1.36,1.36,0,0,1,.43-.11,1.31,1.31,0,0,1,.49,0,1.57,1.57,0,0,1-.48.05,1.45,1.45,0,0,0-.4.11Z"/><polygon class="cls-7" points="39.38 12.68 39.25 12.68 39.08 12.49 39.17 12.51 39.29 12.56 39.38 12.68"/><polygon class="cls-7" points="39.46 12.72 39.25 12.72 38.96 12.44 39.31 12.52 39.46 12.72 39.46 12.72"/><polygon class="cls-7" points="40.12 12.61 40.4 12.4 40.31 12.38 40.2 12.48 40.08 12.5 40.12 12.61"/><path class="cls-7" d="M40,12.65h-.44v0l.16,0,0-.06h0l0,.06.15,0Z"/><polygon class="cls-7" points="39.47 12.71 39.48 12.61 39.68 12.56 39.59 12.62 39.73 12.61 39.71 12.56 39.95 12.58 39.99 12.65 39.96 12.69 39.47 12.71 39.47 12.71"/><polygon class="cls-7" points="39.93 12.48 39.78 12.49 39.77 12.4 39.93 12.48"/><polygon class="cls-7" points="39.68 12.41 39.66 12.49 39.52 12.51 39.68 12.41"/><polygon class="cls-7" points="38.84 13.91 38.92 13.72 38.85 13.59 38.78 13.78 38.84 13.91"/><polygon class="cls-7" points="38.99 14.01 39.08 13.79 38.91 13.97 38.99 14.01"/><polygon class="cls-7" points="39.01 14.07 38.89 14.01 39.04 13.77 38.94 14 38.99 14.01 38.95 13.99 39.05 13.76 39.01 14.07 39.01 14.07"/><path class="cls-3" d="M42.67,14.52l-.15.17v.15h.31a.18.18,0,0,0,.15-.1c0-.05,0-.07,0-.14Z"/><path class="cls-10" d="M42.52,14.86l0-.17.16-.19.35.07,0,.16h0s0,.09-.15.11Z"/><path class="cls-3" d="M43.41,14.93l-.14.11v.13l.27,0c.1,0,.12,0,.14-.07s0,0,0-.11Z"/><path class="cls-10" d="M43.53,15.21l-.27,0V15l.15-.12.32.08,0,.13h0s0,.06-.15.08Z"/><path class="cls-3" d="M44.63,14.58l-.15.15v.11h.29c.1,0,.09,0,.12-.07s0-.06,0-.13Z"/><path class="cls-10" d="M44.78,14.87h-.29l0-.13.15-.16.31.06,0,.15h0c0,.06,0,.06-.13.08Z"/><path class="cls-3" d="M45.48,14.84l-.16.14v.14l.31,0c.1,0,.11-.05.13-.08s0-.06,0-.13Z"/><path class="cls-10" d="M45.63,15.17l-.31,0,0-.16.17-.15.32.1v.15a.19.19,0,0,1-.15.09Z"/><path class="cls-3" d="M43.4,11.16l.59.39c.11-.09.34,0,.43,0s.27.14.41.16a2.25,2.25,0,0,0,.8.08,1.6,1.6,0,0,0,.6-.23v-.06h-.11a1.58,1.58,0,0,1-.65,0,4.74,4.74,0,0,1-.55-.21l0-.05c.37,0,.44,0,.59-.06a.78.78,0,0,0,.3-.19V11h-.11a.55.55,0,0,1-.45.09c-.19,0-.37-.13-.5-.13s-.13-.07-.27-.07a2.05,2.05,0,0,0-.65.06.71.71,0,0,0-.4.25Z"/><path class="cls-11" d="M45.49,11.81a2.68,2.68,0,0,1-.66-.09.83.83,0,0,1-.22-.08.93.93,0,0,0-.2-.08c-.2-.06-.34-.06-.41,0l-.61-.38a.62.62,0,0,1,.41-.29,1.86,1.86,0,0,1,.65-.06.23.23,0,0,1,.14,0,.31.31,0,0,0,.13,0,.66.66,0,0,1,.22.06,1.28,1.28,0,0,0,.28.07.58.58,0,0,0,.44-.08h0l.12,0h0v0h0l0,.11a.61.61,0,0,1-.24.14.77.77,0,0,1-.36.07H45l.09,0a.66.66,0,0,0,.34-.07.56.56,0,0,0,.23-.13l.06-.08a1,1,0,0,1-.54.08,1,1,0,0,1-.29-.08,1,1,0,0,0-.21-.05.27.27,0,0,1-.15,0,.3.3,0,0,0-.12,0,1.78,1.78,0,0,0-.64.06.63.63,0,0,0-.35.2l.54.4c0-.06.21-.07.42,0a1.31,1.31,0,0,1,.21.08.56.56,0,0,0,.2.08,2.68,2.68,0,0,0,.8.09,1.65,1.65,0,0,0,.51-.2l0-.06a1.36,1.36,0,0,1-.65.05.88.88,0,0,1-.26-.09,2,2,0,0,0-.3-.12l.07,0a1.94,1.94,0,0,1,.24.11,1.83,1.83,0,0,0,.25.08,1.32,1.32,0,0,0,.64,0h.12l-.07.14a1.45,1.45,0,0,1-.53.19Z"/><path class="cls-12" d="M43.51,11.07a.85.85,0,0,1,.17.06s0,0,.08.06,0,0,0-.08L43.6,11Z"/><path class="cls-12" d="M44,11.49a.28.28,0,0,0,0-.13.54.54,0,0,0-.07-.13.19.19,0,0,1,.11.08s0,.09,0,.16Z"/><path class="cls-12" d="M44.12,10.88l.06.13a1.16,1.16,0,0,1,0,.16.75.75,0,0,1,0-.15c0-.06,0-.1-.05-.15Z"/><polygon class="cls-12" points="44.59 10.91 44.61 11.19 44.64 10.92 44.59 10.91"/><path class="cls-12" d="M44.48,11.49a.66.66,0,0,0,0-.14,1,1,0,0,0,0-.14.31.31,0,0,1,.09.14.17.17,0,0,1-.05.14Z"/><path class="cls-12" d="M45,11.36a.55.55,0,0,1,0,.17c0,.07,0,.07-.08.11s.11-.06.12-.1a.36.36,0,0,0,0-.18Z"/><path class="cls-12" d="M45.05,11.27s0-.13-.06-.2,0,0,0,0a.81.81,0,0,1,0,.17Z"/><path class="cls-12" d="M45.39,11.22V11.1h0v.1l0,0Z"/><path class="cls-12" d="M45.36,11.53a.75.75,0,0,1,.07.12s0,0,0,.11h0a.21.21,0,0,0,0-.12.17.17,0,0,0-.06-.11Z"/><path class="cls-13" d="M45.46,11.79h-.07l0-.13-.06-.11h0l.09.09a.2.2,0,0,1,0,.11l0,0h0a.3.3,0,0,0,0-.11l0-.09a.1.1,0,0,1,.08.09.24.24,0,0,1,0,.13Z"/><polygon class="cls-12" points="45.77 11.56 45.78 11.72 45.83 11.7 45.81 11.56 45.77 11.56"/><path class="cls-6" d="M43.36,11.19a.51.51,0,0,0-.24.17l-.37-.19a.18.18,0,0,0-.06.2.89.89,0,0,0,.23.25,1.14,1.14,0,0,1-.09.26,2.9,2.9,0,0,0-.13.27s0,.14,0,.17a2.32,2.32,0,0,0,.37,0s0,.11,0,.14,0,0,.09,0-.06.08,0,.11a.2.2,0,0,0,.15,0l-.11.12-.2.19c-.06.09-.07.18.05.17,0,.05-.08.09-.08.14s0,.08.12,0a.53.53,0,0,0,0,.33.86.86,0,0,0,0,.28c-.09,0-.1.11-.16.21s-.14.14-.19.37l.34.08a.75.75,0,0,1,.07-.12.43.43,0,0,0,0-.16,2.5,2.5,0,0,0,.25-.41.41.41,0,0,1,.19-.06.36.36,0,0,1,.15.06,1.2,1.2,0,0,0-.11.32v.35c0,.09-.11.09-.15.35l.3.08c.06-.09.14-.1.16-.13l0-.37c0-.17.28-.32.29-.5h.15s.06-.05.1-.08.06.06.1.06a.46.46,0,0,0,.14-.07s0,.06.08.07a.86.86,0,0,0,.22,0l-.25.41s0,.07,0,.11,0,.06-.07.1l.29.07,0-.12a.53.53,0,0,0,.15-.08s0-.11,0-.15a2.42,2.42,0,0,0,.35-.36.34.34,0,0,1,.22.17,1.15,1.15,0,0,1,0,.4l-.19.29,0,0,.29.11.19-.14v-.21a1.17,1.17,0,0,1,.35-.35s0-.22,0-.23,0,0-.06-.05a.5.5,0,0,1,0-.21s.05-.05.05-.07,0-.2,0-.31.17-.28.2-.36v-.13s0,0,0-.08,0-.07,0-.1l0-.07v-.33s0-.09-.07-.09-.07,0-.1.06l-.17.12a.4.4,0,0,1-.29,0h-.22a.39.39,0,0,1-.28,0h-.12a.42.42,0,0,1-.14.06H45a.67.67,0,0,0-.34.07.66.66,0,0,0-.34-.06l-.12,0a1.18,1.18,0,0,1-.36-.43c.31-.09.44-.18.53-.39l-.43,0Z"/><path class="cls-14" d="M43.74,15l-.32-.09a.46.46,0,0,1,.1-.3l0-.42a.78.78,0,0,1,.07-.23l-.09-.14a.46.46,0,0,0-.18.07,4.23,4.23,0,0,1-.24.4.27.27,0,0,1,0,.15l-.09.14-.34-.08a.57.57,0,0,1,.12-.31l.1-.16a.32.32,0,0,1,.12-.14l-.08.16a.68.68,0,0,1-.11.17.61.61,0,0,0-.13.26l.33.06,0-.11a.38.38,0,0,0,0-.15,3.09,3.09,0,0,0,.25-.42.29.29,0,0,1,.32,0,.12.12,0,0,1,0,.15,1.05,1.05,0,0,0-.06.21v.35a.85.85,0,0,0-.16.36l.28,0a.27.27,0,0,1,.11-.09l.06-.39a.66.66,0,0,1,.14-.24.54.54,0,0,0,.15-.26h.08l0,0,.07,0-.15,0a.46.46,0,0,1-.15.27.6.6,0,0,0-.13.21l0,.37c-.09.07-.13.09-.16.14v0Zm2.07-.08-.3-.1.19-.36a1.09,1.09,0,0,0,0-.39.34.34,0,0,0-.2-.15,1.62,1.62,0,0,1-.34.35l0,.15a.25.25,0,0,1-.12.08l-.06.12-.31-.06.07-.11,0,.06.24.08,0-.11c.09,0,.13-.05.15-.08l0-.16a2.34,2.34,0,0,0,.36-.35.3.3,0,0,1,.25.17,1.19,1.19,0,0,1,0,.41l-.19.3.26.12.17-.14v-.19a1.07,1.07,0,0,1,.3-.33,1.27,1.27,0,0,0,.06-.24.36.36,0,0,1-.06-.28c0-.11,0-.25,0-.38a.47.47,0,0,1,.13-.25l.07-.1v-.13c-.05-.11,0-.15,0-.19l0-.39h0l-.14,0-.17.12a.46.46,0,0,1-.31,0h-.21a.39.39,0,0,1-.28,0h-.12a.33.33,0,0,1-.14.06l-.15,0v0c-.22,0-.25,0-.28.05h-.11a.56.56,0,0,0-.29,0l-.12,0a1.11,1.11,0,0,1-.37-.44c.31-.12.43-.21.52-.41l-.41,0-.63-.41a.49.49,0,0,0-.18.13h0a.37.37,0,0,1,.22-.16l.63.41.42,0c-.08.24-.21.34-.52.43a1.38,1.38,0,0,0,.36.39l.11,0a1.13,1.13,0,0,1,.3,0c.12,0,.15,0,.38,0h.14l.12-.06h.15a.34.34,0,0,0,.28,0H46a.45.45,0,0,0,.28,0l.17-.13s.06-.06.1-.06.09.08.1.11v.33l-.09.17,0,.22a.33.33,0,0,1-.08.11.5.5,0,0,0-.12.24c0,.08,0,.24,0,.29a.57.57,0,0,0-.06.29c.07.06.07.06.06.27a1.76,1.76,0,0,0-.36.38v.2l-.2.15Zm-1.09-.48h0v-.11l.25-.41s-.11.05-.17.05l-.12-.07c-.11.09-.2.14-.25,0l.12,0s0,0,.13-.07l.09.07.22,0-.27.54ZM43,13.87a.43.43,0,0,1,0-.25.57.57,0,0,1,0-.34c-.08,0-.11,0-.12,0a.16.16,0,0,1,0-.11.25.25,0,0,1,0,.1h0l.08.08a.46.46,0,0,0,0,.26,1.34,1.34,0,0,0,0,.25l0,.06ZM43,13.05s0-.08,0-.13l.15-.15.16-.16a.12.12,0,0,1-.14,0l0-.1v0l.1.07-.06.12L43,13s0,.07,0,.1Zm.21-.54-.1-.06a.23.23,0,0,1,0-.13l-.1,0h-.17a.16.16,0,0,1-.14-.2.45.45,0,0,1,.06-.13.51.51,0,0,0,.07-.15,1,1,0,0,0,.09-.26.63.63,0,0,1-.23-.23.19.19,0,0,1,.06-.22l.25.12-.24-.09a.15.15,0,0,0,0,.17.82.82,0,0,0,.22.24.82.82,0,0,1-.08.29l-.07.14a.43.43,0,0,0-.06.12c0,.07,0,.14,0,.15h.35l.06.22Z"/><path class="cls-15" d="M43.21,11.72l.12,0a.13.13,0,0,0,.07,0s0,0,.05,0l.11-.06c-.07,0-.09-.05-.16-.05s-.12,0-.19.05Z"/><path class="cls-15" d="M43.4,11.83l-.2-.09h0c.1-.06.13-.08.17-.08l.12,0H43.4l-.15,0,.15.08h0l0,0,.12-.06,0,0-.17.09Z"/><path class="cls-7" d="M43.44,13.17a0,0,0,0,1,0,0,1,1,0,0,0-.09-.36,1.3,1.3,0,0,1,.12.35Z"/><path class="cls-7" d="M44.16,13.18h.06s0-.07,0-.11-.06-.17-.08-.2,0,0,0,0a2.24,2.24,0,0,0,.08.31Z"/><path class="cls-7" d="M44.55,13.14s-.06,0-.07,0a2.61,2.61,0,0,1-.06-.33s.06.1.08.14a1.23,1.23,0,0,1,0,.22Z"/><path class="cls-7" d="M44.5,13.72s0,0,.06,0l.14-.2a1.05,1.05,0,0,0,0-.26,1.2,1.2,0,0,0-.12.23,1.2,1.2,0,0,0-.13.24Z"/><path class="cls-7" d="M44.51,13.75h0s0,0,.13-.27l.08-.16h0l-.07.18a1.54,1.54,0,0,1-.13.23h0v0l.11-.15a.82.82,0,0,0,.1-.27c.05,0,0,.2,0,.2l-.2.24Z"/><path class="cls-7" d="M44.89,13.6s0-.19,0-.23,0-.16,0-.3a.78.78,0,0,1-.09.53Z"/><path class="cls-7" d="M44.89,13.63l0,0s0,0,0-.17l.06-.37a.66.66,0,0,1-.05.54l0,0Z"/><path class="cls-7" d="M45.13,13A1.11,1.11,0,0,1,45,12.7a1.41,1.41,0,0,1,.16.21.07.07,0,0,1,0,.06Z"/><path class="cls-7" d="M45.53,13.18s0-.1,0-.2-.06-.19-.06-.22,0,0,.06,0,0,.25.07.39a0,0,0,0,1,0,0Z"/><path class="cls-7" d="M45.81,12.93s0,.1.07.23,0,.37.06.35,0,0,.06,0,.19,0,.18,0a1.29,1.29,0,0,1-.23-.24.86.86,0,0,1-.14-.29Z"/><path class="cls-7" d="M45.94,13.53h0l0-.11c0-.08,0-.18,0-.25A.93.93,0,0,0,45.8,13h0l0,0,.07.09a1.51,1.51,0,0,0,.1.17.85.85,0,0,0,.19.19l-.21.13Z"/><path class="cls-1" d="M47.22,12.51a24.76,24.76,0,0,1,2.4.63,23.14,23.14,0,0,1,2.27.88l-1.26,2.55c-.71-.27-1.4-.49-2.1-.71s-1.37-.42-2.07-.64Z"/><path class="cls-1" d="M50.64,16.59h0c-.6-.23-1.19-.42-1.78-.61l-.31-.1c-.48-.16-1-.3-1.42-.44l-.66-.2.75-2.73a19.88,19.88,0,0,1,2.42.61c.85.28,1.63.6,2.28.88l-1.26,2.59Zm-3.42-4.06-.74,2.69.64.18,1.42.44.31.1c.59.19,1.17.38,1.77.6L51.87,14c-.64-.25-1.42-.58-2.26-.85s-1.54-.45-2.39-.63Z"/><path class="cls-3" d="M47.05,13.11s1.18.27,2.32.63,2.24.84,2.24.84S50.89,16,50.89,16c-.68-.27-1.4-.53-2.12-.76s-1.42-.45-2.15-.61Z"/><path class="cls-10" d="M50.9,16.06h0c-.66-.26-1.38-.52-2.12-.76s-1.4-.44-2.15-.62L47,13.11a18.94,18.94,0,0,1,2.34.61c.74.24,2,.73,2.23.84-.1,0-1.14-.44-2.24-.8s-2.3-.62-2.31-.63l-.41,1.53a19.71,19.71,0,0,1,2.14.6c.74.24,1.45.49,2.1.75.63-1.28.7-1.43.72-1.45l0,0s-.53,1.07-.72,1.46v0Z"/><path d="M47.15,13.83c.12-.07.19-.09.26-.19h.41v.15l.26.15c.1.05.25.09.35.14l.9.08a1.28,1.28,0,0,1,.39.13.59.59,0,0,1,.23.24,3.5,3.5,0,0,0,.56.13c.19,0,.42,0,.61.05s.09.07,0,.12a.48.48,0,0,1-.38.14c-.28,0-.59-.16-.73-.13a.57.57,0,0,0,.32.32v.4l-.07.07-.08-.06a.35.35,0,0,0,0-.3c-.06-.08-.07-.12-.18-.13a.85.85,0,0,1-.41-.18h-.06a.33.33,0,0,1-.16.15h-.18l-.4-.09s0-.06,0-.07H49a1.72,1.72,0,0,0,.27,0v-.15l.27,0c-.05-.18-.07-.3-.32-.35l-.79,0v.11a2.29,2.29,0,0,0-.74,0c-.1,0-.26.07-.32.07l-.09,0c-.05,0-.05,0,0-.08a1.16,1.16,0,0,0,.5-.1.28.28,0,0,0,0-.11c-.22,0-.39,0-.45,0a1.15,1.15,0,0,1-.21-.08s0-.08,0-.08l.14,0a1.13,1.13,0,0,0,.46,0v-.12a.13.13,0,0,0-.05-.1l-.32,0c-.13,0-.11-.09-.11-.15Z"/><path d="M50.31,15.65l-.09-.06a.41.41,0,0,0,0-.31c-.06-.09-.07-.11-.16-.12a.8.8,0,0,1-.38-.16,2.44,2.44,0,0,0,.38.13c.11,0,.13,0,.18.1a.36.36,0,0,1,0,.35l.07.05,0,0,.08-.07v-.38a.53.53,0,0,1-.32-.32.54.54,0,0,1,.31,0,1.63,1.63,0,0,0,.43.08.46.46,0,0,0,.37-.13,2.3,2.3,0,0,0-.65-.14,3.78,3.78,0,0,1-.56-.13.54.54,0,0,0-.23-.24,1.28,1.28,0,0,0-.39-.13l-.89-.08L48.26,14,48.08,14,48,13.88l-.13-.07,0-.17-.39,0a.37.37,0,0,1-.18.14c-.06.1-.06.14,0,.16a1.23,1.23,0,0,1,.33,0,.19.19,0,0,1,.06.12v.12a.78.78,0,0,1-.48,0l-.09,0,0,0a.78.78,0,0,0,.52,0v-.1c-.06-.09-.27-.11-.35-.11s-.13-.1-.13-.15h0l.09-.07a.46.46,0,0,0,.17-.14h.43l0,.17.12.06.13.07.17.07.18.08.89.07a1.19,1.19,0,0,1,.4.14.61.61,0,0,1,.24.24,4.28,4.28,0,0,0,.54.12c.19,0,.43,0,.61,0h0l.08.07c0,.09-.14.23-.42.23a2.11,2.11,0,0,1-.45-.08,1.09,1.09,0,0,0-.25-.06c0,.06.13.22.29.29v.43l-.09.08Zm-.87-.51h-.19c-.42-.09-.42-.09-.42-.11s0-.09.17-.09a1.72,1.72,0,0,0,.27,0l0-.13.18,0-.16,0,0,.13A.58.58,0,0,1,49,15h-.14a1.79,1.79,0,0,0,.4.12h.17a.27.27,0,0,0,.14-.14l.06,0a.9.9,0,0,1-.19.15Zm.09-.37c-.07-.16-.1-.26-.33-.3l-.78,0,0,.09h-.33a1.52,1.52,0,0,0-.42,0l-.18,0-.15,0-.15-.06.07,0,.08.06v0l.15,0,.17,0a1.64,1.64,0,0,1,.43,0h.31l0-.08.81-.05c.25.05.29.17.33.34Zm-2.12-.19a1.73,1.73,0,0,0,.33-.12l-.21-.07h-.28s-.23-.07-.23-.1l0,0a.67.67,0,0,0,.21.09h.44a.16.16,0,0,1,.07.12.67.67,0,0,1-.36.1Z"/><path class="cls-1" d="M48.87,14.76a1.33,1.33,0,0,0,.39.06l.27,0c-.05-.18-.07-.3-.32-.35l-.79,0v.11l.44.18Z"/><path d="M49.26,14.84h0a1.39,1.39,0,0,1-.39-.06l-.45-.18,0-.12.81-.05c.25.05.29.17.33.34h0c-.07-.16-.1-.26-.33-.3l-.78,0,0,.09.37.14a1.41,1.41,0,0,0,.44.08h.2l-.2.05Z"/><path class="cls-2" d="M33.2,16.11,31.78,10.8,34,8.16,37,9.9l.52,5.63a39.14,39.14,0,0,0-4.32.58Z"/><path class="cls-9" d="M33.19,16.13h0L31.76,10.8l2.18-2.65L37,9.89l.53,5.64c-1.59.14-2.62.3-4.33.6Zm.75-7.95-2.15,2.63,1.43,5.28a39,39,0,0,1,4.3-.58L37,9.9l-3-1.72Z"/><path class="cls-6" d="M28.1,11.68l.52.41-.09.71.67-.28.53.4.07-.65.56-.22-.46-.43L30,11s-.66.24-.66.23l-.48-.4s-.11.62-.11.62Z"/><path class="cls-16" d="M29.75,13l-.57-.43-.65.28.07-.74-.51-.38.65-.3a3.7,3.7,0,0,1,.1-.61s.51.39.51.39l.64-.24-.07.68.45.42-.56.25-.06.68Zm-.56-.47.52.38.07-.61.57-.24-.47-.4L30,11l-.64.27-.49-.4a5.78,5.78,0,0,1-.08.6l-.66.27.53.37-.09.73.64-.3Z"/><path class="cls-17" d="M28.11,11.69l2.24.36-.56.23-.53-.39s.48,1,.47,1l-.53-.39.05-.62-.71.9.1-.71Z"/><polygon class="cls-16" points="28.74 11.43 29.26 11.87 28.85 10.81 28.74 11.43"/><path class="cls-16" d="M29.33,11.22s-.08.65-.07.65S30,11,30,11s-.65.25-.66.24Z"/><path class="cls-6" d="M49.42,10.78l.13.64L49,11.9l.69.21.14.65.49-.45.56.18-.06-.62.51-.43-.67-.25s-.09-.6-.1-.6l-.49.4Z"/><path class="cls-16" d="M49.83,12.8l-.14-.68-.69-.2.54-.51-.14-.63.69.19.47-.4a2.8,2.8,0,0,1,.13.64l.65.21-.5.46.07.61-.59-.16-.49.47Zm-.42-2,.16.62-.55.5.69.18.15.62.46-.43.58.18-.09-.6.51-.45c-.66-.2-.66-.21-.66-.22s-.09-.57-.11-.61a5.65,5.65,0,0,1-.46.41l-.68-.2Z"/><path class="cls-16" d="M49.42,10.79l1.47,1.69-.57-.17-.16-.64-.3,1.07s-.15-.6-.15-.63l.44-.44L49,11.9l.55-.47Z"/><polygon class="cls-16" points="50.08 10.98 50.18 11.65 50.58 10.58 50.08 10.98"/><path class="cls-16" d="M50.67,11.2l-.48.44c.09,0,1.15-.2,1.14-.21s-.66-.22-.66-.23Z"/><path class="cls-3" d="M31.79,10.82A8.79,8.79,0,0,1,34.35,10,19.66,19.66,0,0,1,37,9.9l.11,1.39a17.57,17.57,0,0,0-2.49.16,9.55,9.55,0,0,0-2.52.61Z"/><path class="cls-10" d="M32.11,12.09l-.34-1.27A8.29,8.29,0,0,1,34.35,10a17.6,17.6,0,0,1,2.49-.13H37s.13,1.4.13,1.41l-.21,0a14.86,14.86,0,0,0-2.3.15,9.36,9.36,0,0,0-2.51.61ZM37,9.9l-.16,0a17.6,17.6,0,0,0-2.49.13,8.8,8.8,0,0,0-2.55.78L32.13,12a9.46,9.46,0,0,1,2.51-.61,14.86,14.86,0,0,1,2.3-.15h.19S37,9.9,37,9.9Z"/><path class="cls-3" d="M32.45,13.27s.39,1.47.39,1.47a22,22,0,0,1,2.26-.44c.76-.11,1.56-.17,2.29-.22l-.12-1.43a14.36,14.36,0,0,0-2.45.06,12.72,12.72,0,0,0-2.37.56Z"/><path class="cls-10" d="M32.83,14.76v0a9.68,9.68,0,0,1-.39-1.48,12.72,12.72,0,0,1,2.37-.57,15.26,15.26,0,0,1,2.46-.06l.14,1.45c-.71.07-1.53.13-2.31.24a21.34,21.34,0,0,0-2.25.44Zm3.47-2.12a11.1,11.1,0,0,0-1.48.09,12.4,12.4,0,0,0-2.36.56s.24.86.4,1.42c.71-.17,1.46-.32,2.24-.43s1.59-.17,2.29-.21l-.14-1.41-1,0Z"/><path class="cls-1" d="M28.9,17.8H50.51V31.66A10.94,10.94,0,0,1,40,41.06c-5.11.22-10.77-4-11.18-9.45Z"/><path class="cls-3" d="M39.64,41.14c-4.8,0-10.45-3.91-10.87-9.53l.05-13.81,21.69-.08.08,13.94c-.57,5.59-6,9.48-10.5,9.48ZM50.43,17.8l-21.53.07,0,13.74c.42,5.68,6.26,9.58,11.1,9.37,4.5,0,9.84-3.83,10.4-9.33V17.8Z"/><path class="cls-3" d="M29.35,18.28H50.06V31.56a10.48,10.48,0,0,1-10,9c-4.91.22-10.33-3.8-10.72-9Z"/><path class="cls-3" d="M39.64,40.66c-4.6,0-10-3.75-10.41-9.14l0-13.24,20.79-.07.07,13.35c-.54,5.36-5.74,9.09-10.06,9.09ZM50,18.28l-20.64.08,0,13.16c.4,5.44,6,9.17,10.64,9,4.31,0,9.43-3.67,10-8.94V18.28Z"/><rect class="cls-1" x="33.52" y="18.35" width="4.12" height="4.43"/><path class="cls-1" d="M45.9,31.66V36l2.32,0a10.07,10.07,0,0,0,1.72-4.39Z"/><path class="cls-1" d="M48.23,36.07l-2.33,0,0-4.39,1.94,0h2.12a9.65,9.65,0,0,1-1.7,4.42ZM45.9,31.68l0,4.35h2.29a10,10,0,0,0,1.71-4.37l-2.1,0Z"/><path class="cls-1" d="M41.78,36.08v4.21a10.65,10.65,0,0,0,4.08-1.86V36.08Z"/><path class="cls-1" d="M41.76,40.31V36.08l4.09,0,0,2.37a10.73,10.73,0,0,1-4.1,1.88Zm4.07-4.23-4,0,0,4.16a10.77,10.77,0,0,0,4.05-1.84l0-2.34Z"/><path class="cls-1" d="M33.55,36.08v2.35a12,12,0,0,0,4.08,1.82V36.08Z"/><path class="cls-1" d="M37.65,40.27h0a11.94,11.94,0,0,1-4.08-1.82V36.08l4.09,0,0,4.21Zm0-4.19-4.05,0,0,2.33a11.87,11.87,0,0,0,4,1.79V36.08Z"/><path class="cls-1" d="M29.42,31.66A8.76,8.76,0,0,0,31.09,36l2.4.05V31.66Z"/><path class="cls-1" d="M33.51,36.05h0l-2.4,0a8.81,8.81,0,0,1-1.69-4.34l4.1,0v4.41Zm0-4.39-4.06,0A9.07,9.07,0,0,0,31.11,36l2.36,0V31.66Z"/><rect class="cls-1" x="29.4" y="22.78" width="4.12" height="4.43"/><rect class="cls-1" x="37.64" y="22.78" width="4.12" height="4.43"/><rect class="cls-1" x="41.76" y="18.33" width="4.12" height="4.43"/><rect class="cls-1" x="45.88" y="22.78" width="4.12" height="4.43"/><rect class="cls-1" x="33.52" y="27.21" width="4.12" height="4.43"/><rect class="cls-1" x="41.76" y="27.21" width="4.12" height="4.43"/><rect class="cls-1" x="37.64" y="31.64" width="4.12" height="4.43"/><path class="cls-7" d="M43.77,13.12a1.7,1.7,0,0,1-.05-.23c0-.06,0-.16-.08-.29a.84.84,0,0,1,.13.52Z"/><path class="cls-7" d="M43.77,13.14s0,0-.06-.17l-.09-.36a.64.64,0,0,1,.17.51l0,0Z"/></g></g></g></g></svg>