<svg xmlns="http://www.w3.org/2000/svg" viewBox="0 0 79.77 54.9"><defs><style>.cls-1{fill:#fff;}.cls-2{fill:#bc0030;}.cls-3{fill:#f4d134;}</style></defs><title>Egypt</title><g id="Layer_2" data-name="Layer 2"><g id="flags"><g id="group_a" data-name="group a"><g id="egypt"><rect y="36.6" width="79.77" height="18.3"/><rect class="cls-1" y="18.3" width="79.77" height="18.3"/><rect class="cls-2" width="79.77" height="18.3"/><path class="cls-3" d="M36.28,33.42c.06,0,.06.07,0,.07s-.12-.07,0-.07Zm0-.25c-.07,0-.07.13,0,.13s.13-.13,0-.13Zm0,.95c-.07,0-.07.12,0,.12s.06-.12,0-.12Zm.25.07c-.12,0-.12.12,0,.12s.07-.12,0-.12Zm.25.05c-.05,0-.05.13,0,.13s.13-.13,0-.13Zm3.93-.62c-.06,0-.06.12,0,.12s.06-.12,0-.12Zm.06.25c-.12,0-.12.05,0,.05s.06-.05,0-.05Zm.19.62c-.06,0-.06.14,0,.14s.07-.14,0-.14Zm.26,0c-.14,0-.14.14,0,.14s.06-.14,0-.14Zm2.59-.5c-.13,0-.13.07,0,.07s.07-.07,0-.07Zm-3.92,1.17a16.65,16.65,0,0,0,4-.37.53.53,0,0,0,.51-.57.61.61,0,0,0,.27-.42s0-.09,0-.09h.05a.16.16,0,0,0,.11-.17.15.15,0,0,0-.15-.14h-.06a1.43,1.43,0,0,1-.11-.12A.56.56,0,0,0,44.2,33c-.07-.38-.52-.55-1-.39a11.57,11.57,0,0,1-3.3.31l-.68,0a11.28,11.28,0,0,1-2.63-.28c-.48-.15-.93,0-1,.38a.55.55,0,0,0-.33.26.68.68,0,0,1-.13.12h0a.16.16,0,0,0-.15.14.16.16,0,0,0,.11.17h0a.24.24,0,0,1,0,.09.61.61,0,0,0,.27.42.51.51,0,0,0,.5.56,16.24,16.24,0,0,0,4,.38Zm-4.52-1.55.12-.14c.07-.09.11-.14.19-.14a.12.12,0,0,0,.13,0,.14.14,0,0,0,.06-.12c0-.07,0-.27.33-.27a1,1,0,0,1,.28,0,10.6,10.6,0,0,0,2.72.29l.69,0a11.88,11.88,0,0,0,3.4-.32,1,1,0,0,1,.28,0c.33,0,.33.2.33.27a.15.15,0,0,0,.07.12.18.18,0,0,0,.14,0c.06,0,.11.06.18.15a1.34,1.34,0,0,0,.11.14l0,.11c0,.14,0,.21-.17.25a.16.16,0,0,0-.11.15c0,.25,0,.31-.26.36a16.75,16.75,0,0,1-3.94.37,16.88,16.88,0,0,1-4-.37c-.25,0-.25-.12-.25-.36a.16.16,0,0,0-.11-.15c-.11,0-.14-.11-.17-.25l0-.11Zm.91,0a.18.18,0,0,0,.13-.12.16.16,0,0,0-.13-.12c-.07,0-.18,0-.18.12s0,.12.18.12Zm0-.2c.12,0,.18-.07.18-.15s-.06-.14-.18-.14-.13.1-.13.14.09.15.13.15Zm0,.95s.13-.1.13-.15-.08-.15-.13-.15-.13.1-.13.15.09.15.13.15Zm.25.07a.16.16,0,0,0,.14-.15s-.09-.15-.14-.15-.18.07-.18.15a.17.17,0,0,0,.18.15Zm.25.05c.12,0,.18-.07.18-.14s-.06-.15-.18-.15-.12.1-.12.15.08.14.12.14Zm3.93-.62s.13-.1.13-.15-.09-.15-.13-.15-.13.1-.13.15.08.15.13.15Zm.25.89s.13-.11.13-.16-.09-.15-.13-.15-.13.11-.13.15.08.16.13.16Zm.26,0c.07,0,.13-.09.13-.16s-.08-.15-.13-.15a.16.16,0,1,0,0,.31Zm2.59-.57a.18.18,0,0,0,.13-.12.16.16,0,0,0-.13-.12c-.07,0-.18,0-.18.12s0,.12.18.12ZM37,34.23a.2.2,0,0,0,.11,0c.1-.05.14-.18.17-.33a.28.28,0,0,0-.09-.16.14.14,0,0,0-.14.06l.09.1,0,0c0,.12-.06.19-.09.2s-.07,0-.12,0l-.11,0a1.46,1.46,0,0,0,0-.17s0,0,0,0l0-.06,0,0-.05-.09s-.08.07-.09.2a.76.76,0,0,0,0,.11l-.12,0a.14.14,0,0,1-.06-.07,2.34,2.34,0,0,0,.16-.49l0-.16a.07.07,0,0,0-.06-.1.08.08,0,0,0-.1.06l0,.16c0,.18-.1.36-.15.49s.12.28.18.27a.38.38,0,0,0,.19,0,.42.42,0,0,0,.19.09.58.58,0,0,0,.14,0Zm-.5-.15a.1.1,0,0,0,.09-.07.09.09,0,0,0-.06-.1.3.3,0,0,1-.19-.1s0,0,.13-.05a.09.09,0,0,0,.06-.1.09.09,0,0,0-.1-.07c-.21,0-.26.14-.26.21s.12.22.31.27Zm1.83.51h0a.47.47,0,0,0,.2-.4v-.57c0-.1-.17-.1-.17,0v.57c0,.11-.06.22-.1.22h0s0,0-.08-.17l-.1-.06a.25.25,0,0,0,.11-.21.27.27,0,0,0-.15-.25.25.25,0,0,0-.31.13.25.25,0,0,0,0,.28.39.39,0,0,1-.26,0,.37.37,0,0,0,0-.11c0-.11-.08-.17-.23-.14a.17.17,0,0,0,0,.17.32.32,0,0,0,0,.14.2.2,0,0,1-.11.09.08.08,0,1,0,.07.15.33.33,0,0,0,.17-.14.69.69,0,0,0,.46,0,.3.3,0,0,0,.14.05c0,.23.13.27.15.24a.18.18,0,0,0,.11,0Zm.33-.19a.08.08,0,0,0,.08-.09,2.68,2.68,0,0,1,0-.35c0-.12,0-.25,0-.34s-.17-.1-.17,0a2.11,2.11,0,0,1,0,.32,2.94,2.94,0,0,0,0,.37.09.09,0,0,0,.09.09Zm.19.37a.07.07,0,0,0,.06,0,.64.64,0,0,0,.25-.3h.51c.1,0,.1,0,.13.1a.29.29,0,0,0,.2.11c.08,0,.12-.11.16-.22a.5.5,0,0,0,0-.13c0-.18,0-.28-.21-.25a.69.69,0,0,1-.44,0h-.12a.14.14,0,0,0-.1-.1.16.16,0,0,0-.12.13.12.12,0,0,0,.06.1c0,.11,0,.12,0,.12h0v-.07A.23.23,0,0,0,39,34a.17.17,0,0,0-.12.06.2.2,0,0,0,0,.2l.09.08a.49.49,0,0,1-.2.24.09.09,0,0,0,0,.12.07.07,0,0,0,.06,0Zm.57-.49s0-.06,0-.08h.08a.82.82,0,0,0,.52,0,.37.37,0,0,1,0,.13l-.07.13c0-.08,0-.21-.27-.21Zm.95.17h0c.09,0,.28-.07.28-.21a.21.21,0,0,0-.13-.19.19.19,0,0,0-.21,0,.21.21,0,0,0-.05.17l-.09,0-.05.09v-.09s0,0,0,.08.07.08.12.08a.16.16,0,0,1,.12,0Zm.51,0a.27.27,0,0,0,.16-.06h0a.19.19,0,0,0,.2,0c.19,0,.25-.07.26-.32a0,0,0,0,0,0,0V34s-.07-.12-.11-.12a.13.13,0,0,0-.13.05s0,.11.07.17,0,.13-.1.14l-.14,0a1.48,1.48,0,0,0,0-.59.09.09,0,0,0-.1-.06s-.08.06-.06.11a1.77,1.77,0,0,1,0,.5.33.33,0,0,0-.23.17.15.15,0,0,0,.08.11l.07,0Zm.76.21a.09.09,0,0,0,.06,0,.61.61,0,0,0,.18-.62c-.07-.08-.15-.15-.24-.12a.18.18,0,0,0-.09.18s0,.14.17.23a.7.7,0,0,1-.14.21.07.07,0,0,0,0,.12.07.07,0,0,0,.06,0Zm.44-.13h0a.33.33,0,0,0,.23-.26,2.34,2.34,0,0,0,.86-.26.09.09,0,0,0,0-.12.08.08,0,0,0-.11,0,2.19,2.19,0,0,1-.76.25.24.24,0,0,0-.11-.21.35.35,0,0,0-.14,0,.23.23,0,0,0-.14.23.17.17,0,0,0,.2.12.21.21,0,0,1-.11.09.08.08,0,0,0,0,.16Zm.76-.24a.2.2,0,0,0,.16-.07A.18.18,0,0,0,43,34a.24.24,0,0,0-.15-.21.21.21,0,0,0-.15,0v0l-.07-.26a.08.08,0,0,0-.1-.06.09.09,0,0,0-.06.1l.07.26v0a.33.33,0,0,0-.14.3c0,.09.17.09.17,0a.2.2,0,0,1,0-.1.88.88,0,0,0,.11.24.18.18,0,0,0,.1,0Zm.47-.17a.36.36,0,0,0,.27-.14.23.23,0,0,0,0-.23.37.37,0,0,0-.51.06A.39.39,0,0,0,43,34a.24.24,0,0,0,.24.16Zm.52-.22a.46.46,0,0,0,.3-.15s0-.14-.08-.15-.13.08-.15.11v0h-.08c-.06,0-.13-.16-.13-.42a.27.27,0,0,0-.16-.27.33.33,0,0,0-.36.08.08.08,0,1,0,.12.12.18.18,0,0,1,.18,0,.12.12,0,0,1,0,.12c0,.3.08.49.22.57l.1,0Zm-9.41-1,.06,0,5.51-5,5.38,5a.09.09,0,0,0,.1,0,.08.08,0,0,0,0-.08l-.39-9.18c0-.89-.53-1.07-.94-1.07a2.94,2.94,0,0,0-1.33.44,3.25,3.25,0,0,1-3,.18A3.19,3.19,0,0,1,37,23a2.94,2.94,0,0,0-1.33-.44c-.41,0-.9.18-.94,1.07l-.39,9.18a.08.08,0,0,0,.05.08ZM35.62,22.7a2.67,2.67,0,0,1,1.24.42,3.32,3.32,0,0,0,3,.2,3.36,3.36,0,0,0,3-.2c1.16-.66,2-.54,2,.5l.38,9L40,27.68a.09.09,0,0,0-.12,0L34.47,32.6l.38-9c0-.61.28-.92.77-.92Zm2.83,1.36.25,0a1.36,1.36,0,0,0,.86-.44l.1.12.16.21.07.12.06-.12.16-.21.1-.12a1.36,1.36,0,0,0,.86.44l.25,0-.18-.18L41,23.75a1.85,1.85,0,0,0,.58.07h.25l-.21-.14a2.6,2.6,0,0,1-.73-2.07c.13-1.06-.14-1.66-.83-1.8l-.12,0a1.58,1.58,0,0,0-.4-.06.48.48,0,0,0-.36.24A1.19,1.19,0,0,0,39,19.9a.56.56,0,0,1-.26-.08c-.24-.09-.61,0-.61.52v.12l.19-.1.25.13.09.06a.72.72,0,0,1,.36.55,2.71,2.71,0,0,1-.87,2.59l-.15.13h.21a1.83,1.83,0,0,0,.57-.07l-.12.13-.18.18Zm1.75-.78-.06.12a2.33,2.33,0,0,1-.16.2l-.09.13a1.47,1.47,0,0,1-.1-.13,1.15,1.15,0,0,1-.15-.2l-.07-.12-.07.12a.94.94,0,0,1-.58.4l.14-.19-.1-.12a1.34,1.34,0,0,1-.59.17,2.86,2.86,0,0,0,.77-2.58.85.85,0,0,0-.42-.66l-.14-.09a.61.61,0,0,0-.31-.12h0c.06-.35.32-.26.37-.25a.66.66,0,0,0,.3.1.57.57,0,0,1,.24.08l.08.05,0-.08a.36.36,0,0,1,.32-.21,1.43,1.43,0,0,1,.29,0c.06,0,.11,0,.15,0,.59.12.81.65.69,1.62a3,3,0,0,0,.62,2.07,1.23,1.23,0,0,1-.56-.17l-.1.12.14.19a.94.94,0,0,1-.58-.4l-.07-.12Zm.61.42h0a.08.08,0,0,0,0-.11,2.47,2.47,0,0,1-.35-1.23c0-.09-.17-.09-.17,0a2.73,2.73,0,0,0,.37,1.31.07.07,0,0,0,.07,0Zm-.61-.18h0a.1.1,0,0,0,0-.12,2.12,2.12,0,0,1-.18-1c0-.09-.17-.09-.17,0a2.34,2.34,0,0,0,.2,1.13.09.09,0,0,0,.07,0ZM39,23.7a.07.07,0,0,0,.07,0,2.66,2.66,0,0,0,.37-1.31c0-.09-.17-.09-.17,0a2.51,2.51,0,0,1-.35,1.23.08.08,0,0,0,0,.11Zm.61-.18a.09.09,0,0,0,.07,0,2.32,2.32,0,0,0,.21-1.13c0-.09-.17-.09-.17,0a2.09,2.09,0,0,1-.19,1,.1.1,0,0,0,0,.12Zm-1.35-3.24c.13,0,.19,0,.37.14a.83.83,0,0,1,.47.61c-.06-.19.06-.39.2-.32a.87.87,0,0,0-1-.43Zm.84.79h0s0,0,0-.05l0-.05a0,0,0,0,0,0,0,.24.24,0,0,1,.12-.21h.06s0,0,0,0a.92.92,0,0,0-.83-.51.26.26,0,0,0-.25.12.64.64,0,0,1,.27.1l0,0,.07.08A.8.8,0,0,1,39,21h0S39,21,39,21h0a0,0,0,0,0,0,0Zm-.71-.79a.87.87,0,0,1,.85.38.16.16,0,0,0-.12.06l0,.07a1,1,0,0,0-.42-.4l-.09-.05a.5.5,0,0,0-.17-.06Zm1.28,8.47-.76,3.48.25.25.26-.2.44-3.1-.19,3.1.26.32.25-.32L40,29.18l.44,3.1.26.2.25-.25-.76-3.48Zm.26,4,.32-.44-.09-1.47.22,1.53.36.19.27-.32-.83-3.53-.58.05-.74,3.55.34.25.29-.24.21-1.46-.08,1.5.31.39Zm0-3.49.19,3-.2.25-.17-.2.18-3.06Zm.18-.47.78,3.41-.16.25-.23-.15L40,29.17l-.13,0-.14,0-.41,3.06-.17.2-.23-.19.69-3.42.44-.06ZM35.39,23.3a1.83,1.83,0,0,0-.62.32l-.39,9.17.64-.56.37-8.93Zm.77.64c-.07-.07-.45-.38-.57-.5l-.39,8.62.64-.66.32-7.46Zm.69.57c-.07-.07-.32-.25-.44-.38l-.32,7.11.51-.5.25-6.23Zm.76.32a1.8,1.8,0,0,1-.51-.2l-.25,5.91.5-.41.26-5.3Zm.69,0a1.51,1.51,0,0,1-.5.05l-.19,4.87.51-.5.18-4.42Zm6.08-1.53.37,8.93.64.56L45,23.62a1.83,1.83,0,0,0-.62-.32Zm-.77.64.32,7.46.64.56-.39-8.52c-.12.12-.5.43-.57.5Zm-.69.57.26,6.23.5.4-.32-7c-.12.13-.37.31-.44.38Zm-.75.32L42.42,30l.5.41-.25-5.82a1.87,1.87,0,0,1-.5.2Zm-.7,0,.18,4.42.52.5L42,24.88a1.51,1.51,0,0,1-.5-.05ZM38.75,33s.07,0,.07-.06l.87-4.12-1.45-1.65a.11.11,0,0,0-.08,0,.09.09,0,0,0-.06.06l-1.52,5.38a.13.13,0,0,0,0,.06.07.07,0,0,0,.06,0l2.08.32Zm-2-.46,1.45-5.16,1.35,1.48-.88,4-1.92-.29ZM41,33h0l2.08-.32a.07.07,0,0,0,.06,0,.13.13,0,0,0,0-.06L41.67,27.2a.09.09,0,0,0-.06-.06.11.11,0,0,0-.07,0l-1.48,1.72.89,4A.09.09,0,0,0,41,33Zm.53-5.62L43,32.54l-1.92.29-.89-3.9,1.36-1.55Zm-3.7,2.21s0,0,.06,0l.57-.63a.09.09,0,0,0-.13-.11l-.48.53L37.75,29a.08.08,0,0,0-.11,0,.08.08,0,0,0,0,.11l.18.44a.06.06,0,0,0,.06,0Zm.7.37a.09.09,0,0,0,.07,0l.63-.82a.09.09,0,0,0-.14-.1l-.5.65-.17-1.56a.07.07,0,0,0-.09-.07.08.08,0,0,0-.08.09l.2,1.77a.09.09,0,0,0,.06.07Zm.75.45h0a.08.08,0,0,0,0-.11L39,29.34a.08.08,0,0,0-.11,0,.08.08,0,0,0,0,.11l.38.94a.07.07,0,0,0,.07.06Zm-.56.76a.09.09,0,0,0,.06,0l.51-.51a.08.08,0,1,0-.12-.12l-.41.42-.28-.88a.08.08,0,0,0-.08-.06.1.1,0,0,0-.08,0l-.22.42-.2-.47a.1.1,0,0,0-.06-.05.07.07,0,0,0-.07,0l-.56.5a.08.08,0,0,0,0,.12.07.07,0,0,0,.11,0l.47-.42.22.51a.08.08,0,0,0,.07,0s.07,0,.08,0l.22-.39.26.82s0,.05.06.06Zm.19,1.14h0a.09.09,0,0,0,.06-.1l-.19-1s0-.06-.06-.06a.09.09,0,0,0-.09,0l-.4.52-.21-.61s0-.06-.06-.06-.07,0-.08,0l-.36.46-.33-.82a.08.08,0,0,0-.11,0,.08.08,0,0,0-.05.11l.39.94a.11.11,0,0,0,.07.06.09.09,0,0,0,.08,0l.34-.44.2.61a.11.11,0,0,0,.07.06.08.08,0,0,0,.08,0l.39-.5.16.78a.08.08,0,0,0,.08.07Zm-.51.7,0,0,.39-.32a.09.09,0,0,0,0-.12.08.08,0,0,0-.12,0l-.29.24-.21-.65a.1.1,0,0,0-.08-.06.12.12,0,0,0-.08,0l-.29.49-.25-.67a.08.08,0,0,0-.07-.05.13.13,0,0,0-.08,0l-.38.52a.09.09,0,0,0,.14.1l.29-.39.26.69a.08.08,0,0,0,.07.05s.06,0,.08,0l.28-.48.2.59,0,0Zm3.48-3.42h0a.06.06,0,0,0,.06,0l.18-.44A.08.08,0,1,0,42,29l-.13.32-.48-.52a.09.09,0,0,0-.13.11l.57.63.06,0Zm-.69.37h0a.07.07,0,0,0,.06-.07l.19-1.77a.08.08,0,0,0-.08-.09.07.07,0,0,0-.09.07l-.16,1.56L40.65,29a.08.08,0,0,0-.12,0,.08.08,0,0,0,0,.12l.64.82a.09.09,0,0,0,.07,0Zm-.76.45a.07.07,0,0,0,.07-.06l.38-.94a.08.08,0,0,0,0-.11.08.08,0,0,0-.11,0l-.37.95a.08.08,0,0,0,0,.11Zm.57.76h0a.09.09,0,0,0,.06-.06l.2-.83.27.41a.11.11,0,0,0,.08,0,.08.08,0,0,0,.07,0l.22-.52.48.43a.08.08,0,0,0,.12,0,.09.09,0,0,0,0-.12L42,30a.11.11,0,0,0-.08,0,.12.12,0,0,0,0,.05l-.2.48L41.35,30a.09.09,0,0,0-.09,0,.06.06,0,0,0-.06.06l-.22.87-.4-.41a.08.08,0,1,0-.12.12l.51.51a.06.06,0,0,0,.06,0Zm-.2,1.14a.08.08,0,0,0,.08-.07l.16-.78.39.5a.08.08,0,0,0,.08,0,.11.11,0,0,0,.07-.06l.2-.61.35.44s.05,0,.08,0a.12.12,0,0,0,.06-.06l.39-.94a.08.08,0,0,0,0-.11.08.08,0,0,0-.11,0l-.33.82-.36-.46s-.05,0-.08,0,0,0-.06.06l-.2.61-.41-.51a.07.07,0,0,0-.08,0,.07.07,0,0,0-.07.06l-.19,1a.09.09,0,0,0,.06.1Zm.52.7h0a.1.1,0,0,0,.06,0l.19-.59.28.48s.05.06.08,0a.08.08,0,0,0,.07-.05l.27-.69.28.39a.09.09,0,0,0,.12,0,.08.08,0,0,0,0-.11l-.38-.52a.11.11,0,0,0-.08,0,.08.08,0,0,0-.07.05L42,32.6l-.29-.49a.12.12,0,0,0-.08,0,.09.09,0,0,0-.07.06l-.22.65L41,32.54a.08.08,0,0,0-.12,0,.09.09,0,0,0,0,.12l.39.32.06,0Zm-1.46-3.26h0c1.63-1.08,2.36-2.55,2.37-5a3.74,3.74,0,0,1-2.44-.68,3.34,3.34,0,0,1-2.11.69h0a.58.58,0,0,0-.32,0c.07,2.36.8,3.83,2.43,4.91Zm-2.42-4.86h.27a3.09,3.09,0,0,0,2.11-.71,3.46,3.46,0,0,0,2.18.71c.09,0,.18,0,.2-.07-.07,2.3-.77,3.74-2.34,4.8a5.51,5.51,0,0,1-2.42-4.73Zm2.42,4.55A5.24,5.24,0,0,0,42,25a3.29,3.29,0,0,1-2.15-.63,3.52,3.52,0,0,1-2.22.63,5.44,5.44,0,0,0,2.22,4.43Zm0,.08h0A5.35,5.35,0,0,0,42.12,25a.14.14,0,0,0,0-.06l-.06,0a3.21,3.21,0,0,1-2.1-.61.09.09,0,0,0-.1,0,3.44,3.44,0,0,1-2.17.61l-.05,0a.09.09,0,0,0,0,.06,5.57,5.57,0,0,0,2.25,4.5Zm-2.13-4.43a3.49,3.49,0,0,0,2.12-.61,3.52,3.52,0,0,0,2.08.61,5.17,5.17,0,0,1-2.07,4.26,5.36,5.36,0,0,1-2.13-4.26Zm1,8.19.44,0c.3,0,.4-.21.39-.36a.34.34,0,0,0-.34-.31h0a6.75,6.75,0,0,1-1.51-.07,10.41,10.41,0,0,1-1.45-.33.4.4,0,0,0-.38.29c0,.08,0,.27.28.4.46.12,1.17.25,1.47.31a7.6,7.6,0,0,0,1.1.09Zm-2.45-.92h0a7.55,7.55,0,0,0,1.41.32,7.13,7.13,0,0,0,1.54.08.16.16,0,0,1,.16.15c0,.09-.08.16-.24.18A5.94,5.94,0,0,1,37.69,33c-.3-.05-1-.18-1.44-.3-.07,0-.19-.1-.17-.2a.23.23,0,0,1,.23-.16Zm4.7.92a7.6,7.6,0,0,0,1.1-.09c.31-.06,1-.19,1.48-.32.29-.12.28-.31.27-.39a.41.41,0,0,0-.46-.28,8,8,0,0,1-1.37.32,6.66,6.66,0,0,1-1.51.07.35.35,0,0,0-.34.31c0,.15.09.31.39.36l.44,0Zm-.5-.53a6.56,6.56,0,0,0,1.54-.07,8.78,8.78,0,0,0,1.43-.32.23.23,0,0,1,.21.16c0,.1-.09.17-.16.19-.44.13-1.15.26-1.45.31a6.45,6.45,0,0,1-1.49.07c-.16,0-.25-.09-.24-.18a.19.19,0,0,1,.16-.16Zm-4.8.31a.07.07,0,0,0,.08-.05s.08-.06.14-.08a.37.37,0,0,0,.24-.17.46.46,0,0,0,0-.22s0-.07,0-.14,0-.06,0-.09a.19.19,0,0,0-.11-.05.45.45,0,0,0-.4.23.56.56,0,0,0,0,.53.08.08,0,0,0,.07,0Zm.31-.62a.24.24,0,0,0,0,.12.2.2,0,0,1,0,.13s-.08.06-.14.08l-.11,0a.35.35,0,0,1,.06-.24.33.33,0,0,1,.2-.14Zm1.65,1.16a.09.09,0,0,0,.09-.08c0-.09,0-.12.09-.18a.34.34,0,0,0,.16-.29c0-.17-.09-.41-.28-.41a.35.35,0,0,0-.33.32.38.38,0,0,0,.1.35.33.33,0,0,1,.09.21.09.09,0,0,0,.08.08Zm.06-.79c.05,0,.11.13.11.24a.21.21,0,0,1-.1.17.17.17,0,0,0-.06.06.18.18,0,0,0,0-.07.26.26,0,0,1-.07-.23.19.19,0,0,1,.17-.17Zm1.9.82a.08.08,0,0,0,.07,0,.73.73,0,0,0,.1-.7.34.34,0,0,0-.32-.19s-.08.06-.09.09a.2.2,0,0,0,0,.13.3.3,0,0,0-.14.24c0,.1.09.16.17.22s.15.1.15.16a.08.08,0,0,0,.06.08Zm0-.72a.11.11,0,0,1,.06.07.5.5,0,0,1,0,.38l-.14-.11a.29.29,0,0,1-.1-.08s0-.07.08-.11a.25.25,0,0,0,.11-.15Zm4.47.15a.08.08,0,0,0,.07,0,.56.56,0,0,0,0-.53.47.47,0,0,0-.49-.22.06.06,0,0,0-.06,0,.11.11,0,0,0,0,.08c.05.07.05.09,0,.14a.46.46,0,0,0,0,.22.37.37,0,0,0,.24.17c.06,0,.13,0,.14.08s0,0,.08.05Zm-.31-.63a.3.3,0,0,1,.2.15.35.35,0,0,1,.06.24l-.11,0a.35.35,0,0,1-.14-.07.23.23,0,0,1,0-.14.28.28,0,0,0,0-.13ZM42.1,33.6a.09.09,0,0,0,.08-.08.33.33,0,0,1,.09-.21.39.39,0,0,0,.11-.33.37.37,0,0,0-.34-.34c-.19,0-.28.24-.28.41a.34.34,0,0,0,.16.29c0,.06.09.09.09.18a.09.09,0,0,0,.09.08ZM42,32.81a.19.19,0,0,1,.17.19.24.24,0,0,1-.07.21.18.18,0,0,0,0,.07L42,33.22a.21.21,0,0,1-.1-.17c0-.11.06-.24.11-.24Zm-1.9.82h0a.08.08,0,0,0,.06-.08c0-.06.07-.11.15-.16s.17-.12.17-.22-.09-.2-.18-.33a.08.08,0,0,0,0-.08.1.1,0,0,0-.08,0,.34.34,0,0,0-.32.19.73.73,0,0,0,.1.7.08.08,0,0,0,.07,0Zm0-.72a.25.25,0,0,0,.11.15c.05,0,.08.07.08.11s-.06.06-.1.08l-.14.11a.5.5,0,0,1,0-.38.11.11,0,0,1,.06-.07Zm-3.52-.25a.05.05,0,0,0,.05,0,.06.06,0,0,0,0-.07.64.64,0,0,0-.42-.14.06.06,0,0,0-.06,0,.07.07,0,0,0,0,.06l.38.13Zm.69.19a.06.06,0,0,0,.06,0,.07.07,0,0,0,0-.08c-.18-.1-.52-.18-.53-.08a.08.08,0,0,0,0,.07l.45.12Zm1.4.19h0L39.2,33a.06.06,0,0,0,0-.06.06.06,0,0,0-.06-.06.87.87,0,0,0-.48.07.07.07,0,0,0,0,.07.07.07,0,0,0,.06,0ZM38.5,33a.05.05,0,0,0,0,0,.07.07,0,0,0,0-.06c-.15-.15-.41-.07-.52,0a.06.06,0,0,0,0,.07.07.07,0,0,0,.06,0Zm4.61-.32h0l.38-.13a.07.07,0,0,0,0-.06.06.06,0,0,0-.06,0,.68.68,0,0,0-.42.14.06.06,0,0,0,0,.07.05.05,0,0,0,0,0Zm-.69.19h0l.45-.12a.07.07,0,0,0,0-.07c0-.1-.34,0-.53.08a.07.07,0,0,0,0,.08.06.06,0,0,0,.06,0ZM41,33a.06.06,0,0,0,0-.11.87.87,0,0,0-.48-.07.06.06,0,0,0-.06.06.06.06,0,0,0,0,.06L41,33Zm.69-.06a.07.07,0,0,0,.06,0,.06.06,0,0,0,0-.07.47.47,0,0,0-.52,0,.07.07,0,0,0,0,.06.05.05,0,0,0,.06,0Zm-.95-12.52a.93.93,0,0,0-.66-.63,1.62,1.62,0,0,0-.5,0c-.19-.06-.35.15-.42.27.19.14.24.28.34.32s.29,0,.48-.18a.48.48,0,0,1,.76.25Zm-1.11,0c.13,0,.24-.09.38-.22s.47-.08.72.09a.92.92,0,0,0-.63-.54,1.25,1.25,0,0,0-.42,0h-.17c-.2,0-.35.23-.37.36a.93.93,0,0,1,.2.19.55.55,0,0,0,.14.13l.15,0Zm-.07-.62h.21a1.12,1.12,0,0,1,.31,0,.92.92,0,0,1,.48.28.52.52,0,0,0-.61,0c-.2.19-.27.23-.44.18a.38.38,0,0,1-.11-.11.46.46,0,0,0-.2-.16.41.41,0,0,1,.36-.25Z"/></g></g></g></g></svg>