<svg xmlns="http://www.w3.org/2000/svg" viewBox="0 0 79.69 53.6"><defs><style>.cls-1{fill:#223693;}.cls-2{fill:#fff;}.cls-3{fill:#c51d32;}</style></defs><title>Iceland</title><g id="Layer_2" data-name="Layer 2"><g id="flags"><g id="group_d" data-name="group d"><g id="iceland"><rect class="cls-1" x="32.22" y="32.76" width="47.47" height="20.85"/><rect class="cls-1" x="32.22" width="47.47" height="20.85"/><rect class="cls-1" width="20.31" height="20.85"/><rect class="cls-1" y="32.76" width="20.31" height="20.85"/><rect class="cls-2" x="20.31" width="2.98" height="20.85"/><rect class="cls-2" x="29.24" width="2.98" height="20.85"/><rect class="cls-2" x="20.31" y="32.76" width="2.98" height="20.85"/><rect class="cls-2" x="29.24" y="32.76" width="2.98" height="20.85"/><polygon class="cls-2" points="29.24 20.84 29.24 23.82 79.69 23.82 79.69 20.84 32.22 20.84 29.24 20.84"/><polygon class="cls-2" points="29.24 29.78 29.24 32.76 32.22 32.76 79.69 32.76 79.69 29.78 29.24 29.78"/><polygon class="cls-2" points="23.29 32.76 23.29 29.78 0 29.78 0 32.76 20.31 32.76 23.29 32.76"/><polygon class="cls-2" points="23.29 23.82 23.29 20.84 20.31 20.84 0 20.84 0 23.82 23.29 23.82"/><polygon class="cls-3" points="29.24 29.78 23.29 29.78 23.29 32.76 23.29 53.6 29.24 53.6 29.24 32.76 29.24 29.78"/><polygon class="cls-3" points="23.29 23.82 29.24 23.82 29.24 20.84 29.24 0 23.29 0 23.29 20.84 23.29 23.82"/><polygon class="cls-3" points="23.29 29.78 29.24 29.78 79.69 29.78 79.69 23.82 29.24 23.82 23.29 23.82 0 23.82 0 29.78 23.29 29.78"/></g></g></g></g></svg>