<svg xmlns="http://www.w3.org/2000/svg" viewBox="0 0 80 53.94"><defs><style>.cls-1{fill:#fff;}.cls-2{fill:#219257;}.cls-3{fill:#d91b26;}</style></defs><title>Iran</title><g id="Layer_2" data-name="Layer 2"><g id="flags"><g id="group_b" data-name="group b"><g id="iran"><rect class="cls-1" x="0.03" y="12.46" width="79.94" height="30.41"/><polygon class="cls-2" points="80 3.71 80 0 0 0 0 3.71 0 3.71 0 19.25 0.18 19.25 0.18 18.88 3.46 18.88 3.46 19.25 3.82 19.25 3.82 18.88 7.09 18.88 7.09 19.25 7.45 19.25 7.45 18.88 10.73 18.88 10.73 19.25 11.09 19.25 11.09 18.88 14.36 18.88 14.36 19.25 14.73 19.25 14.73 18.88 18 18.88 18 19.25 18.36 19.25 18.36 18.88 21.64 18.88 21.64 19.25 22 19.25 22 18.88 25.27 18.88 25.27 19.25 25.64 19.25 25.64 18.88 28.91 18.88 28.91 19.25 29.27 19.25 29.27 18.88 32.55 18.88 32.55 19.25 32.91 19.25 32.91 18.88 36.18 18.88 36.18 19.25 36.55 19.25 36.55 18.88 39.82 18.88 39.82 19.25 40.18 19.25 40.18 18.88 43.45 18.88 43.45 19.25 43.82 19.25 43.82 18.88 47.09 18.88 47.09 19.25 47.45 19.25 47.45 18.88 50.73 18.88 50.73 19.25 51.09 19.25 51.09 18.88 54.37 18.88 54.37 19.25 54.73 19.25 54.73 18.88 58 18.88 58 19.25 58.36 19.25 58.36 18.88 61.64 18.88 61.64 19.25 62 19.25 62 18.88 65.27 18.88 65.27 19.25 65.64 19.25 65.64 18.88 68.91 18.88 68.91 19.25 69.27 19.25 69.27 18.88 72.55 18.88 72.55 19.25 72.91 19.25 72.91 18.88 76.18 18.88 76.18 19.25 76.55 19.25 76.55 18.88 79.82 18.88 79.82 19.25 80 19.25 80 3.71 80 3.71"/><path class="cls-3" d="M79.82,34.69v.37H76.54v-.37h-.36v.37H72.91v-.37h-.36v.37H69.27v-.37h-.36v.37H65.64v-.37h-.37v.37H62v-.37h-.36v.37H58.36v-.37H58v.37H54.73v-.37h-.37v.37H51.09v-.37h-.36v.37H47.45v-.37h-.36v.37H43.82v-.37h-.36v.37H40.18v-.37h-.36v.37H36.55v-.37h-.37v.37H32.91v-.37h-.36v.37H29.27v-.37h-.36v.37H25.64v-.37h-.37v.37H22v-.37h-.36v.37H18.37v-.37H18v.37H14.73v-.37h-.37v.37H11.09v-.37h-.36v.37H7.45v-.37H7.09v.37H3.82v-.37H3.46v.37H.18v-.37H0V50.24H0v3.7H80v-3.7h0V34.69ZM78,35.43h.36v1.48h.37V35.43h.36v1.48h.36V35.43h.37v1.85H78v-.74H76.91v.37h.73v.37h-1.1V36.17H78Zm-5.09,0h4.73v.37H72.91Zm0,.74h1.82v.74h1.09v-.37h-.73v-.37h1.09v1.11H74.36v-.74H73.27v.74h-.36Zm1.09.74v.37h-.36v-.37Zm-3.27-1.48h.36v1.48h.37V35.43h.36v1.48h.36V35.43h.37v1.85H70.73v-.74H69.64v.37h.72v.37H69.27V36.17h1.46Zm-5.09,0h4.72v.37H65.64Zm0,.74h1.82v.74h1.09v-.37h-.73v-.37h1.09v1.11H67.09v-.74H66v.74h-.36Zm1.09.74v.37h-.37v-.37Zm-3.28-1.48h.37v1.48h.36V35.43h.37v1.48h.36V35.43h.36v1.85H63.45v-.74H62.36v.37h.73v.37H62V36.17h1.45Zm-5.09,0h4.73v.37H58.36Zm0,.74h1.82v.74h1.09v-.37h-.73v-.37h1.1v1.11H59.82v-.74H58.73v.74h-.37Zm1.1.74v.37h-.37v-.37Zm-3.28-1.48h.37v1.48h.36V35.43h.36v1.48h.37V35.43H58v1.85H56.18v-.74H55.09v.37h.73v.37H54.73V36.17h1.45Zm-5.09,0h4.73v.37H51.09Zm0,.74h1.82v.74H54v-.37h-.73v-.37h1.09v1.11H52.55v-.74H51.46v.74h-.37Zm1.09.74v.37h-.36v-.37Zm-3.27-1.48h.36v1.48h.37V35.43H50v1.48h.36V35.43h.37v1.85H48.91v-.74H47.82v.37h.73v.37h-1.1V36.17h1.46Zm-5.09,0h4.73v.37H43.82Zm0,.74h1.82v.74h1.09v-.37H46v-.37h1.09v1.11H45.27v-.74H44.18v.74h-.36Zm1.09.74v.37h-.36v-.37Zm-3.27-1.48H42v1.48h.36V35.43h.37v1.48h.36V35.43h.37v1.85H41.64v-.74H40.55v.37h.72v.37H40.18V36.17h1.46Zm-5.09,0h4.72v.37H36.55Zm0,.74h1.81v.74h1.1v-.37h-.73v-.37h1.09v1.11H38v-.74H36.91v.74h-.36Zm1.09.74v.37h-.37v-.37Zm-3.28-1.48h.37v1.48h.36V35.43h.37v1.48h.36V35.43h.36v1.85H34.36v-.74H33.27v.37H34v.37H32.91V36.17h1.45Zm-5.09,0H34v.37H29.27Zm0,.74h1.82v.74h1.09v-.37h-.73v-.37h1.1v1.11H30.73v-.74H29.64v.74h-.37Zm1.09.74v.37H30v-.37Zm-3.27-1.48h.37v1.48h.36V35.43h.36v1.48h.37V35.43h.36v1.85H27.09v-.74H26v.37h.73v.37H25.64V36.17h1.45Zm-5.09,0h4.73v.37H22Zm0,.74h1.82v.74h1.09v-.37h-.73v-.37h1.09v1.11H23.46v-.74h-1.1v.74H22Zm1.09.74v.37h-.36v-.37Zm-3.27-1.48h.36v1.48h.37V35.43h.36v1.48h.36V35.43h.37v1.85H19.82v-.74H18.73v.37h.73v.37H18.37V36.17h1.45Zm-5.09,0h4.72v.37H14.73Zm0,.74h1.82v.74h1.09v-.37h-.73v-.37H18v1.11H16.18v-.74H15.09v.74h-.36Zm1.09.74v.37h-.37v-.37Zm-3.27-1.48h.36v1.48h.36V35.43h.37v1.48H14V35.43h.36v1.85H12.55v-.74H11.46v.37h.72v.37H11.09V36.17h1.46Zm-5.1,0h4.73v.37H7.45Zm0,.74H9.27v.74h1.1v-.37H9.64v-.37h1.09v1.11H8.91v-.74H7.82v.74H7.45Zm1.1.74v.37H8.18v-.37ZM5.27,35.43h.37v1.48H6V35.43h.36v1.48h.37V35.43h.36v1.85H5.27v-.74H4.18v.37h.73v.37H3.82V36.17H5.27Zm-5.09,0H4.91v.37H.18Zm0,.74H2v.74H3.09v-.37H2.37v-.37H3.46v1.11H1.64v-.74H.55v.74H.18Zm1.09.74v.37H.91v-.37Z"/><path class="cls-1" d="M.18,18.51H.55v-.74H1.64v.74H3.46V17.4H2.37v.37h.72v.37H2V17.4H.18Zm.73,0h.36v-.37H.91ZM.18,17H4.91v-.37H.18Zm4.73,1.48H3.82V17.4H5.27v-.74h.37v1.48H6V16.66h.36v1.48h.37V16.66h.36v1.85H5.27v-.74H4.18v.37h.73Z"/><path class="cls-1" d="M7.45,18.51h.37v-.74H8.91v.74h1.82V17.4H9.64v.37h.72v.37H9.27V17.4H7.45Zm.73,0h.37v-.37H8.18ZM7.45,17h4.73v-.37H7.45Zm4.73,1.48H11.09V17.4h1.45v-.74h.37v1.48h.36V16.66h.37v1.48H14V16.66h.36v1.85H12.54v-.74H11.46v.37h.72Z"/><path class="cls-1" d="M14.73,18.51h.36v-.74h1.09v.74H18V17.4H16.91v.37h.73v.37H16.55V17.4H14.73Zm.72,0h.37v-.37h-.37ZM14.73,17h4.73v-.37H14.73Zm4.73,1.48H18.37V17.4h1.45v-.74h.36v1.48h.37V16.66h.36v1.48h.37V16.66h.36v1.85H19.82v-.74H18.73v.37h.73Z"/><path class="cls-1" d="M22,18.51h.36v-.74h1.1v.74h1.81V17.4H24.18v.37h.73v.37H23.82V17.4H22Zm.73,0h.36v-.37h-.36ZM22,17h4.73v-.37H22Zm4.73,1.48H25.64V17.4h1.45v-.74h.37v1.48h.36V16.66h.36v1.48h.37V16.66h.36v1.85H27.09v-.74H26v.37h.73Z"/><path class="cls-1" d="M29.27,18.51h.37v-.74h1.09v.74h1.82V17.4h-1.1v.37h.73v.37H31.09V17.4H29.27Zm.73,0h.36v-.37H30ZM29.27,17H34v-.37H29.27ZM34,18.51H32.91V17.4h1.45v-.74h.37v1.48h.36V16.66h.37v1.48h.36V16.66h.36v1.85H34.36v-.74H33.27v.37H34Z"/><path class="cls-1" d="M36.55,18.51h.36v-.74H38v.74h1.82V17.4H38.73v.37h.73v.37h-1.1V17.4H36.55Zm.72,0h.37v-.37h-.37ZM36.55,17h4.72v-.37H36.55Zm4.72,1.48H40.18V17.4h1.46v-.74H42v1.48h.36V16.66h.37v1.48h.36V16.66h.37v1.85H41.64v-.74H40.55v.37h.72Z"/><path class="cls-1" d="M43.82,18.51h.36v-.74h1.09v.74h1.82V17.4H46v.37h.73v.37H45.64V17.4H43.82Zm.73,0h.36v-.37h-.36ZM43.82,17h4.73v-.37H43.82Zm4.73,1.48h-1.1V17.4h1.46v-.74h.36v1.48h.37V16.66H50v1.48h.36V16.66h.37v1.85H48.91v-.74H47.82v.37h.73Z"/><path class="cls-1" d="M51.09,18.51h.37v-.74h1.09v.74h1.81V17.4H53.27v.37H54v.37H52.91V17.4H51.09Zm.73,0h.36v-.37h-.36ZM51.09,17h4.73v-.37H51.09Zm4.73,1.48H54.73V17.4h1.45v-.74h.37v1.48h.36V16.66h.36v1.48h.37V16.66H58v1.85H56.18v-.74H55.09v.37h.73Z"/><path class="cls-1" d="M58.36,18.51h.37v-.74h1.09v.74h1.82V17.4h-1.1v.37h.73v.37H60.18V17.4H58.36Zm.73,0h.36v-.37h-.36ZM58.36,17h4.73v-.37H58.36Zm4.73,1.48H62V17.4h1.45v-.74h.37v1.48h.36V16.66h.37v1.48h.36V16.66h.36v1.85H63.45v-.74H62.36v.37h.73Z"/><path class="cls-1" d="M65.64,18.51H66v-.74h1.09v.74h1.82V17.4H67.82v.37h.73v.37H67.46V17.4H65.64Zm.72,0h.37v-.37h-.37ZM65.64,17h4.72v-.37H65.64Zm4.72,1.48H69.27V17.4h1.46v-.74h.36v1.48h.36V16.66h.37v1.48h.36V16.66h.37v1.85H70.73v-.74H69.64v.37h.72Z"/><path class="cls-1" d="M72.91,18.51h.36v-.74h1.09v.74h1.82V17.4H75.09v.37h.73v.37H74.73V17.4H72.91Zm.73,0H74v-.37h-.36ZM72.91,17h4.73v-.37H72.91Zm4.73,1.48h-1.1V17.4H78v-.74h.36v1.48h.37V16.66h.36v1.48h.36V16.66h.37v1.85H78v-.74H76.91v.37h.73Z"/><path class="cls-3" d="M39.13,21.91a.89.89,0,0,0,.87-.25.89.89,0,0,0,1.28,0,.94.94,0,0,0,.24-.89,1,1,0,0,1-1.44.35L40,21.08a1,1,0,0,1-1.46-.2l-.06-.09A.92.92,0,0,0,39.13,21.91Z"/><path class="cls-3" d="M41.07,31.85a5.8,5.8,0,0,0,2.57-3,5.9,5.9,0,0,0-1.74-6.71,6.36,6.36,0,0,1-1.26,8.73l.12-8.43L40,21.86l-.76.63.12,8.43a6.36,6.36,0,0,1-1.26-8.73,5.9,5.9,0,0,0-1.74,6.71,5.8,5.8,0,0,0,2.57,3,6.15,6.15,0,0,1-2.73.3,5.65,5.65,0,0,0,3.18.31v.07l.62.73.62-.73v-.07a5.65,5.65,0,0,0,3.18-.31A6.15,6.15,0,0,1,41.07,31.85Z"/><path class="cls-3" d="M45.63,24.44a4.93,4.93,0,0,0-3-2.44A6.35,6.35,0,0,1,44,30.77a4.12,4.12,0,0,1-.32.41A5,5,0,0,0,45.63,24.44Z"/><path class="cls-3" d="M36,30.77A6.35,6.35,0,0,1,37.39,22a4.93,4.93,0,0,0-3,2.44,5,5,0,0,0,2,6.74C36.24,31.05,36.13,30.91,36,30.77Z"/></g></g></g></g></svg>