<svg xmlns="http://www.w3.org/2000/svg" viewBox="0 0 79.99 53.83"><defs><style>.cls-1{fill:#fff;}.cls-2{fill:#11549d;}.cls-3{fill:#da1c27;}</style></defs><title>Korea Republic</title><g id="Layer_2" data-name="Layer 2"><g id="flags"><g id="group_f" data-name="group f"><g id="korea_republic" data-name="korea republic"><rect class="cls-1" width="79.99" height="53.83"/><rect x="55.17" y="8.9" width="2.25" height="6.19" transform="matrix(0.83, -0.55, 0.55, 0.83, 2.8, 33.24)"/><rect x="59.23" y="14.99" width="2.25" height="6.19" transform="translate(0.11 36.53) rotate(-33.71)"/><rect x="60.01" y="6.41" width="2.25" height="13.51" transform="translate(2.97 36.12) rotate(-33.69)"/><rect x="60.79" y="5.15" width="2.25" height="6.19" transform="translate(5.82 35.73) rotate(-33.69)"/><rect x="64.85" y="11.24" width="2.25" height="6.19" transform="translate(3.1 38.94) rotate(-33.63)"/><rect x="21.6" y="32.01" width="2.25" height="13.51" transform="translate(-17.69 19.12) rotate(-33.69)"/><rect x="16.76" y="34.5" width="2.25" height="6.19" transform="translate(-17.86 16.25) rotate(-33.71)"/><rect x="20.82" y="40.59" width="2.25" height="6.19" transform="translate(-20.54 19.5) rotate(-33.68)"/><rect x="15.98" y="35.76" width="2.25" height="13.51" transform="translate(-20.71 16.63) rotate(-33.69)"/><rect x="15.97" y="13.91" width="13.51" height="2.25" transform="matrix(0.55, -0.83, 0.83, 0.55, -2.39, 25.61)"/><rect x="13.16" y="12.04" width="13.51" height="2.25" transform="translate(-2.08 22.44) rotate(-56.32)"/><rect x="10.35" y="10.17" width="13.51" height="2.25" transform="translate(-1.78 19.26) rotate(-56.29)"/><rect x="53.2" y="40.69" width="6.19" height="2.25" transform="translate(-9.72 65.46) rotate(-56.31)"/><rect x="57.26" y="34.6" width="6.19" height="2.25" transform="matrix(0.55, -0.83, 0.83, 0.55, -2.85, 66.12)"/><rect x="56.01" y="42.56" width="6.19" height="2.25" transform="translate(-10.04 68.6) rotate(-56.28)"/><rect x="60.07" y="36.47" width="6.19" height="2.25" transform="translate(-3.17 69.28) rotate(-56.29)"/><rect x="58.82" y="44.44" width="6.19" height="2.25" transform="translate(-10.35 71.78) rotate(-56.29)"/><rect x="62.88" y="38.35" width="6.19" height="2.25" transform="translate(-3.49 72.41) rotate(-56.26)"/><path class="cls-2" d="M29.28,19.41A6.76,6.76,0,0,0,40.53,26.9a6.76,6.76,0,0,1,11.24,7.5,13.51,13.51,0,1,1-22.49-15Z"/><path class="cls-3" d="M48,15.66a13.51,13.51,0,0,0-18.74,3.75A6.75,6.75,0,1,0,40.52,26.9a6.76,6.76,0,0,1,11.25,7.5A13.51,13.51,0,0,0,48,15.66Z"/></g></g></g></g></svg>