<svg xmlns="http://www.w3.org/2000/svg" viewBox="0 0 79.86 53.94"><defs><style>.cls-1{fill:#b01f35;}.cls-2{fill:#296437;}</style></defs><title>Morocco</title><g id="Layer_2" data-name="Layer 2"><g id="flags"><g id="group_b" data-name="group b"><g id="morocco"><path class="cls-1" d="M0,0V53.94H79.86V0ZM41.87,25.17h2.52l5.17,16.75-9.63-7.35L42,33l3,2.31-1.86-6,.7,2.28L30.3,41.92,34,30l2,1.56-1.15,3.76,8.21-6.28-1.2-3.88H38l-1.2,3.88,3.14,2.41L37.9,33,24.35,22.66h11.9l-.78,2.52H31.71l3,2.32,5.18-16.75,3.69,11.9H41.1L39.93,18.9l-1.36,4.4.19-.64H55.51L45.89,30l-.78-2.52,3-2.33Z"/><polygon class="cls-2" points="45.11 27.5 45.89 30.02 55.51 22.65 38.77 22.66 38.57 23.3 39.93 18.9 41.1 22.65 43.62 22.66 39.93 10.75 34.76 27.5 31.71 25.18 35.47 25.17 36.25 22.65 24.35 22.66 37.9 33.01 39.93 31.46 36.79 29.05 37.99 25.17 41.87 25.17 48.14 25.17 45.11 27.5"/><polygon class="cls-2" points="41.87 25.17 43.08 29.05 34.86 35.33 36.01 31.57 33.97 30.01 30.3 41.92 43.85 31.57 43.15 29.29 45.01 35.32 41.97 33.01 39.93 34.57 49.56 41.91 44.39 25.17 41.87 25.17"/></g></g></g></g></svg>