<svg xmlns="http://www.w3.org/2000/svg" viewBox="0 0 80 54.04"><defs><style>.cls-1{fill:#fff;}.cls-2{fill:#3564c2;}.cls-3{fill:#c0003b;}</style></defs><title>Panama</title><g id="Layer_2" data-name="Layer 2"><g id="flags"><g id="group_g" data-name="group g"><g id="panama"><path class="cls-1" d="M0,0V27H40V0ZM23.71,19l-4-2.88-4,2.88,1.51-4.66-4-2.89h4.91l1.52-4.67,1.51,4.67h4.91l-4,2.89Z"/><path class="cls-1" d="M40,27V54H80V27ZM64.23,46l-4-2.88-4,2.88,1.52-4.66-4-2.89h4.91l1.51-4.67,1.52,4.67h4.91l-4,2.89Z"/><polygon class="cls-2" points="15.77 18.98 19.74 16.09 23.7 18.98 22.19 14.31 26.16 11.42 21.25 11.42 19.74 6.75 18.22 11.42 13.31 11.42 17.28 14.31 15.77 18.98"/><rect class="cls-2" y="27.02" width="40" height="27.02"/><rect class="cls-3" x="40" width="40" height="27.02"/><polygon class="cls-3" points="61.78 38.44 60.26 33.77 58.75 38.44 53.84 38.44 57.81 41.33 56.3 45.99 60.26 43.11 64.23 45.99 62.72 41.33 66.69 38.44 61.78 38.44"/></g></g></g></g></svg>