<svg xmlns="http://www.w3.org/2000/svg" viewBox="0 0 79.82 53.94"><defs><style>.cls-1{fill:#209156;}.cls-2{fill:#d91b26;}.cls-3{fill:#fce12e;}.cls-4{fill:#231f20;}.cls-5{fill:#fff;}.cls-6{fill:#007ac1;}</style></defs><title>Portugal</title><g id="Layer_2" data-name="Layer 2"><g id="flags"><g id="group_b" data-name="group b"><g id="portugal"><rect class="cls-1" width="31.13" height="53.94"/><rect class="cls-2" x="31.13" width="48.69" height="53.94"/><path class="cls-3" d="M43.47,32.86l-.29,0c-1.64-.19-6.53-2.47-12.06-5.68s-9.95-6.32-10.94-7.66a1.23,1.23,0,0,1-.15-.22l-1.17,2c-.07.11-.13.13,0,.37,1,1.31,5.39,4.44,11,7.67s10.48,5.51,12.09,5.69c.29,0,.24-.06.33-.15Z"/><path class="cls-4" d="M42.05,35.11h-.11c-1.67-.18-6.65-2.52-12.12-5.69s-10-6.34-11-7.69c-.15-.21-.13-.28-.07-.38l0-.05L20,19.17l0,.08a2.17,2.17,0,0,0,.15.22c1,1.36,5.5,4.5,10.92,7.64s10.37,5.48,12,5.68l.26,0h.1l0,.08-1.19,2,0,.07a.22.22,0,0,1-.22.11ZM20,19.39l-1.15,2c0,.06-.06.08.06.25,1,1.35,5.48,4.5,10.94,7.66S40.3,34.81,42,35c.17,0,.19,0,.23-.05l.06-.08,1.13-1.94-.19,0c-1.69-.21-6.66-2.55-12.09-5.69s-9.94-6.3-10.95-7.67L20,19.39Z"/><path class="cls-3" d="M19.92,19.1c-.11.14,0,.3.18.55C21.1,21,25.51,24.09,31,27.3S41.46,32.79,43.11,33c.3,0,.49.06.56-.1s-.23-.58-.23-.58c.07.19.17.39-.12.36-1.61-.17-6.53-2.46-12.09-5.69s-10-6.35-10.95-7.67c-.18-.24,0-.25.22-.28-.35,0-.46-.06-.58.08Z"/><path class="cls-4" d="M43.4,33.07l-.3,0c-1.69-.2-6.66-2.54-12.09-5.69s-9.93-6.3-11-7.67c-.18-.23-.33-.44-.19-.61s.22-.13.43-.12h.2v.11a.58.58,0,0,0-.25.07.35.35,0,0,0,.06.13c1,1.34,5.48,4.49,10.94,7.65s10.43,5.51,12.07,5.68c.07,0,.11,0,.12,0s0-.14,0-.22l0,0,.1,0c0,.07.31.44.23.63a.31.31,0,0,1-.32.17Zm-23.24-14a.22.22,0,0,0-.2.08c-.08.1,0,.23.19.48,1,1.35,5.5,4.49,10.92,7.63s10.37,5.48,12,5.68l.29,0c.15,0,.19-.05.22-.11a.36.36,0,0,0-.06-.24s0,0,0,0-.11.08-.23.07c-1.66-.18-6.64-2.53-12.12-5.7s-10-6.33-11-7.69c0-.06-.1-.16-.07-.24l0,0Z"/><path class="cls-3" d="M18.55,21.44c-.1.13,0,.32.2.57,1,1.33,5.4,4.44,10.93,7.65s10.43,5.48,12.07,5.69c.31,0,.47,0,.56-.11s0-.09-.06-.3c0,0,0,.11-.28.08-1.62-.18-6.53-2.46-12.1-5.69s-10-6.36-10.95-7.67c-.17-.24-.11-.2-.09-.3s-.15,0-.28.08Z"/><path class="cls-4" d="M42,35.42a1.47,1.47,0,0,1-.28,0c-1.68-.2-6.66-2.55-12.08-5.69s-9.93-6.3-11-7.67c-.17-.23-.32-.46-.2-.63s.21-.09.32-.11h.07v.08a.35.35,0,0,1,0,.06s0,0,.1.2c1,1.34,5.47,4.49,10.93,7.65S40.32,34.78,42,35c.17,0,.22,0,.22,0h.11l0,.1a.21.21,0,0,1,0,.2v.05a.38.38,0,0,1-.34.15Zm-23.27-14h0a.23.23,0,0,0-.17.06c-.06.09,0,.26.21.5,1,1.35,5.51,4.49,10.92,7.63s10.37,5.48,12,5.68c.29,0,.43,0,.51-.08a.24.24,0,0,0,0-.14v0a.48.48,0,0,1-.27,0c-1.66-.19-6.65-2.53-12.11-5.7s-10-6.34-11-7.69c-.11-.16-.13-.21-.12-.27Z"/><path class="cls-3" d="M20,34.41c1.28.62,5.79,1.08,11.15,1.08S41,35,42.25,34.41l.68-1.16c-1.3.67-6.11,1.16-11.83,1.16s-10.53-.5-11.83-1.16Z"/><path class="cls-4" d="M31.1,35.54c-5.26,0-9.86-.44-11.18-1.08l-.79-1.34.17.08c1.33.68,6.18,1.15,11.8,1.15s10.47-.47,11.81-1.15l.17-.08-.78,1.32c-1.36.66-5.95,1.1-11.2,1.1ZM19.41,33.38l.59,1c1.27.61,5.85,1,11.1,1s9.81-.44,11.13-1.07l.57-1c-1.55.64-6.27,1.08-11.7,1.08S21,34,19.41,33.38Z"/><path class="cls-3" d="M42.44,34.11a1.51,1.51,0,0,1-.34.2c-1.51.58-5.86,1-11,1s-9.48-.41-11-1a1.68,1.68,0,0,1-.34-.2.37.37,0,0,0,0,.13c0,.79,5.08,1.42,11.36,1.42S42.47,35,42.47,34.24a.33.33,0,0,0,0-.13Z"/><path class="cls-4" d="M31.1,35.72c-5.61,0-11.42-.55-11.42-1.48a.54.54,0,0,1,0-.15l0-.06.05,0a1.52,1.52,0,0,0,.33.18c1.54.6,6,1,11,1s9.43-.4,11-1a.9.9,0,0,0,.32-.19l.06,0,0,.06a.48.48,0,0,1,.05.16c0,.93-5.81,1.48-11.43,1.48ZM19.8,34.2a.18.18,0,0,0,0,0c0,.65,4.55,1.36,11.31,1.36s11.32-.71,11.32-1.37h0a.1.1,0,0,1,0,0,1.35,1.35,0,0,1-.29.16c-1.56.6-6,1-11,1s-9.45-.4-11-1a1.57,1.57,0,0,1-.29-.16Z"/><path class="cls-3" d="M19.24,32.86c0,.14.06.25.19.31,1.53.62,6.18,1.07,11.67,1.07s10.4-.56,11.69-1.07c.12-.06.23-.13.2-.28a.23.23,0,0,1,.13.21c0,.83-5.37,1.5-12,1.5s-12-.67-12-1.5a.27.27,0,0,1,.16-.24Z"/><path class="cls-4" d="M31.1,34.65C25.17,34.65,19,34.07,19,33.1a.33.33,0,0,1,.18-.29l.13-.07-.05.14c0,.1.06.19.16.23,1.55.63,6.34,1.07,11.65,1.07s10.39-.55,11.66-1.07c.15-.06.19-.11.17-.21l0-.1.1,0a.31.31,0,0,1,.17.26c0,1-6.14,1.55-12.08,1.55ZM19.17,33a.3.3,0,0,0,0,.12c0,.69,4.81,1.44,12,1.44s12-.75,12-1.44A.17.17,0,0,0,43,33c0,.12-.18.18-.24.21-1.28.52-6.29,1.08-11.7,1.08S21,33.86,19.41,33.22a.38.38,0,0,1-.24-.24Z"/><path class="cls-3" d="M44.47,26.62a1.8,1.8,0,0,1-.25.18c-1.5,1-6.81,1.73-13.12,1.73S19.49,27.8,18,26.81a3,3,0,0,1-.24-.18v.86c0,.2,0,.27.22.45,1.47,1,6.79,1.74,13.14,1.74s11.68-.75,13.15-1.74c.26-.18.17-.26.21-.45Z"/><path class="cls-4" d="M31.1,29.73c-6.24,0-11.66-.72-13.17-1.74-.25-.17-.25-.26-.25-.42V26.51l.1.08.23.17c1.53,1,6.91,1.71,13.09,1.71s11.56-.7,13.09-1.71a1.86,1.86,0,0,0,.24-.18l.1-.09,0,1a.57.57,0,0,0,0,.12c0,.14,0,.22-.22.36-1.52,1-6.94,1.75-13.18,1.75Zm-13.31-3v.83c0,.12,0,.18.19.31,1.49,1,6.89,1.73,13.11,1.73s11.61-.71,13.12-1.73c.17-.11.17-.17.17-.27a.71.71,0,0,1,0-.14v-.74l-.16.11c-1.54,1-7,1.73-13.15,1.73S19.5,27.87,18,26.85l-.16-.1Z"/><path class="cls-3" d="M44.26,26.13c.15.2.25.43,0,.6-1.47,1-6.8,1.74-13.14,1.74S19.43,27.73,18,26.74c-.26-.18-.16-.42,0-.63,0,0-.4.25-.39.45s.15.39.43.58c1.5,1,6.8,1.71,13.12,1.71s11.61-.73,13.12-1.71c.28-.19.44-.31.42-.58s-.39-.43-.39-.43Z"/><path class="cls-4" d="M31.11,28.91c-6.2,0-11.6-.71-13.15-1.73-.26-.17-.49-.32-.46-.62s.38-.47.42-.49l.08.08a.47.47,0,0,0-.14.36.3.3,0,0,0,.13.18c1.5,1,6.89,1.73,13.12,1.73s11.61-.71,13.11-1.73a.3.3,0,0,0,.13-.18.48.48,0,0,0-.13-.35L44.09,26l.19.08s.4.18.43.49-.18.44-.45.62c-1.55,1-7,1.73-13.15,1.73ZM17.77,26.32c-.09.09-.16.17-.16.24,0,.23.13.35.41.53,1.53,1,6.91,1.71,13.09,1.71s11.55-.7,13.08-1.71c.29-.19.42-.29.41-.52a.43.43,0,0,0-.17-.28.39.39,0,0,1,0,.23.35.35,0,0,1-.18.26c-1.51,1-6.93,1.75-13.17,1.75s-11.66-.72-13.18-1.75a.38.38,0,0,1-.18-.26.35.35,0,0,1,0-.2Z"/><path class="cls-3" d="M44.46,27.43s0,.27-.21.45c-1.47,1-6.8,1.74-13.14,1.74S19.43,28.88,18,27.88c-.26-.17-.23-.25-.22-.46a.46.46,0,0,0-.18.29c0,.26.15.39.43.57,1.5,1,6.8,1.72,13.12,1.72s11.61-.73,13.12-1.72c.28-.18.42-.3.42-.57a.36.36,0,0,0-.19-.28Z"/><path class="cls-4" d="M31.11,30.05c-6.2,0-11.6-.71-13.15-1.72-.28-.18-.48-.33-.46-.62a.56.56,0,0,1,.21-.34l.09-.06v.17c0,.16,0,.22.2.36,1.5,1,6.89,1.72,13.12,1.72s11.61-.71,13.11-1.72a.43.43,0,0,0,.18-.37s0-.1.06-.1a.42.42,0,0,1,.25.33c0,.31-.17.45-.45.63-1.55,1-7,1.72-13.15,1.72ZM17.68,27.56a.46.46,0,0,0-.07.16c0,.21.11.32.41.52,1.53,1,6.91,1.7,13.09,1.7s11.55-.7,13.08-1.7c.29-.19.4-.29.41-.53a.31.31,0,0,0-.09-.18.56.56,0,0,1-.23.4c-1.51,1-6.93,1.74-13.17,1.74S19.45,29,17.93,27.93c-.21-.14-.25-.23-.25-.37Z"/><path class="cls-3" d="M43,21.08c-.32.78-5.52,1.41-11.9,1.41s-11.43-.61-11.87-1.38l.63-1.17c.4.73,5.28,1.31,11.24,1.31S42,20.67,42.34,19.94Z"/><path class="cls-4" d="M31.1,22.55c-6.33,0-11.46-.61-11.92-1.41l0,0,.7-1.29.05.09c.34.63,4.62,1.28,11.19,1.28S42,20.54,42.3,19.91l0-.09.72,1.25v0c-.33.82-5.47,1.45-11.95,1.45ZM19.29,21.11c.54.74,5.69,1.32,11.81,1.32s11.43-.6,11.84-1.35l-.6-1c-.68.73-5.41,1.27-11.24,1.27S20.55,20.77,19.87,20l-.58,1.07Z"/><path class="cls-3" d="M42.43,19.84a.89.89,0,0,1-.33.2c-1.51.58-5.86,1-11,1s-9.48-.42-11-1a1.28,1.28,0,0,1-.34-.19.63.63,0,0,0,0,.13c0,.79,5.09,1.42,11.37,1.42S42.47,20.77,42.47,20a.63.63,0,0,0,0-.14Z"/><path class="cls-4" d="M31.1,21.46c-5.61,0-11.42-.55-11.42-1.48a.54.54,0,0,1,0-.15l0-.06.05,0a1.21,1.21,0,0,0,.33.18c1.55.6,6,1,11,1s9.43-.4,11-1a.9.9,0,0,0,.32-.19l.05,0,0,.06a.46.46,0,0,1,.05.15c0,.94-5.81,1.49-11.43,1.49ZM19.8,19.94a.18.18,0,0,0,0,0c0,.65,4.55,1.36,11.31,1.36S42.41,20.64,42.42,20h0a.1.1,0,0,1,0,0,1.35,1.35,0,0,1-.29.16c-1.57.59-6,1-11,1s-9.45-.4-11-1a1.57,1.57,0,0,1-.29-.16Z"/><path class="cls-3" d="M19.24,20.91a.26.26,0,0,0,.19.31c1.53.62,6.18,1.08,11.67,1.08s10.4-.56,11.69-1.08c.12-.06.23-.13.2-.28a.23.23,0,0,1,.13.21c0,.83-5.37,1.5-12,1.5s-12-.67-12-1.5a.27.27,0,0,1,.16-.24Z"/><path class="cls-4" d="M31.1,22.71c-5.93,0-12.07-.58-12.07-1.56a.33.33,0,0,1,.18-.29l.13-.07-.05.14c0,.1.06.19.16.24,1.55.63,6.35,1.07,11.65,1.07s10.39-.55,11.66-1.07c.15-.06.19-.12.17-.22l0-.1.1,0a.31.31,0,0,1,.17.26c0,1-6.14,1.56-12.08,1.56ZM19.17,21a.24.24,0,0,0,0,.11c0,.7,4.81,1.45,12,1.45s12-.75,12-1.45a.17.17,0,0,0,0-.09c0,.12-.18.18-.24.21-1.28.52-6.28,1.08-11.7,1.08S21,21.92,19.41,21.27a.39.39,0,0,1-.24-.23Z"/><path class="cls-3" d="M31.1,15.53A11.64,11.64,0,1,0,42.74,27.17,11.64,11.64,0,0,0,31.1,15.53ZM44.27,27.17A13.17,13.17,0,1,1,31.1,14,13.16,13.16,0,0,1,44.27,27.17Z"/><path class="cls-4" d="M31.1,40.39A13.22,13.22,0,1,1,44.32,27.17,13.24,13.24,0,0,1,31.1,40.39Zm0-26.33A13.11,13.11,0,1,0,44.22,27.17,13.12,13.12,0,0,0,31.1,14.06Zm0,24.8A11.7,11.7,0,1,1,42.8,27.17,11.7,11.7,0,0,1,31.1,38.86Zm0-23.28A11.59,11.59,0,1,0,42.69,27.17,11.6,11.6,0,0,0,31.1,15.58Z"/><path class="cls-4" d="M31.1,40A12.84,12.84,0,1,1,43.94,27.17,12.86,12.86,0,0,1,31.1,40Zm0-25.56A12.73,12.73,0,1,0,43.83,27.17,12.74,12.74,0,0,0,31.1,14.44Z"/><path class="cls-4" d="M31.1,39.24A12.08,12.08,0,1,1,43.18,27.17,12.08,12.08,0,0,1,31.1,39.24Zm0-24a12,12,0,1,0,12,12,12,12,0,0,0-12-12Z"/><path class="cls-3" d="M17.74,27.74a2,2,0,0,1,.25-.19c1.5-1,6.81-1.72,13.12-1.72s11.61.73,13.12,1.72l.24.18v-.87c0-.19.05-.26-.22-.44-1.47-1-6.79-1.74-13.14-1.74S19.43,25.42,18,26.42c-.26.18-.17.26-.21.44Z"/><path class="cls-4" d="M17.68,27.86l0-1a.62.62,0,0,0,0-.13c0-.13,0-.22.22-.36,1.52-1,6.94-1.75,13.18-1.75s11.66.72,13.17,1.75c.24.17.25.26.24.42v1.06l-.09-.08a1.53,1.53,0,0,0-.23-.17c-1.53-1-6.91-1.72-13.09-1.72S19.55,26.59,18,27.6a1.86,1.86,0,0,0-.24.18l-.1.08Zm13.43-3.12c-6.22,0-11.62.71-13.11,1.73-.17.11-.18.17-.18.27a.62.62,0,0,1,0,.13v.75l.16-.11c1.54-1,7-1.74,13.15-1.74s11.6.72,13.15,1.74l.15.1v-.83c0-.13,0-.18-.19-.32-1.5-1-6.89-1.72-13.11-1.72Z"/><path class="cls-3" d="M18,28.23c-.16-.2-.25-.43,0-.61,1.47-1,6.8-1.74,13.15-1.74s11.67.74,13.14,1.74c.26.18.16.42,0,.62,0,0,.41-.25.4-.44s-.15-.39-.43-.58c-1.5-1-6.81-1.72-13.11-1.72S19.49,26.23,18,27.22c-.28.19-.45.3-.43.58s.39.43.39.43Z"/><path class="cls-4" d="M18.12,28.36l-.19-.08s-.4-.17-.43-.48.18-.44.46-.63c1.54-1,7-1.72,13.15-1.72s11.6.71,13.14,1.72c.26.18.49.33.45.63s-.37.46-.42.49l-.07-.08a.47.47,0,0,0,.14-.36.25.25,0,0,0-.13-.18c-1.5-1-6.89-1.73-13.11-1.73S19.49,26.65,18,27.67a.3.3,0,0,0-.14.18.51.51,0,0,0,.14.35l.13.16Zm13-2.8c-6.18,0-11.57.7-13.09,1.71-.29.19-.43.29-.41.52a.39.39,0,0,0,.17.27.39.39,0,0,1,0-.23.38.38,0,0,1,.19-.25c1.51-1,6.93-1.75,13.18-1.75s11.66.72,13.17,1.74a.37.37,0,0,1,.18.26.46.46,0,0,1,0,.2.42.42,0,0,0,.16-.23c0-.24-.13-.35-.41-.53-1.53-1-6.91-1.71-13.08-1.71Z"/><path class="cls-3" d="M17.75,26.93s-.05-.28.21-.46c1.47-1,6.8-1.73,13.15-1.73s11.67.74,13.14,1.73c.26.18.23.26.22.47a.51.51,0,0,0,.18-.29c0-.26-.15-.39-.43-.58-1.5-1-6.81-1.71-13.11-1.71S19.49,25.09,18,26.07c-.28.19-.43.3-.43.58a.38.38,0,0,0,.19.28Z"/><path class="cls-4" d="M44.41,27.05v-.17c0-.17,0-.22-.2-.36-1.5-1-6.89-1.72-13.11-1.72S19.49,25.51,18,26.52a.42.42,0,0,0-.18.37s0,.1-.06.1h0l0,0a.42.42,0,0,1-.21-.32c0-.31.18-.44.46-.62,1.54-1,7-1.73,13.15-1.73S42.7,25,44.25,26c.28.18.48.33.45.62a.5.5,0,0,1-.2.33l-.09.07Zm-13.3-2.64c-6.18,0-11.56.71-13.09,1.71-.29.19-.4.29-.41.53a.34.34,0,0,0,.09.18.5.5,0,0,1,.23-.4c1.51-1,6.93-1.74,13.18-1.74s11.65.71,13.17,1.73c.21.15.25.24.25.37a.52.52,0,0,0,.07-.15c0-.21-.11-.33-.41-.52-1.53-1-6.91-1.71-13.08-1.71Z"/><rect class="cls-3" x="30.53" y="13.81" width="1.15" height="26.71"/><path class="cls-4" d="M31.73,40.58H30.48V13.75h1.25V40.58Zm-1.14-.12h1V13.86h-1v26.6Z"/><path class="cls-3" d="M30.72,40.52a.18.18,0,0,1-.19.19.19.19,0,0,1-.19-.19V13.81a.2.2,0,0,1,.19-.19.19.19,0,0,1,.19.19Z"/><path class="cls-4" d="M30.53,40.77a.24.24,0,0,1-.24-.25V13.81a.24.24,0,0,1,.24-.25.25.25,0,0,1,.25.25V40.52a.25.25,0,0,1-.25.25Zm0-27.1a.13.13,0,0,0-.13.14V40.52a.14.14,0,0,0,.13.14.14.14,0,0,0,.14-.14V13.81a.14.14,0,0,0-.14-.14Z"/><path class="cls-3" d="M31.87,40.52a.19.19,0,0,1-.19.19.18.18,0,0,1-.19-.19V13.81a.19.19,0,0,1,.19-.19.2.2,0,0,1,.19.19Z"/><path class="cls-4" d="M31.68,40.77a.25.25,0,0,1-.25-.25V13.81a.25.25,0,1,1,.49,0V40.52a.25.25,0,0,1-.24.25Zm0-27.1a.14.14,0,0,0-.14.14V40.52a.14.14,0,0,0,.14.14.14.14,0,0,0,.13-.14V13.81a.13.13,0,0,0-.13-.14Z"/><path class="cls-3" d="M19.21,33.14c.32-.79,5.52-1.41,11.9-1.41s11.43.6,11.87,1.37l-.64,1.18C42,33.55,37.07,33,31.11,33s-10.85.58-11.25,1.31Z"/><path class="cls-4" d="M42.34,34.4l0-.09C42,33.67,37.68,33,31.11,33c-5.9,0-10.81.57-11.2,1.29l0,.08-.72-1.25v0c.33-.83,5.47-1.45,12-1.45,6.33,0,11.46.6,11.92,1.41l0,0-.71,1.3ZM19.27,33.13l.6,1c.67-.73,5.41-1.27,11.24-1.27s10.55.54,11.23,1.27l.58-1.07c-.54-.75-5.69-1.33-11.81-1.33s-11.43.61-11.84,1.35Z"/><path class="cls-3" d="M20.23,34.65c-.36-.29-.26-.42-.12-.48,1.51-.58,5.86-1,11-1s9.48.42,11,1c.13,0,.21.2-.11.47.5-.2.48-.41.48-.41,0-.78-5.09-1.41-11.36-1.41s-11.37.63-11.37,1.41c0,0,0,.2.49.42Z"/><path class="cls-4" d="M20.21,34.7c-.57-.23-.53-.45-.53-.48,0-.91,5.81-1.46,11.43-1.46s11.42.55,11.42,1.47c0,0,0,.26-.51.46L42,34.6c.2-.17.2-.27.2-.3s0-.06-.08-.08c-1.55-.59-6-1-11-1s-9.43.4-11,1c0,0-.08,0-.09.09s0,.12.23.3l-.06.09Zm10.9-1.58c5,0,9.45.4,11,1a.24.24,0,0,1,.15.16.25.25,0,0,1-.05.18c.2-.12.2-.22.2-.22,0-.66-4.55-1.37-11.31-1.37s-11.32.71-11.32,1.36c0,0,0,.1.19.23a.24.24,0,0,1-.05-.17.22.22,0,0,1,.16-.17c1.57-.6,6-1,11-1Z"/><path class="cls-3" d="M42.83,33.4c.17-.18.08-.35,0-.4-1.53-.63-6.18-1.08-11.68-1.08S20.7,32.47,19.43,33a.25.25,0,0,0-.12.4c-.28-.19-.23-.34-.23-.34,0-.83,5.39-1.5,12-1.5s12,.67,12,1.5a.4.4,0,0,1-.29.34Z"/><path class="cls-4" d="M42.85,33.45l-.06-.09a.19.19,0,0,0,.07-.19.15.15,0,0,0-.1-.12C41.21,32.42,36.42,32,31.1,32s-10.38.56-11.65,1.08a.24.24,0,0,0-.14.13.23.23,0,0,0,.05.18l-.08.08C19,33.23,19,33.06,19,33c0-.95,6.14-1.53,12.08-1.53s12.07.58,12.07,1.55a.46.46,0,0,1-.33.39ZM31.1,31.86c5.41,0,10.12.44,11.7,1.09a.25.25,0,0,1,.17.19.2.2,0,0,1,0,.11.34.34,0,0,0,.1-.19c0-.69-4.81-1.44-12-1.44s-12,.75-12,1.44a.17.17,0,0,0,.06.16.15.15,0,0,1,0-.07.29.29,0,0,1,.19-.2c1.28-.53,6.29-1.09,11.7-1.09Z"/><path class="cls-3" d="M42.26,19.81c-1.28-.63-5.79-1.09-11.15-1.09S21.25,19.18,20,19.8L19.28,21c1.3-.66,6.11-1.15,11.83-1.15S41.64,20.3,42.94,21Z"/><path class="cls-4" d="M43.08,21.1,42.91,21c-1.33-.69-6.18-1.16-11.8-1.16S20.64,20.33,19.3,21l-.17.09.78-1.33c1.36-.66,5.95-1.1,11.2-1.1s9.86.45,11.17,1.09l.8,1.34Zm-12-1.35c5.43,0,10.15.44,11.69,1.09l-.59-1c-1.28-.61-5.85-1-11.1-1S21.3,19.22,20,19.85l-.57,1c1.55-.65,6.27-1.09,11.7-1.09Z"/><path class="cls-3" d="M19.77,20.11a1,1,0,0,1,.34-.2c1.51-.58,5.86-1,11-1s9.48.42,11,1a1.28,1.28,0,0,1,.34.19.37.37,0,0,0,0-.13c0-.79-5.09-1.42-11.36-1.42S19.73,19.18,19.73,20a.63.63,0,0,0,0,.14Z"/><path class="cls-4" d="M19.75,20.19l0-.06a.64.64,0,0,1,0-.15c0-.93,5.81-1.49,11.43-1.49s11.42.56,11.42,1.48a.54.54,0,0,1,0,.15l0,.07-.06-.05a1,1,0,0,0-.32-.18c-1.55-.6-6-1-11-1s-9.43.4-11,1a.9.9,0,0,0-.32.19l-.06,0Zm0-.22a.18.18,0,0,0,0,.05,1.05,1.05,0,0,1,.29-.17c1.57-.59,6-1,11-1s9.45.41,11,1a1.13,1.13,0,0,1,.29.15.13.13,0,0,0,0-.05c0-.65-4.55-1.36-11.31-1.36S19.79,19.31,19.79,20Z"/><path class="cls-3" d="M43,21.36a.26.26,0,0,0-.19-.31C41.25,20.43,36.6,20,31.1,20s-10.4.56-11.68,1.08c-.12.06-.23.13-.2.28a.26.26,0,0,1-.14-.21c0-.83,5.39-1.5,12-1.5s12,.67,12,1.5a.25.25,0,0,1-.15.24Z"/><path class="cls-4" d="M42.87,21.48l.05-.14c0-.1-.06-.2-.16-.24C41.21,20.47,36.42,20,31.1,20s-10.39.55-11.65,1.07c-.15.06-.2.12-.17.22l0,.1-.1,0a.31.31,0,0,1-.17-.26c0-1,6.14-1.56,12.08-1.56s12.07.58,12.07,1.56a.33.33,0,0,1-.18.29l-.13.07ZM31.1,19.92c5.41,0,10.12.43,11.7,1.08a.35.35,0,0,1,.23.23.19.19,0,0,0,0-.11c0-.7-4.81-1.45-12-1.45s-12,.75-12,1.45a.17.17,0,0,0,0,.09A.33.33,0,0,1,19.4,21c1.28-.52,6.29-1.08,11.7-1.08Z"/><path class="cls-3" d="M18.74,21.47a1.47,1.47,0,0,1,.28,0c1.65.2,6.54,2.47,12.07,5.68S41,33.49,42,34.83a2.17,2.17,0,0,1,.15.22l1.17-2c.06-.12.13-.13,0-.37-1-1.32-5.39-4.45-11-7.67s-10.48-5.51-12.1-5.69c-.28,0-.23.06-.32.15Z"/><path class="cls-4" d="M42.18,35.16l0-.08a1.09,1.09,0,0,0-.14-.21c-1-1.37-5.51-4.51-10.93-7.65s-10.37-5.48-12-5.68l-.28,0h-.09l1.24-2.12a.23.23,0,0,0,.05-.07c0-.08.09-.13.33-.11,1.67.19,6.65,2.53,12.12,5.7s10,6.33,11,7.69c.15.21.13.28.07.38l0,0-1.22,2.13ZM18.84,21.41l.19,0c1.69.21,6.66,2.54,12.09,5.69s9.93,6.3,11,7.67l.11.15,1.15-2c0-.06.06-.08-.07-.25-1-1.35-5.47-4.5-10.93-7.66s-10.42-5.5-12.07-5.69c-.17,0-.19,0-.23.06a.33.33,0,0,1-.06.08l-1.13,1.94Z"/><path class="cls-3" d="M42.29,35.23c.11-.14,0-.3-.19-.55-1-1.33-5.4-4.44-10.93-7.65S20.74,21.54,19.1,21.34c-.3,0-.49-.05-.56.11s.23.58.23.58c-.07-.19-.17-.39.12-.36,1.61.17,6.53,2.46,12.09,5.69s10,6.35,11,7.67c.17.24,0,.25-.22.28.35,0,.46.06.58-.08Z"/><path class="cls-4" d="M42.05,35.38h-.34v-.11c.12,0,.23,0,.24-.07s0,0,0-.13c-1-1.34-5.48-4.49-10.94-7.65S20.53,21.9,18.88,21.72c-.07,0-.11,0-.13,0s0,.14.05.22l0,.05-.1,0c0-.07-.31-.43-.23-.63a.3.3,0,0,1,.32-.17l.3,0c1.69.2,6.66,2.54,12.09,5.69s9.93,6.3,11,7.67c.18.23.33.44.18.61a.32.32,0,0,1-.28.12Zm0-.11c.12,0,.17,0,.23-.08s0-.23-.19-.48c-1-1.35-5.5-4.49-10.92-7.63s-10.37-5.48-12-5.68l-.29,0c-.15,0-.19,0-.22.11a.41.41,0,0,0,.05.24s0,0,0,0,.11-.08.23-.07c1.66.18,6.65,2.53,12.12,5.7S41,33.64,42,35c0,.06.1.16.07.24l0,0Z"/><path class="cls-3" d="M43.66,32.89c.1-.14,0-.32-.2-.57-1-1.33-5.4-4.44-10.93-7.65S22.1,19.18,20.46,19c-.31,0-.47,0-.56.11s0,.08.06.3c0,0,0-.11.28-.08,1.62.18,6.53,2.46,12.1,5.69s10,6.35,10.95,7.67c.17.24.1.2.09.3s.15,0,.28-.08Z"/><path class="cls-4" d="M43.32,33V33a.35.35,0,0,1,0-.07s0,0-.1-.2c-1-1.34-5.48-4.49-10.93-7.65s-10.43-5.5-12.07-5.69a.34.34,0,0,0-.23,0l-.1,0-.05-.1a.24.24,0,0,1,0-.2v-.05a.36.36,0,0,1,.34-.16l.28,0c1.69.2,6.65,2.54,12.08,5.69s9.93,6.3,11,7.66c.18.24.33.47.21.64s-.21.09-.32.11ZM20.15,19.25h.1c1.66.19,6.64,2.53,12.11,5.7s10,6.33,11,7.69c.12.16.14.21.13.27a.23.23,0,0,0,.17-.06c.06-.1,0-.26-.21-.5-1-1.35-5.51-4.49-10.92-7.63s-10.37-5.48-12-5.68c-.29,0-.43,0-.51.08a.24.24,0,0,0,0,.14v0a.37.37,0,0,1,.17,0Z"/><path class="cls-5" d="M23.13,28.62a8,8,0,0,0,16,0V18.32H23.13Z"/><path class="cls-4" d="M31.13,36.64a8.05,8.05,0,0,1-8.06-8V18.27H39.14V28.62a8,8,0,0,1-8,8ZM23.19,18.38V28.62a7.92,7.92,0,0,0,15.84,0V18.38Z"/><path class="cls-2" d="M23.32,28.59a7.79,7.79,0,0,0,15.57,0v-10H23.32Z"/><polygon class="cls-3" points="35.85 30.94 35.95 31.04 35.83 31.16 35.92 31.25 36.04 31.13 36.13 31.22 36.01 31.34 36.11 31.43 36.23 31.32 36.32 31.41 36.2 31.53 36.16 31.48 36.1 31.55 35.72 31.17 35.78 31.11 35.73 31.06 35.85 30.94"/><polygon class="cls-3" points="36.56 31.16 36.44 31.29 36.48 31.33 36.42 31.4 36.8 31.77 36.87 31.71 36.91 31.76 37.03 31.63 36.94 31.54 36.81 31.66 36.72 31.57 36.85 31.44 36.76 31.35 36.63 31.48 36.53 31.38 36.66 31.25 36.56 31.16"/><polygon class="cls-3" points="36.79 31.88 36.67 32 36.72 32.04 36.66 32.11 37.03 32.48 37.09 32.42 37.14 32.47 37.26 32.35 37.16 32.26 37.05 32.37 36.95 32.28 37.07 32.16 36.98 32.07 36.86 32.19 36.76 32.09 36.88 31.97 36.79 31.88"/><polygon class="cls-3" points="35.29 31.6 35.23 31.66 36.55 32.97 36.6 32.91 35.29 31.6"/><polygon class="cls-3" points="35.17 31.72 35.11 31.78 36.42 33.09 36.48 33.03 35.17 31.72"/><path class="cls-3" d="M35.85,33.74a1.48,1.48,0,0,0,.2-.37l.14-.14.05,0,.12-.12-1.31-1.31-.12.12,0,0-.14.14a1.31,1.31,0,0,0-.36.21l.22.22a.74.74,0,0,1,1,0,.73.73,0,0,1,0,.94Z"/><path class="cls-3" d="M35.33,33.34a.34.34,0,1,0-.47-.47Zm.53.53a1,1,0,0,1-.14.22L34.1,32.48a1.43,1.43,0,0,1,.22-.15l.4.4a.55.55,0,1,1,.75.75Z"/><path class="cls-3" d="M35.3,33.18a.22.22,0,0,0,0-.31c-.07-.08-.21-.06-.31,0Z"/><path class="cls-3" d="M35.73,31.47l-.13.13.06.07.14-.14Zm.25.09-.3.3-.28-.28.3-.3Z"/><path class="cls-3" d="M36.67,32.4l-.14.14.07.06.13-.13Zm.25.1-.3.3-.28-.28.3-.3Z"/><path class="cls-3" d="M36.35,31.78l-.22.22.07.06.21-.21Zm.34,0-.54.55-.28-.28.54-.55Z"/><polygon class="cls-3" points="24.98 32.35 25.08 32.25 25.19 32.37 25.29 32.28 25.17 32.16 25.26 32.07 25.38 32.19 25.47 32.09 25.36 31.97 25.45 31.88 25.57 32 25.52 32.04 25.58 32.1 25.21 32.48 25.15 32.42 25.1 32.47 24.98 32.35"/><polygon class="cls-3" points="25.2 31.63 25.32 31.76 25.37 31.71 25.43 31.77 25.81 31.4 25.75 31.33 25.8 31.29 25.67 31.16 25.57 31.26 25.7 31.39 25.61 31.48 25.48 31.35 25.39 31.44 25.52 31.57 25.42 31.66 25.29 31.54 25.2 31.63"/><polygon class="cls-3" points="25.92 31.41 26.04 31.53 26.08 31.48 26.14 31.54 26.52 31.17 26.46 31.1 26.5 31.06 26.39 30.94 26.29 31.04 26.41 31.15 26.32 31.25 26.2 31.13 26.1 31.22 26.22 31.34 26.13 31.43 26.01 31.32 25.92 31.41"/><polygon class="cls-3" points="25.64 32.91 25.69 32.96 27 31.65 26.95 31.59 25.64 32.91"/><polygon class="cls-3" points="25.76 33.03 25.82 33.09 27.13 31.78 27.07 31.72 25.76 33.03"/><path class="cls-3" d="M27.78,32.35a1.9,1.9,0,0,0-.37-.2L27.27,32l0,0-.12-.12-1.31,1.31.12.12.05-.05.14.15a1.82,1.82,0,0,0,.2.36l.23-.23a.65.65,0,1,1,.92-.92Z"/><path class="cls-3" d="M27.38,32.87a.34.34,0,1,0-.47.47Zm.53-.54a1.7,1.7,0,0,1,.22.15L26.51,34.1l-.14-.22.4-.4a.55.55,0,1,1,.75-.75Z"/><path class="cls-3" d="M27.21,32.91a.22.22,0,0,0-.3,0,.24.24,0,0,0,0,.32Z"/><path class="cls-3" d="M25.51,32.47l.13.13.07-.06-.14-.14Zm.09-.25.3.3-.28.28-.3-.3Z"/><path class="cls-3" d="M26.44,31.53l.13.13.07-.06-.13-.13Zm.09-.25.31.3-.28.28-.31-.3Z"/><path class="cls-3" d="M25.82,31.85l.22.21L26.1,32l-.22-.22Zm0-.35.54.55-.28.28-.54-.54Z"/><polygon class="cls-3" points="24.02 25.17 24.16 25.17 24.16 25.34 24.29 25.34 24.29 25.17 24.42 25.17 24.42 25.34 24.55 25.34 24.55 25.17 24.68 25.17 24.68 25.34 24.63 25.34 24.63 25.42 24.09 25.42 24.09 25.34 24.02 25.34 24.02 25.17"/><polygon class="cls-3" points="24.68 24.82 24.68 25 24.75 25 24.75 25.08 25.29 25.08 25.29 25 25.35 25 25.35 24.82 25.22 24.82 25.22 25 25.08 25 25.08 24.82 24.96 24.82 24.96 25 24.82 25 24.82 24.82 24.68 24.82"/><polygon class="cls-3" points="25.35 25.17 25.35 25.34 25.42 25.34 25.42 25.42 25.95 25.42 25.95 25.34 26.01 25.34 26.01 25.17 25.88 25.17 25.88 25.34 25.75 25.34 25.75 25.17 25.62 25.17 25.62 25.34 25.48 25.34 25.48 25.17 25.35 25.17"/><rect class="cls-3" x="24.09" y="26.03" width="1.85" height="0.08"/><rect class="cls-3" x="24.09" y="26.2" width="1.85" height="0.08"/><path class="cls-3" d="M26,27.14a1.27,1.27,0,0,0-.12-.39v-.21H26v-.17H24.09v.17h.07v.21a1.56,1.56,0,0,0-.11.4h.32a.65.65,0,1,1,1.3,0Z"/><path class="cls-3" d="M25.35,27.24c0-.24-.15-.44-.33-.44a.41.41,0,0,0-.34.44Zm.76,0a2,2,0,0,1,.05.26H23.87l.06-.26h.56a.55.55,0,1,1,1.06,0Z"/><path class="cls-3" d="M25.21,27.14c0-.14-.08-.25-.19-.25s-.19.11-.19.25Z"/><path class="cls-3" d="M24.31,25.81h.09v-.19h-.09Zm.24.13h-.39v-.43h.39Z"/><path class="cls-3" d="M25.64,25.81h.09v-.19h-.09Zm.24.13h-.4v-.43h.4Z"/><path class="cls-3" d="M25,25.71h.09v-.3H25Zm.25.23h-.4v-.77h.4Z"/><polygon class="cls-3" points="36.18 25.17 36.31 25.17 36.31 25.34 36.45 25.34 36.45 25.17 36.58 25.17 36.58 25.34 36.71 25.34 36.71 25.17 36.84 25.17 36.84 25.34 36.78 25.34 36.78 25.42 36.25 25.42 36.25 25.34 36.18 25.34 36.18 25.17"/><polygon class="cls-3" points="36.84 24.82 36.84 25 36.91 25 36.91 25.08 37.44 25.08 37.44 25 37.51 25 37.51 24.82 37.37 24.82 37.37 25 37.24 25 37.24 24.82 37.11 24.82 37.11 25 36.97 25 36.97 24.82 36.84 24.82"/><polygon class="cls-3" points="37.51 25.17 37.51 25.34 37.57 25.34 37.57 25.42 38.1 25.42 38.1 25.34 38.17 25.34 38.17 25.17 38.03 25.17 38.03 25.34 37.9 25.34 37.9 25.17 37.77 25.17 37.77 25.34 37.64 25.34 37.64 25.17 37.51 25.17"/><rect class="cls-3" x="36.25" y="26.03" width="1.85" height="0.08"/><rect class="cls-3" x="36.25" y="26.2" width="1.85" height="0.08"/><path class="cls-3" d="M38.15,27.14a1.6,1.6,0,0,0-.11-.39v-.21h.06v-.17H36.25v.17h.07v.21a1.25,1.25,0,0,0-.12.4h.32a.65.65,0,1,1,1.3,0Z"/><path class="cls-3" d="M37.51,27.24a.4.4,0,0,0-.34-.44c-.18,0-.33.2-.33.44Zm.75,0a1.22,1.22,0,0,1,.06.26H36a2,2,0,0,1,0-.26h.57a.62.62,0,0,1,.53-.69c.29,0,.52.31.52.69Z"/><path class="cls-3" d="M37.36,27.14c0-.14-.08-.25-.19-.25a.23.23,0,0,0-.19.25Z"/><path class="cls-3" d="M36.47,25.81h.09v-.19h-.09Zm.24.13h-.39v-.43h.39Z"/><path class="cls-3" d="M37.79,25.81h.09v-.19h-.09Zm.25.13h-.4v-.43H38Z"/><path class="cls-3" d="M37.12,25.71h.1v-.3h-.1Zm.25.23H37v-.77h.4Z"/><polygon class="cls-3" points="36.18 19.43 36.31 19.43 36.31 19.6 36.45 19.6 36.45 19.43 36.58 19.43 36.58 19.6 36.71 19.6 36.71 19.43 36.84 19.43 36.84 19.6 36.78 19.6 36.78 19.69 36.25 19.69 36.25 19.6 36.18 19.6 36.18 19.43"/><polygon class="cls-3" points="36.84 19.08 36.84 19.26 36.91 19.26 36.91 19.34 37.44 19.34 37.44 19.26 37.51 19.26 37.51 19.08 37.37 19.08 37.37 19.26 37.24 19.26 37.24 19.08 37.11 19.08 37.11 19.26 36.97 19.26 36.97 19.08 36.84 19.08"/><polygon class="cls-3" points="37.51 19.43 37.51 19.6 37.57 19.6 37.57 19.69 38.1 19.69 38.1 19.6 38.17 19.6 38.17 19.43 38.03 19.43 38.03 19.6 37.9 19.6 37.9 19.43 37.77 19.43 37.77 19.6 37.64 19.6 37.64 19.43 37.51 19.43"/><rect class="cls-3" x="36.25" y="20.29" width="1.85" height="0.08"/><rect class="cls-3" x="36.25" y="20.46" width="1.85" height="0.09"/><path class="cls-3" d="M38.15,21.41A1.68,1.68,0,0,0,38,21v-.2h.06v-.17H36.25v.17h.07V21a1.33,1.33,0,0,0-.12.4h.32a.65.65,0,1,1,1.3,0Z"/><path class="cls-3" d="M37.51,21.5a.35.35,0,1,0-.67,0Zm.75,0a1,1,0,0,1,.06.25H36a2.21,2.21,0,0,1,0-.25h.57a.62.62,0,0,1,.53-.69c.29,0,.52.31.52.69Z"/><path class="cls-3" d="M37.36,21.41c0-.14-.08-.25-.19-.25a.23.23,0,0,0-.19.25Z"/><path class="cls-3" d="M36.47,20.08h.09v-.19h-.09Zm.24.12h-.39v-.42h.39Z"/><path class="cls-3" d="M37.79,20.08h.09v-.19h-.09Zm.25.12h-.4v-.42H38Z"/><path class="cls-3" d="M37.12,20h.1v-.31h-.1Zm.25.22H37v-.77h.4Z"/><polygon class="cls-3" points="24.02 19.43 24.16 19.43 24.16 19.6 24.29 19.6 24.29 19.43 24.42 19.43 24.42 19.6 24.55 19.6 24.55 19.43 24.68 19.43 24.68 19.6 24.63 19.6 24.63 19.69 24.09 19.69 24.09 19.6 24.02 19.6 24.02 19.43"/><polygon class="cls-3" points="24.68 19.08 24.68 19.26 24.75 19.26 24.75 19.34 25.28 19.34 25.28 19.26 25.35 19.26 25.35 19.08 25.22 19.08 25.22 19.26 25.08 19.26 25.08 19.08 24.96 19.08 24.96 19.26 24.82 19.26 24.82 19.08 24.68 19.08"/><polygon class="cls-3" points="25.35 19.43 25.35 19.6 25.42 19.6 25.42 19.69 25.95 19.69 25.95 19.6 26.01 19.6 26.01 19.43 25.88 19.43 25.88 19.6 25.75 19.6 25.75 19.43 25.62 19.43 25.62 19.6 25.48 19.6 25.48 19.43 25.35 19.43"/><rect class="cls-3" x="24.09" y="20.29" width="1.85" height="0.08"/><rect class="cls-3" x="24.09" y="20.46" width="1.85" height="0.09"/><path class="cls-3" d="M26,21.41a1.33,1.33,0,0,0-.12-.4v-.2H26v-.17H24.09v.17h.07V21a1.68,1.68,0,0,0-.11.4h.32a.74.74,0,0,1,.65-.69.75.75,0,0,1,.65.69Z"/><path class="cls-3" d="M25.35,21.5a.39.39,0,0,0-.33-.43.4.4,0,0,0-.34.43Zm.76,0a1.84,1.84,0,0,1,.05.25H23.87a2.27,2.27,0,0,1,.06-.25h.56a.55.55,0,1,1,1.06,0Z"/><path class="cls-3" d="M25.21,21.41c0-.14-.08-.25-.19-.25s-.19.11-.19.25Z"/><path class="cls-3" d="M24.31,20.08h.09v-.19h-.09Zm.24.12h-.39v-.42h.39Z"/><path class="cls-3" d="M25.64,20.08h.09v-.19h-.09Zm.24.12h-.4v-.42h.4Z"/><path class="cls-3" d="M25,20h.09v-.31H25Zm.25.22h-.4v-.77h.4Z"/><polygon class="cls-3" points="30.11 19.43 30.25 19.43 30.25 19.59 30.38 19.59 30.38 19.43 30.51 19.43 30.51 19.59 30.64 19.59 30.64 19.43 30.77 19.43 30.77 19.59 30.71 19.59 30.71 19.68 30.18 19.68 30.18 19.59 30.11 19.59 30.11 19.43"/><polygon class="cls-3" points="30.77 19.08 30.77 19.25 30.84 19.25 30.84 19.34 31.37 19.34 31.37 19.25 31.44 19.25 31.44 19.08 31.3 19.08 31.3 19.25 31.17 19.25 31.17 19.08 31.04 19.08 31.04 19.25 30.9 19.25 30.9 19.08 30.77 19.08"/><polygon class="cls-3" points="31.44 19.43 31.44 19.59 31.5 19.59 31.5 19.68 32.03 19.68 32.03 19.59 32.1 19.59 32.1 19.43 31.97 19.43 31.97 19.59 31.83 19.59 31.83 19.43 31.7 19.43 31.7 19.59 31.57 19.59 31.57 19.43 31.44 19.43"/><rect class="cls-3" x="30.18" y="20.29" width="1.85" height="0.08"/><rect class="cls-3" x="30.18" y="20.46" width="1.85" height="0.09"/><path class="cls-3" d="M32.08,21.4A1.82,1.82,0,0,0,32,21v-.2H32v-.17H30.18v.17h.07V21a1.27,1.27,0,0,0-.12.39h.32a.75.75,0,0,1,.65-.69.74.74,0,0,1,.65.69Z"/><path class="cls-3" d="M31.44,21.49a.35.35,0,1,0-.67,0Zm.75,0a1.1,1.1,0,0,1,.06.26H30a2,2,0,0,1,.05-.26h.57a.62.62,0,0,1,.53-.69.63.63,0,0,1,.53.69Z"/><path class="cls-3" d="M31.29,21.4c0-.14-.08-.25-.18-.25a.23.23,0,0,0-.2.25Z"/><path class="cls-3" d="M30.4,20.07h.09v-.19H30.4Zm.24.12h-.39v-.42h.39Z"/><path class="cls-3" d="M31.72,20.07h.09v-.19h-.09Zm.25.12h-.4v-.42H32Z"/><path class="cls-3" d="M31.06,20h.09v-.3h-.09Zm.24.22h-.4v-.76h.4Z"/><path class="cls-5" d="M26.53,28.37a4.59,4.59,0,1,0,9.16,0V22.14H26.53Z"/><path class="cls-6" d="M30,24.39a1.06,1.06,0,1,0,2.12,0V22.93H30Z"/><path class="cls-5" d="M31.1,24.24a.2.2,0,0,0,0-.4.2.2,0,0,0,0,.4Z"/><path class="cls-5" d="M30.6,23.58a.2.2,0,1,0-.2-.2.2.2,0,0,0,.2.2Z"/><path class="cls-5" d="M31.61,23.58a.2.2,0,1,1,.2-.2.2.2,0,0,1-.2.2Z"/><path class="cls-5" d="M30.6,24.5a.19.19,0,0,1,.2.19.2.2,0,0,1-.4,0,.19.19,0,0,1,.2-.19Z"/><path class="cls-5" d="M31.61,24.5a.19.19,0,0,0-.2.19.2.2,0,0,0,.4,0,.19.19,0,0,0-.2-.19Z"/><path class="cls-6" d="M30,27.78a1.06,1.06,0,1,0,2.12,0V26.32H30Z"/><path class="cls-5" d="M31.1,27.62a.19.19,0,0,0,.2-.19.19.19,0,0,0-.2-.2.2.2,0,0,0-.19.2.19.19,0,0,0,.19.19Z"/><path class="cls-5" d="M30.6,27a.2.2,0,1,0-.2-.2.2.2,0,0,0,.2.2Z"/><path class="cls-5" d="M31.61,27a.2.2,0,1,1,.2-.2.2.2,0,0,1-.2.2Z"/><path class="cls-5" d="M30.6,27.88a.2.2,0,1,1-.2.2.2.2,0,0,1,.2-.2Z"/><path class="cls-5" d="M31.61,27.88a.2.2,0,1,0,.2.2.2.2,0,0,0-.2-.2Z"/><path class="cls-6" d="M30,31.16a1.06,1.06,0,1,0,2.12,0V29.71H30Z"/><path class="cls-5" d="M31.1,31a.19.19,0,0,0,.2-.19.19.19,0,0,0-.2-.2.2.2,0,0,0-.19.2.2.2,0,0,0,.19.19Z"/><path class="cls-5" d="M30.6,30.36a.2.2,0,1,0-.2-.2.2.2,0,0,0,.2.2Z"/><path class="cls-5" d="M31.61,30.36a.2.2,0,1,1,.2-.2.2.2,0,0,1-.2.2Z"/><path class="cls-5" d="M30.6,31.28a.19.19,0,0,1,.2.19.2.2,0,1,1-.4,0,.19.19,0,0,1,.2-.19Z"/><path class="cls-5" d="M31.61,31.28a.19.19,0,0,0-.2.19.2.2,0,1,0,.4,0,.19.19,0,0,0-.2-.19Z"/><path class="cls-6" d="M27.3,27.78a1.06,1.06,0,1,0,2.12,0V26.32H27.3Z"/><path class="cls-5" d="M28.36,27.62a.19.19,0,0,0,.2-.19.2.2,0,1,0-.39,0,.19.19,0,0,0,.19.19Z"/><path class="cls-5" d="M27.86,27a.2.2,0,1,0-.2-.2.2.2,0,0,0,.2.2Z"/><path class="cls-5" d="M28.87,27a.2.2,0,1,1,.2-.2.2.2,0,0,1-.2.2Z"/><path class="cls-5" d="M27.86,27.88a.2.2,0,1,1-.2.2.2.2,0,0,1,.2-.2Z"/><path class="cls-5" d="M28.87,27.88a.2.2,0,1,0,.2.2.2.2,0,0,0-.2-.2Z"/><path class="cls-6" d="M34.9,27.78a1.06,1.06,0,1,1-2.12,0V26.32H34.9Z"/><path class="cls-5" d="M33.85,27.62a.19.19,0,0,1-.2-.19.2.2,0,0,1,.2-.2.19.19,0,0,1,.19.2.18.18,0,0,1-.19.19Z"/><path class="cls-5" d="M34.35,27a.2.2,0,1,1,.2-.2.2.2,0,0,1-.2.2Z"/><path class="cls-5" d="M33.34,27a.2.2,0,1,0-.2-.2.2.2,0,0,0,.2.2Z"/><path class="cls-5" d="M34.35,27.88a.2.2,0,1,0,.2.2.2.2,0,0,0-.2-.2Z"/><path class="cls-5" d="M33.34,27.88a.2.2,0,1,1-.2.2.2.2,0,0,1,.2-.2Z"/></g></g></g></g></svg>