<svg xmlns="http://www.w3.org/2000/svg" viewBox="0 0 79.77 54.9"><defs><style>.cls-1{fill:#3d9635;}.cls-2{fill:#fff;}</style></defs><title>Saudi Arabia</title><g id="Layer_2" data-name="Layer 2"><g id="flags"><g id="group_a" data-name="group a"><g id="Saudi_Arabia" data-name="Saudi Arabia"><rect class="cls-1" width="79.77" height="54.9"/><path class="cls-2" d="M19.46,15.56c-.09,1.28-.21,3.54.89,3.77,1.31.13.59-2.23,1.06-2.66.09-.21.26-.21.27.06v2a1,1,0,0,0,.75,1c.35,0,.58,0,.71.33.06,1.15.11,2.3.16,3.45,0,0,.81.23.84-1.94A20.81,20.81,0,0,1,24.06,19c0-.25.32-.26.53-.15s.5.55,1,.43c.81-.23,1.3-.62,1.32-1.25a5.41,5.41,0,0,0-.38-1.78c0-.11-.16-.39-.12-.5.15.23.37.21.42,0a1.76,1.76,0,0,0-.7-1.08c-.29-.26-.71-.2-.87.33A2.86,2.86,0,0,0,26,16.87a1.92,1.92,0,0,1,.17,1,.51.51,0,0,1-.67-.13s-.65-.48-.65-.59c.17-1.11,0-1.23-.06-1.54s-.27-.55-.43-.84-.38-.17-.48,0a2.87,2.87,0,0,0,0,2c.15.44.38.72.27.72-.09.24-.27.19-.41-.1a7.18,7.18,0,0,1-.23-1.87c-.05-.5-.12-1.55-.44-1.82s-.49-.14-.6.11a8.42,8.42,0,0,0,0,1.43,16.27,16.27,0,0,1,.4,2.3c0,1.09-.63.47-.6-.07a5,5,0,0,0,0-2.08c-.11-.28-.24-.34-.5-.3s-.74.57-.88,1.53a9.52,9.52,0,0,0-.19.94c-.07.49-.39.84-.62-.07-.2-.67-.33-2.31-.66-1.93"/><path class="cls-2" d="M23.05,20.82l-3.44,1.65a3.5,3.5,0,0,1,2.72-2.2c.7,0,.53.27.72.55"/><path class="cls-2" d="M27.43,13.56c-.07,0-.14,0-.22.07a.66.66,0,0,0-.47.8c.34,2,.55,3.55.88,5.56.05.24-.14.55-.4.52-.43-.3-.54-.89-1.28-.87a1.45,1.45,0,0,0-1.22,1.15,2.8,2.8,0,0,0,0,1.32,1.06,1.06,0,0,0,1.22.3c.33-.13.59-.45.71-.38h0c.07.12,0,1.17-1.53,2-.94.42-1.68.52-2.08-.25-.25-.48,0-2.29-.59-1.87-1.81,4.66,4.23,5.31,4.91.19,0-.15.18-.29.27-.25s.08.07.09.17c-.14,4.64-4.67,5-5.45,3.5A4.53,4.53,0,0,1,22,23.94a.82.82,0,0,0-.19-.5c-.18-.14-.43.22-.48.85a5.39,5.39,0,0,0-.06,1.13c.24,3.66,6.08,2.08,7-.94a10.25,10.25,0,0,0,.15-2.89h0c.58.63,1.39.08,1.57-.13a.26.26,0,0,1,.4,0,.93.93,0,0,0,1.41-.4,12.18,12.18,0,0,0,.2-1.74,1.76,1.76,0,0,0-.63.26.18.18,0,0,0,0,.09c0,.16-.05.33-.08.49s0,0,0,0a.15.15,0,0,1-.06.05c-.1.06-.28,0-.29-.12-.14-.64-.72-.73-1.07.26-.24.19-.67.23-.71-.06.06-.66-.21-.75-.74-.44-.17-1.31-.35-2.56-.52-3.87.22,0,.43.16.63-.1a7.1,7.1,0,0,0-.95-2.21h0s0,0,0,0h-.14m-1.63,7.2a.3.3,0,0,1,.32.2.37.37,0,0,1-.06.35h0c0,.06-.2,0-.32,0a.3.3,0,0,1-.28-.15c0-.12.08-.24.13-.34h0l0,0a.42.42,0,0,1,.19-.08"/><path class="cls-2" d="M31.5,13.45a1.09,1.09,0,0,0-.42.12.79.79,0,0,0-.13,1c.23.11.46.34.31.47-.65.69-2.34,1.85-2.43,2.06h0a4.82,4.82,0,0,0,1.26,0h0a17.62,17.62,0,0,0,2.08-2.1l-.26-.21a.15.15,0,0,1,0-.25.68.68,0,0,0,.07-1,1.12,1.12,0,0,0-.51-.11m-.09.61a.34.34,0,0,1,.3.23c.07.14,0,.28-.08.31s-.25-.07-.31-.22,0-.28.07-.31h0"/><path class="cls-2" d="M19.73,24.13a3.4,3.4,0,0,0-.34,3,.76.76,0,0,0,.73.24,1.35,1.35,0,0,0,.48-1.3c-.13-.21-.24-.24-.37-.06-.29.57-.41.18-.43-.15a6.85,6.85,0,0,1,.08-1.62c.07-.46,0-.32-.15-.13"/><path class="cls-2" d="M47.3,22.48c-.63-1.34-1.49-2.67-1.76-3.18s-2.35-3.52-2.66-3.86c-.67-.8,1.1.33-.22-1.25l-.95-.81c-.21-.15-.73-.42-.82,0a2.62,2.62,0,0,0,0,.94,3,3,0,0,0,.53.81,59.48,59.48,0,0,1,5.77,9.28c.28-.14.22-1.74.06-2"/><path class="cls-2" d="M44.56,27c-.13.14.3.73.85.73a3.27,3.27,0,0,0,2.5-2,3.57,3.57,0,0,0,.56-1.53,33.11,33.11,0,0,0-.62-7.75,1.2,1.2,0,0,1,0-.54c.06-.07.26,0,.37-.18s-.42-1.5-.75-2c-.12-.23-.16-.39-.35,0a3,3,0,0,0-.33,1.45c.45,3.06.58,5.73.87,8.78a1.21,1.21,0,0,1-.22.9A8.49,8.49,0,0,1,44.56,27"/><path class="cls-2" d="M57.05,27c-.67.39-.67.83-.13.85a3.3,3.3,0,0,0,2.77-1.33,4.42,4.42,0,0,0,.45-1.71,40.27,40.27,0,0,0-.5-8.37,3.93,3.93,0,0,1-.09-.79c.06-.15.36,0,.47-.16s-.78-1.37-1.11-1.88c-.12-.23-.16-.38-.35,0a2.35,2.35,0,0,0-.2,1.46,78.88,78.88,0,0,1,.93,9.46,3,3,0,0,1-.18.78,6.18,6.18,0,0,1-.91,1.06c-.3.22-.94.44-1.15.6"/><path class="cls-2" d="M57.55,24c0-.77,0-1.44,0-2s-.29-2.75-.38-3.22S57,17.57,56.84,17a5,5,0,0,1-.11-1c.05-.15.26,0,.36-.17a6.38,6.38,0,0,0-.87-2.44c-.13-.22-.35-.15-.63.22s-.16.79-.06,1.32a48.57,48.57,0,0,1,1,10.39c0,.28,1-.84,1-1.37"/><path class="cls-2" d="M52.64,19.69c-.41,0-1.29-.81-1.54-1.29a.84.84,0,0,1,0-.69c.15-.09.39-.21.57-.1,0,0,.18.26.15.29.22.11.32.05.35,0s-.07-.25-.07-.43a.49.49,0,0,1,.86-.26,2,2,0,0,1,.23.86c0,.14-.23,0-.36,0s-.15.18-.16.32c0,.35-.07.91-.08,1.34"/><path class="cls-2" d="M44.94,24.84a35.88,35.88,0,0,0,0-3.83,46.44,46.44,0,0,0-.4-4.78c-.13-.89.37.1.3-.42a5.72,5.72,0,0,0-1.23-2.31c-.19-.27-.19-.32-.48.07a2.72,2.72,0,0,0,0,1.79,32.84,32.84,0,0,1,.78,5.22A46.2,46.2,0,0,1,44,26.11c.31,0,.82-.51,1-1.27"/><path class="cls-2" d="M59,23.15c-.74-1.23-1.85-2.68-2.15-3.17S54,15.8,53.7,15.47c-.92-1,.42-.15-.18-.9a7,7,0,0,0-1.08-1.06c-.22-.14-.35-.41-.42.05a8.21,8.21,0,0,0,0,1.2,1.61,1.61,0,0,0,.36.75A67.94,67.94,0,0,1,59,25.09c.28-.14.18-1.72,0-1.94"/><path class="cls-2" d="M50.05,37.73h0a.62.62,0,0,0-.21,1.14c-6.87,0-17.42-.12-19.68-.12-1.27,0-5.27-.15-5.35-.15.86,1.26,2.1,1.51,3.73,1.54l21.22,0A1.45,1.45,0,0,0,50,41.58h.06c.26.07.38-.13.47-.26a28.7,28.7,0,0,0,3.09,0h0c.15.22.3.43.59.39.5-.11.9-.16.91-1.18,0,0-.05-1.73-1.19-1.62-.27,0-1,.11-1,.11-.87-.1-1.51-.11-2.5-.15.09-.11.25-.58.06-.75a.34.34,0,0,0-.24-.06h0l0,0h0c0-.07-.07-.25-.1-.3h0m.47,2.47h0c1,.06,1.95,0,2.95.06a.38.38,0,0,1,0,.51h0l-.85,0v0c-.08-.23-.64-.21-.77,0,0,0,0,0,0,0h0v0s0,0,0,0v0a9.12,9.12,0,0,1-1.28,0,.38.38,0,0,1,0-.53"/><path class="cls-2" d="M32.66,14.5c-.67,1.92.39,4,1.12,3.81.52.22.86-.78,1.08-1.88.14-.31.25-.34.33-.18,0,1.46.11,1.78.48,2.22a1.22,1.22,0,0,0,1.59,0l.65-.65a.4.4,0,0,1,.54,0c.2.18.17.5.6.71a1.31,1.31,0,0,0,1.31-.27c.23-.41.29-.55.4-.71s.46-.13.46-.05-.19.25-.08.48.25.05.37,0c.43-.21.75-1.13.75-1.13,0-.34-.18-.32-.3-.24s-.17.13-.34.23-.61.17-.81-.14-.2-.89-.36-1.27c0,0-.27-.59,0-.62s.4.09.44-.13-.28-.86-.57-1.17a.61.61,0,0,0-.92,0c-.24.21-.2.45-.25.68a1.06,1.06,0,0,0,.22.92A2.9,2.9,0,0,1,39.87,17a.77.77,0,0,1-.68.34c-.18,0-.47-.12-.63-1.26-.12-.88,0-2.09-.34-2.66-.13-.35-.23-.68-.56-.09a1.38,1.38,0,0,0-.19,1.3,3.83,3.83,0,0,1,.22,2,5.64,5.64,0,0,1-.39.55.66.66,0,0,1-.83.11.9.9,0,0,1-.5-.7,9.9,9.9,0,0,0-.07-2.24.41.41,0,0,0-.68-.14A5.05,5.05,0,0,0,34,16.76c-.19.61-.4.44-.54.19-.35-.32-.37-2.86-.79-2.45"/><path class="cls-2" d="M34.92,18.46h0s-.11.11-.22.19-.23.38-.22.83c0,0,.37,1.05.68,1.75a5.61,5.61,0,0,1,.26,2.38,5.86,5.86,0,0,1-2.4,2.5,1.29,1.29,0,0,1-1,0h0a.63.63,0,0,1-.27-.57h0a5.6,5.6,0,0,0,2.4-2.49,2.52,2.52,0,0,0,.07-1.79,1.71,1.71,0,0,0-.41-.83h0c.14-.07.49.19.54,0a2.55,2.55,0,0,0-.69-1.28.58.58,0,0,0-.84-.05c-.29.16-.36.74-.22,1.26s.58.44.88,1.22h0c0,.05.1.58,0,.79a9.7,9.7,0,0,1-1.81,1.7h0a1.73,1.73,0,0,0,0-.24c0-.23.09-.76.08-.85h0c-.52.34-.69,1.36-.78,1.67a24.55,24.55,0,0,0-3.67,2.51c-.45.7,3.09-.81,3.5-1h0c.08.09.08.39.32.66a1.86,1.86,0,0,0,1.9.61,6.06,6.06,0,0,0,2.76-2.29c.11-.16.27-.28.43-.16.51,1.15,2,2,3.9,2,.45-.54.24-.8.06-.91s-.95-.39-1.09-.74.12-.61.55-.82a19.58,19.58,0,0,0,3.6-.69,3.35,3.35,0,0,1,.4-1.24.5.5,0,0,1,.21-.22h0a0,0,0,0,0,0,0l-.2-.12H39.63l-.11-.06h0a.25.25,0,0,1,.12-.07c.94-.13,2.6-.4,2.71-2a1.31,1.31,0,1,0-2.58.05c0,.22.07.64-.15.69-1.44.13-3,1-3.06,1.68h-.07a.38.38,0,0,1-.19-.4,7.75,7.75,0,0,0-1-3.35c-.21-.21-.29-.29-.35-.3h0m5.73,1.43A.5.5,0,0,1,41,20c.16.09.25.22.24.32h0l0,0c-.07.07-.25.06-.41,0a.43.43,0,0,1-.24-.33h0s0,0,0,0h0s0,0,0,0l.1,0M37,23.21s0,0,0,0h0a12.46,12.46,0,0,0,1.64.18c.45,0,.68.39.26.54s-.83.25-.83.86a1,1,0,0,1,0,.54h-.07c-.11,0-.26-.08-.36-.13a2.23,2.23,0,0,1-1.09-1.61.39.39,0,0,1,.41-.42"/><path class="cls-2" d="M24.41,14.53c.45.21,1.3.12,1.26-.61,0-.06,0-.28,0-.34-.09-.21-.34-.16-.4.06,0,.07,0,.19,0,.23s-.19,0-.18-.19a.34.34,0,0,0-.08-.17.13.13,0,0,0-.1,0c-.06,0-.06,0-.09.08a.42.42,0,0,0,0,.16c0,.08,0,.1-.08.11s0,0-.1,0-.06-.05-.06-.1a.52.52,0,0,0,0-.18.17.17,0,0,0-.11-.06c-.25,0-.26.29-.25.39s0,.53.31.67"/><path class="cls-2" d="M37.64,20.13c.46.21,1.53.09,1.27-.61,0-.06,0-.28,0-.34-.09-.21-.35-.16-.4.06s0,.19,0,.23-.18,0-.17-.18a.33.33,0,0,0-.08-.18s0,0-.1,0-.06,0-.09.07a.47.47,0,0,0,0,.17c0,.07,0,.1-.09.1s0,0-.09,0-.06,0-.06-.1a.43.43,0,0,0,0-.17.17.17,0,0,0-.11-.06c-.25,0-.27.28-.25.39s0,.52.3.66"/><path class="cls-2" d="M45.37,17.81c.45.22,1.29.12,1.26-.6,0-.07,0-.29,0-.35a.21.21,0,0,0-.4.06c0,.08,0,.2,0,.23S46,17.17,46,17a.33.33,0,0,0-.08-.18.15.15,0,0,0-.1,0c-.06,0-.06,0-.09.07a.53.53,0,0,0,0,.17c0,.07,0,.1-.09.11s0,0-.09,0-.06,0-.06-.09a.74.74,0,0,0,0-.18.17.17,0,0,0-.11-.06c-.25,0-.27.28-.25.38s0,.53.31.67"/><path class="cls-2" d="M49.36,23.63a2.77,2.77,0,0,0-.26,2.68,2.1,2.1,0,0,0,1,1.1.69.69,0,0,0,1-.11c.46-.48.47-1.7.69-1.94a.4.4,0,0,1,.72-.17,1.78,1.78,0,0,0,.66.56,1.11,1.11,0,0,0,1.45.11,1.73,1.73,0,0,0,.78-.95,35.93,35.93,0,0,0,0-5.54c0-.13-.45-2.28-.45-2.3s-.05-1.09-.1-1.35c0-.1,0-.13.07-.12a.74.74,0,0,0,.21.14c.11,0,.22-.18.15-.36l-1.08-2c-.09-.09-.2-.18-.34,0a.74.74,0,0,0-.26.58c0,.48.11,1,.14,1.43.15.8.29,1.61.43,2.41.14,1.73.18,3.3.31,5a3.27,3.27,0,0,1-.46,1.79.5.5,0,0,1-.54,0,6.7,6.7,0,0,1-.79-1.06.49.49,0,0,0-.77,0,10.87,10.87,0,0,0-1.35,2.55c-.11.18-.42.33-.77,0a3.66,3.66,0,0,1-.48-2.49"/><path class="cls-2" d="M45.57,13.58a1.51,1.51,0,0,1,.6,1.39c-.09.5-.3,1-.46,1s.12-.49,0-.94-.64-.83-.59-1c-.11-.33.24-.48.49-.42"/><path class="cls-2" d="M50.67,24.12A12.1,12.1,0,0,0,50.58,22c0-.58-.65-5.27-.78-5.71-.15-.83.61-.11.53-.59-.27-.61-.93-1.49-1.13-2-.13-.22-.07-.42-.35-.06a4.5,4.5,0,0,0-.25,2.06,44.85,44.85,0,0,1,1.23,9.91c.32,0,.68-.72.84-1.43"/><path class="cls-2" d="M57.58,14.76c.37.18.58,1.2.54,1.5-.07.54-.27,1.11-.41,1s0-.8,0-1-.58-.9-.53-1.07a.34.34,0,0,1,.44-.45"/><path class="cls-2" d="M30.16,22.26c.36.14.57.89.53,1.11-.07.39-.26.81-.39.76s0-.59-.05-.75c0-.4-.52-.61-.51-.79s.21-.38.42-.33"/><path class="cls-2" d="M20.74,13.34c.52.15.55.92.51,1.14-.07.41-.26.85-.39.8s0-.61-.07-.78-.52-.69-.47-.82c-.1-.27.2-.39.42-.34"/><path class="cls-2" d="M31,17a.93.93,0,0,0-.31,1.23.6.6,0,0,0,.65.21c.39.05.62-.73.62-.73s0-.23-.45.19c-.2,0-.22,0-.27-.15a1,1,0,0,1,.06-.61c.07-.19-.08-.28-.3-.14"/><path class="cls-2" d="M34,13a1.46,1.46,0,0,0-.61,1c0,.27-.06.27.11.44s.26.16.52,0a.57.57,0,0,0,.24-.36c.06-.31-.32.14-.37-.2s.16-.44.39-.75c0-.21,0-.36-.28-.19"/><path class="cls-2" d="M36.42,13.47a6.59,6.59,0,0,0-.17,1.19c-.07.3.31.43.49,0A3.87,3.87,0,0,0,37,13.41c-.08-.46-.38-.44-.59.06"/><path class="cls-2" d="M51.64,21.21c0-.05,2.15-1.54,2.15-1.54.21-.07.16.77.06.77A8.66,8.66,0,0,1,51.64,22c-.1.07-.21-.58,0-.77"/><path class="cls-2" d="M53.55,21.2c.37.19.51,1.26.47,1.56,0,.57-.35,1-.49.95s0-.71-.06-.93-.4-.92-.34-1.09a.36.36,0,0,1,.42-.49"/><path class="cls-2" d="M41.1,25.85a2.66,2.66,0,0,1,.61-.52.41.41,0,0,1,.4.07c0,.21-.13.4-.08.68,0,.11.08.23.28.18a1.53,1.53,0,0,1,1-.29c.26,0,.27.44.11.45a7.53,7.53,0,0,0-1.33.46.31.31,0,0,1-.39-.05.39.39,0,0,1,0-.39c0-.22-.08-.34-.26-.32s-.26.13-.33,0,0-.17.05-.24"/><path class="cls-2" d="M55.75,26.43a.27.27,0,0,1,0,.41c-.14.13-.25.2-.39.34s-.12.3.1.35c.39.11,1.29-.47,1.29-.49a.28.28,0,0,0,.09-.31c-.09-.1-.28,0-.41-.06s-.26,0-.17-.21a1.38,1.38,0,0,0,.17-.32c.06-.13,0-.22-.22-.29a1.75,1.75,0,0,0-.56,0c-.13,0-.18.08-.2.25s.16.23.31.33"/></g></g></g></g></svg>