<svg xmlns="http://www.w3.org/2000/svg" viewBox="0 0 79.61 53.85"><defs><style>.cls-1{fill:#fff;}.cls-2{fill:#0038a8;}.cls-3,.cls-4{fill-rule:evenodd;}.cls-4{fill:#fcd116;}</style></defs><title>Uruguay</title><g id="Layer_2" data-name="Layer 2"><g id="flags"><g id="group_a" data-name="group a"><g id="uruguay"><rect class="cls-1" width="79.61" height="53.85"/><rect class="cls-2" x="29.48" y="5.5" width="50.12" height="6.12"/><rect class="cls-2" x="29.48" y="17.73" width="50.12" height="6.12"/><rect class="cls-2" y="30" width="79.61" height="6.12"/><rect class="cls-2" y="42.24" width="79.61" height="6.12"/><path class="cls-3" d="M10.72,11.75,7.29,6.65l4.51,3.43a4.29,4.29,0,0,0-.48-2.17,2.69,2.69,0,0,1-.24-3.26l.18-.28,0,.33A2.27,2.27,0,0,0,12,7a5.6,5.6,0,0,1,1.85,2.4l1-6.12.95,5.85a3.8,3.8,0,0,0,1-1.81,2.59,2.59,0,0,1,2-2.53l.31-.08-.24.22a3.08,3.08,0,0,0-.75.93A2,2,0,0,0,18,7.09a5.7,5.7,0,0,1-.24,3l4.82-3.51-3.29,4.92A3.4,3.4,0,0,0,21.19,11a2.43,2.43,0,0,1,3.12-.37l.28.17-.32,0a2.1,2.1,0,0,0-2.13.93,5.72,5.72,0,0,1-2.05,1.92l5.55,1-5.41,1c.4.4,1,1,1.53,1.08a2.52,2.52,0,0,1,2.4,2.1l.07.33-.2-.26a2.13,2.13,0,0,0-2.11-1,5.67,5.67,0,0,1-2.62-.1l3.28,4.82-4.5-3.36a4.4,4.4,0,0,0,.44,2.18,2.69,2.69,0,0,1,.18,3.26l-.18.28,0-.33a2.27,2.27,0,0,0-.77-2.27,5.74,5.74,0,0,1-1.88-2.42l-1,5.81L14,20.31c-.44.45-1.12,1.12-1.19,1.7a2.56,2.56,0,0,1-2.12,2.41l-.31.07.25-.21a2.27,2.27,0,0,0,1-2.15,7.33,7.33,0,0,1,.19-2.94L7.25,22.51l3.33-4.87a3.89,3.89,0,0,0-2.12.57,2.43,2.43,0,0,1-3.13.35l-.28-.16.32,0a2.13,2.13,0,0,0,2.14-.92,5.55,5.55,0,0,1,2.11-1.94l-5.39-1,5.32-.91a3.79,3.79,0,0,0-1.7-1.18,2.54,2.54,0,0,1-2.32-2.22l-.06-.33.2.27a2.12,2.12,0,0,0,2.07,1.07A5.09,5.09,0,0,1,10.72,11.75Z"/><path class="cls-4" d="M14.94,11.26a3.45,3.45,0,1,1-3.33,3.45A3.38,3.38,0,0,1,14.94,11.26Z"/><path class="cls-4" d="M14.8,4.42,13.91,9.7A5.22,5.22,0,0,0,12,7a2.39,2.39,0,0,1-.85-2.32l0,.07a3.25,3.25,0,0,0,0,.88,3.16,3.16,0,0,0,.79,1.74,6.76,6.76,0,0,1,1.41,2.37,14.06,14.06,0,0,1,.48,1.6,3.35,3.35,0,0,1,1-.2V4.42Zm-1.17,7a3.2,3.2,0,0,0-1,.68L7.7,7.05l4.18,3.2a4.58,4.58,0,0,0-.5-2.39,2.59,2.59,0,0,1-.48-2.69c0,.17,0,.34,0,.51a3.33,3.33,0,0,0,.85,1.84,6.89,6.89,0,0,1,1.36,2.32,11.73,11.73,0,0,1,.48,1.59Zm3.6.65L21.94,7.2,17.6,10.36A5.37,5.37,0,0,0,18,7.11a2.26,2.26,0,0,1,0-.9,3,3,0,0,0-.32,1.37,7.35,7.35,0,0,1-.56,2.73c-.18.44-.38.86-.58,1.24a3.4,3.4,0,0,1,.73.53Zm-.9-.61A3.22,3.22,0,0,0,15,11.16V4.1l.84,5.16a4.2,4.2,0,0,0,1.13-2,2.51,2.51,0,0,1,1.89-2.44,3.7,3.7,0,0,0-.76.81,3.3,3.3,0,0,0-.62,1.94,7.13,7.13,0,0,1-.55,2.65,13.07,13.07,0,0,1-.58,1.24Zm2,3a3.55,3.55,0,0,0-.19-1,10.6,10.6,0,0,0,1.1-.41,6.63,6.63,0,0,0,2.26-1.52,3,3,0,0,1,1.66-.86l.39,0a2,2,0,0,0-1.5.94,5.15,5.15,0,0,1-2.25,2l4.83.87Zm-.25-1.16a3.68,3.68,0,0,0-.74-1.14L22,7.46l-2.8,4.17A3.8,3.8,0,0,0,21.24,11,2.34,2.34,0,0,1,24,10.51a4.38,4.38,0,0,0-.8,0,3.13,3.13,0,0,0-1.76.93,6.37,6.37,0,0,1-2.2,1.46,9.21,9.21,0,0,1-1.09.41ZM8.17,7.81l4.31,4.43a3.49,3.49,0,0,0-.69,1.08,14.46,14.46,0,0,0-1.26-.76A6.53,6.53,0,0,0,8,11.77,3,3,0,0,1,6.25,11a3.49,3.49,0,0,1-.63-.71.2.2,0,0,0,0-.07,2.21,2.21,0,0,0,2.14,1.1A4.79,4.79,0,0,1,11,12L8.17,7.81Zm3.55,5.7a3.62,3.62,0,0,0-.2,1H5.07l4.65-.79A4.07,4.07,0,0,0,7.85,12.4a2.44,2.44,0,0,1-2.1-1.6,4.44,4.44,0,0,0,.38.37A3.11,3.11,0,0,0,7.94,12a6.23,6.23,0,0,1,2.51.77,14.69,14.69,0,0,1,1.27.78ZM5.37,14.7l4.53.83a5.14,5.14,0,0,0-2.32,2,2.14,2.14,0,0,1-2,1,3.81,3.81,0,0,0,.83,0,2.93,2.93,0,0,0,1.71-.74,6.62,6.62,0,0,1,2.34-1.36,11.75,11.75,0,0,1,1.33-.37,3.75,3.75,0,0,1-.25-1.34H5.37Zm6.47,1.53a3.58,3.58,0,0,0,.55.84L7.88,21.73l2.85-4.18a4.27,4.27,0,0,0-2.33.61,2.36,2.36,0,0,1-2.6.56,3,3,0,0,0,.6,0,3.12,3.12,0,0,0,1.82-.79A6.48,6.48,0,0,1,10.5,16.6a11.34,11.34,0,0,1,1.34-.37ZM8,21.86l4.51-4.65a3.59,3.59,0,0,0,1,.7c-.19.34-.39.71-.56,1.1a7.3,7.3,0,0,0-.66,2.71,3.18,3.18,0,0,1-.65,1.8,3.32,3.32,0,0,1-.86.82h0a2.35,2.35,0,0,0,1-2.24A7.17,7.17,0,0,1,12,19L8,21.86ZM13.62,18a3.39,3.39,0,0,0,1.18.27v6.28l-.73-4.4c-.51.54-1.24,1.22-1.32,1.85a2.53,2.53,0,0,1-1.51,2.2,4.36,4.36,0,0,0,.49-.55,3.4,3.4,0,0,0,.7-1.92,6.74,6.74,0,0,1,.64-2.63c.17-.39.37-.76.55-1.1ZM15,24.89l.89-5.3a5.53,5.53,0,0,0,2,2.7,2.39,2.39,0,0,1,.8,2.34l.05-.09a3.74,3.74,0,0,0,0-1.06,3.23,3.23,0,0,0-.79-1.75,6.88,6.88,0,0,1-1.4-2.37,11.31,11.31,0,0,1-.4-1.31,3.48,3.48,0,0,1-1.12.21v6.63ZM16.26,18a3.36,3.36,0,0,0,1.07-.74l4.74,4.86-4.07-3a4.87,4.87,0,0,0,.45,2.39,2.59,2.59,0,0,1,.45,2.64,3.58,3.58,0,0,0,0-.65A3.31,3.31,0,0,0,18,21.6a6.94,6.94,0,0,1-1.36-2.31c-.17-.45-.3-.9-.41-1.31Zm5.49,3.53L17.46,17.1a3.53,3.53,0,0,0,.54-.82c.3.16.62.33,1,.48a6.45,6.45,0,0,0,2.62.61,2.91,2.91,0,0,1,1.75.64,3.63,3.63,0,0,1,.75.77,2.19,2.19,0,0,0-2.18-1,5.6,5.6,0,0,1-2.8-.17l2.65,3.89ZM18.08,16.1a3.7,3.7,0,0,0,.27-1.39h6.31l-4.6.84c.51.5,1.15,1.16,1.69,1.21A2.44,2.44,0,0,1,24,18.31c-.16-.15-.33-.31-.51-.46a3.12,3.12,0,0,0-1.86-.66A6.33,6.33,0,0,1,19,16.58,7.66,7.66,0,0,1,18.08,16.1Z"/><path class="cls-3" d="M15.32,13.39c.61-1,1.33-.76,2.07-.09a1.76,1.76,0,0,0-2.07.09Zm-.93,1.52a1.94,1.94,0,0,1-.73.75A1.08,1.08,0,0,1,15,15.6a.92.92,0,0,1,1.23.09,2.64,2.64,0,0,1-.74-.78c.11.28.05.4-.19.34a.48.48,0,0,1-.34.18.35.35,0,0,1-.29-.18c-.27.11-.3-.05-.23-.34Zm.24,2.22a.66.66,0,0,1,.64,0,1.38,1.38,0,0,0-.64,0Zm-1.23-.89c.47-.09,1.1-.37,1.52-.17.45-.21,1.05.08,1.53.14a.76.76,0,0,0-.2-.2c.31.18.33.15.29.51a.46.46,0,0,0-.08-.3,5.43,5.43,0,0,1-1.55.54,5.33,5.33,0,0,1-1.52-.5.46.46,0,0,0-.06.26c0-.36,0-.33.3-.51a.84.84,0,0,0-.23.23Zm.49.06a2.78,2.78,0,0,0,.95.27,2.85,2.85,0,0,0,1.09-.26,2.82,2.82,0,0,0-1,0,2.68,2.68,0,0,0-1,0Zm.6-2.52a1.05,1.05,0,0,0-1.69,0c.62.5,1.09.63,1.69,0Zm-1.09-.32a.32.32,0,0,0-.13.29.36.36,0,0,0,.36.33.37.37,0,0,0,.39-.33.33.33,0,0,0-.19-.33.92.92,0,0,1,.59.36c-.55.55-1,.43-1.54,0a1.53,1.53,0,0,1,.52-.32Zm1.17-.07a1.76,1.76,0,0,0-2.07-.09c.75-.67,1.47-.88,2.07.09Zm.84.39c.6.63,1.07.5,1.68,0a1,1,0,0,0-1.68,0Zm1.09-.32a1.41,1.41,0,0,1,.51.32c-.56.43-1,.55-1.53,0a.93.93,0,0,1,.58-.36.39.39,0,0,0,.19.72.38.38,0,0,0,.37-.39A.43.43,0,0,0,16.5,13.46Z"/></g></g></g></g></svg>